<svg width="160" height="160" viewBox="0 0 160 160" fill="none" xmlns="http://www.w3.org/2000/svg">
<g clip-path="url(#clip0)">
<path d="M157.992 97.8948C167.87 54.8339 140.97 11.9184 97.9093 2.04033C54.8484 -7.83775 11.9329 19.0622 2.0548 62.1231C-7.82329 105.184 19.0767 148.1 62.1376 157.978C105.198 167.856 148.114 140.956 157.992 97.8948Z" fill="#8ABDAD"/>
<path d="M79.994 112.863C97.1786 112.863 111.11 93.5681 111.11 69.7661C111.11 45.964 97.1786 26.6687 79.994 26.6687C62.8093 26.6687 48.8784 45.964 48.8784 69.7661C48.8784 93.5681 62.8093 112.863 79.994 112.863Z" fill="white"/>
<path d="M79.4998 110.109C53.461 110.109 30.1645 116.347 14.687 126.167C22.0447 136.586 31.7882 145.093 43.104 150.979C54.4197 156.864 66.9793 159.957 79.7341 160C92.4889 160.042 105.069 157.032 116.423 151.222C127.778 145.412 137.578 136.969 145.004 126.599C129.527 116.532 105.934 110.109 79.4998 110.109Z" fill="white"/>
<path d="M84.7372 79.9939H75.2506C68.6879 79.9939 63.3677 85.3141 63.3677 91.8769V118.916C63.3677 125.479 68.6879 130.799 75.2506 130.799H84.7372C91.3 130.799 96.6202 125.479 96.6202 118.916V91.8769C96.6202 85.3141 91.3 79.9939 84.7372 79.9939Z" fill="white"/>
<path d="M53.7946 72.212C54.7211 79.1293 53.1894 85.1202 50.3607 85.6019C47.532 86.0837 44.4933 80.8586 43.5669 73.9537C42.6405 67.0487 44.1598 61.0578 46.9885 60.5761C49.8172 60.0943 52.8558 65.2576 53.7946 72.212Z" fill="white"/>
<path d="M106.205 72.212C105.267 79.1293 106.798 85.1202 109.627 85.6019C112.456 86.0837 115.494 80.8586 116.433 73.9537C117.372 67.0487 115.828 61.0578 112.999 60.5761C110.171 60.0943 107.132 65.2576 106.205 72.212Z" fill="white"/>
<path d="M50.0023 68.074C48.9482 61.1649 47.9024 54.264 46.8648 47.3714C46.4818 44.901 46.1113 42.2205 47.0253 39.8612C47.9394 37.5019 50.6199 35.612 53.0039 36.5014C52.0527 31.7087 57.3643 28.1635 61.9841 26.6195C69.7156 23.7866 77.9947 22.7681 86.1823 23.6426C94.3986 24.5635 102.023 28.3667 107.7 34.3768C109.489 36.2579 110.872 38.4861 111.764 40.9235C113.357 45.6545 112.345 50.8054 111.319 55.7463L108.849 67.3946C108.734 68.2906 108.389 69.1416 107.848 69.8651C106.885 70.9397 105.254 71.0138 103.809 71.0138L57.5125 71.125C54.6097 71.125 50.8299 70.4086 50.4469 67.5305" fill="white"/>
</g>
<defs>
<clipPath id="clip0">
<rect width="160" height="160" fill="white"/>
</clipPath>
</defs>
</svg>
