<svg width="66" height="66" viewBox="0 0 66 66" fill="none" xmlns="http://www.w3.org/2000/svg">
<rect width="66" height="66" rx="8" fill="#FF5555"/>
<g clip-path="url(#clip0)">
<path d="M42.0694 31.0378C42.0694 31.7123 41.5227 32.259 40.8482 32.259C40.174 32.259 39.627 31.7123 39.627 31.0378C39.627 30.3636 40.174 29.8166 40.8482 29.8166C41.5227 29.8166 42.0694 30.3636 42.0694 31.0378Z" fill="white"/>
<path d="M40.8469 18.0443C38.3679 18.0443 36.3571 20.0504 36.3571 22.5341V22.5357C36.3571 23.2099 36.9037 23.7563 37.5783 23.7563C38.2528 23.7563 38.7995 23.2087 38.7995 22.5341C38.7995 21.4051 39.7125 20.4867 40.8485 20.4867C41.9782 20.4867 42.8972 21.4058 42.8972 22.5357C42.8972 23.6653 41.9782 24.5844 40.8485 24.5844C40.174 24.5844 39.6273 25.1314 39.6273 25.8057V27.1137C39.6273 27.7882 40.174 28.3349 40.8485 28.3349C41.5227 28.3349 42.0697 27.7882 42.0697 27.1137V26.8583C43.9547 26.325 45.3397 24.5889 45.3397 22.5357C45.3397 20.0589 43.325 18.0443 40.8469 18.0443Z" fill="white"/>
<path d="M23.8764 43.3244C25.394 42.1426 26.3729 40.3 26.3729 38.2322C26.3729 34.6738 23.4776 31.7788 19.9192 31.7788C16.3609 31.7788 13.4659 34.6738 13.4659 38.2322C13.4659 40.3 14.4448 42.1426 15.9621 43.3244C13.8205 44.5984 12.1578 47.0046 12.1578 50.0048V52.6209C12.1578 53.2954 12.7045 53.8421 13.3791 53.8421H26.4598C27.134 53.8421 27.681 53.2954 27.681 52.6209V50.0048C27.681 47.0052 26.0187 44.5987 23.8764 43.3244ZM15.9083 38.2322C15.9083 36.0206 17.7077 34.2212 19.9196 34.2212C22.1311 34.2212 23.9305 36.0206 23.9305 38.2322C23.9305 40.444 22.1311 42.2434 19.9196 42.2434C17.7077 42.2434 15.9083 40.444 15.9083 38.2322ZM25.2385 51.3997H14.6003V50.0048C14.6003 47.0669 16.9772 44.6859 19.9192 44.6859C22.8572 44.6859 25.2382 47.0628 25.2382 50.0048V51.3997H25.2385Z" fill="white"/>
<path d="M48.6967 12.1579H32.9999C30.1581 12.1579 27.8546 14.4572 27.8546 17.3032V40.8482C27.8546 41.8471 29.0001 42.4314 29.8086 41.8252L34.7151 38.1453H48.6967C51.5386 38.1453 53.8421 35.846 53.8421 33V17.3032C53.8421 14.4614 51.5427 12.1579 48.6967 12.1579V12.1579ZM51.3996 33C51.3996 34.4941 50.1914 35.7029 48.6967 35.7029H34.308C34.0437 35.7029 33.7867 35.7888 33.5753 35.9471L30.297 38.4058V17.3032C30.297 15.8091 31.5052 14.6003 32.9999 14.6003H48.6967C50.1908 14.6003 51.3996 15.8085 51.3996 17.3032V33Z" fill="white"/>
</g>
<defs>
<clipPath id="clip0">
<rect width="41.6842" height="41.6842" fill="white" transform="translate(12.1578 12.1579)"/>
</clipPath>
</defs>
</svg>
