<svg width="66" height="66" viewBox="0 0 66 66" fill="none" xmlns="http://www.w3.org/2000/svg">
<rect width="66" height="66" rx="8" fill="#FF5555"/>
<g clip-path="url(#clip0)">
<path d="M12.1579 14.3501V51.6499H53.8421V14.3501H12.1579ZM24.3701 19.235V16.7925H26.8125V19.235H24.3701ZM19.4852 19.235V16.7925H21.9276V19.235H19.4852ZM14.6003 16.7925H17.0428V19.235H14.6003V16.7925ZM51.3997 49.2075H14.6003V21.6774H51.3997V49.2075ZM29.2549 19.235V16.7925H51.3997V19.235H29.2549Z" fill="white"/>
<path d="M33 46.8813C39.3074 46.8813 44.4387 41.7499 44.4387 35.4425C44.4387 29.1352 39.3074 24.0038 33 24.0038C26.6927 24.0038 21.5613 29.1352 21.5613 35.4425C21.5613 41.7499 26.6927 46.8813 33 46.8813ZM24.0869 36.6637H28.5139C28.6022 39.0587 28.9484 41.289 29.5125 43.0415C29.5978 43.3067 29.6947 43.5795 29.804 43.8517C26.7824 42.6994 24.5367 39.9635 24.0869 36.6637ZM33 26.4565C33.1992 26.5652 33.7557 27.1761 34.267 28.9333C34.6953 30.4053 34.9632 32.2495 35.0419 34.2213H30.9579C31.0366 32.2495 31.3046 30.4052 31.7329 28.9332C32.2442 27.1761 32.8008 26.5652 33 26.4565ZM35.042 36.6637C34.9632 38.6354 34.6953 40.4797 34.2671 41.9518C33.7558 43.7089 33.1992 44.3198 33.0001 44.4286C32.8009 44.3198 32.2443 43.7089 31.733 41.9519C31.3047 40.4798 31.0368 38.6355 30.9581 36.6637H35.042ZM36.196 43.8517C36.3053 43.5795 36.4022 43.3067 36.4876 43.0415C37.0515 41.289 37.3978 39.0587 37.486 36.6637H41.9131C41.4632 39.9635 39.2176 42.6995 36.196 43.8517ZM41.9131 34.2213H37.486C37.3977 31.8263 37.0515 29.5961 36.4876 27.8435C36.4022 27.5784 36.3053 27.3055 36.196 27.0334C39.2176 28.1856 41.4632 30.9215 41.9131 34.2213ZM29.804 27.0334C29.6947 27.3055 29.5978 27.5784 29.5125 27.8435C28.9485 29.5961 28.6022 31.8263 28.5139 34.2213H24.0869C24.5367 30.9215 26.7824 28.1856 29.804 27.0334Z" fill="white"/>
</g>
<defs>
<clipPath id="clip0">
<rect width="41.6842" height="41.6842" fill="white" transform="translate(12.1579 12.158)"/>
</clipPath>
</defs>
</svg>
