<svg width="63" height="61" viewBox="0 0 63 61" fill="none" xmlns="http://www.w3.org/2000/svg">
<circle cx="30.3111" cy="30.3111" r="30.3111" fill="#8ABDAD" fill-opacity="0.5"/>
<g clip-path="url(#clip0)">
<path d="M62.7061 32.3987C61.8725 35.3685 60.4769 38.2239 58.5577 40.8856C57.8891 41.8128 56.5957 42.0223 55.6685 41.3538C54.7413 40.6853 54.5317 39.3918 55.2002 38.4646C56.8345 36.1982 58.019 33.781 58.7208 31.2803C58.9983 30.2914 58.8024 29.2559 58.1835 28.4392C57.5643 27.6223 56.6182 27.1537 55.588 27.1537H17.3981C16.3678 27.1537 15.4218 27.6223 14.8026 28.4392C14.1836 29.2559 13.9877 30.2913 14.2653 31.2803C15.4515 35.507 17.8791 39.3468 21.1821 42.2706L23.9095 38.2106C25.5314 35.992 28.7856 38.1806 27.3454 40.5187L18.239 54.0749C17.5977 55.0309 16.3035 55.2712 15.367 54.6388C14.4181 54.0014 14.1657 52.7156 14.8031 51.7668L18.8568 45.7324C14.7488 42.2416 11.7301 37.5661 10.28 32.3987C9.64927 30.1515 10.0955 27.7969 11.5039 25.9389C12.9126 24.0804 15.061 23.0146 17.3981 23.0146H55.588C60.3887 22.9214 64.0915 27.8027 62.7061 32.3987ZM49.0766 38.2106C47.4545 35.992 44.2005 38.1806 45.6407 40.5187L48.4674 44.7266C42.8201 48.1813 35.7224 49.0076 29.3677 46.9154C28.2798 46.5641 27.1135 47.1613 26.7623 48.2491C26.4112 49.3368 27.0083 50.5034 28.0961 50.8545C35.6414 53.337 44.0951 52.3242 50.7778 48.166L54.7471 54.0749C55.3884 55.0309 56.6826 55.2711 57.6191 54.6388C58.5679 54.0014 58.8203 52.7156 58.183 51.7668L49.0766 38.2106ZM27.1796 19.5996C26.0366 19.5996 25.11 18.673 25.11 17.5299C25.11 14.976 25.9409 11.9522 27.4498 9.01534C28.8849 6.22257 30.7361 3.91026 32.529 2.67169C33.631 1.91048 35.0646 1.7983 36.2707 2.37925C37.4865 2.96496 38.2672 4.11702 38.3593 5.46115C38.4167 6.29852 38.8267 7.47811 39.3416 8.64363C39.8394 8.16409 40.4703 7.8256 41.181 7.67649C42.4936 7.40071 43.8183 7.82757 44.7236 8.81779C46.3473 10.5936 47.876 15.1731 47.876 17.4265C47.876 18.5696 46.9494 19.4962 45.8064 19.4962C44.6633 19.4962 43.7367 18.5696 43.7367 17.4265C43.7367 16.1357 42.7589 13.3641 42.0092 12.0954C41.832 12.422 41.537 12.9572 41.0323 13.8726C40.677 14.5172 40.0061 14.9245 39.2703 14.9424C38.535 14.9597 37.8447 14.5862 37.4583 13.9596C37.175 13.5002 34.855 9.66665 34.3233 6.51697C31.9139 8.63638 29.2494 13.7527 29.2494 17.5299C29.2493 18.673 28.3227 19.5996 27.1796 19.5996Z" fill="black"/>
</g>
<defs>
<clipPath id="clip0">
<rect width="53" height="53" fill="white" transform="translate(10 2)"/>
</clipPath>
</defs>
</svg>
