<svg width="62" height="63" viewBox="0 0 62 63" fill="none" xmlns="http://www.w3.org/2000/svg">
<circle cx="30.3111" cy="32.689" r="30.3111" fill="#8ABDAD" fill-opacity="0.5"/>
<path d="M54.8813 5.54017L56.5922 3.80117C57.4474 2.93184 57.4477 1.52214 56.593 0.652472C55.7382 -0.217194 54.3517 -0.217528 53.4966 0.651693L51.785 2.39136C48.2957 -0.333862 42.7502 -1.08753 39.6489 2.15502L30.891 11.061C29.2007 12.7798 28.4704 15.3353 28.8873 18.0717C29.1693 19.9229 29.9474 21.7601 31.1237 23.4026L15.6708 39.1168C15.357 36.1121 15.5401 33.2642 16.2252 30.4882C16.5194 29.2956 15.8074 28.086 14.6345 27.7867C13.4614 27.4871 12.2723 28.2115 11.9779 29.4042C10.9208 33.6878 10.8771 38.2612 11.846 43.0062L6.64124 48.299C5.78625 49.1685 5.78625 50.5782 6.64124 51.4477C7.49635 52.3172 8.88262 52.3172 9.73772 51.4477L21.2782 39.7122C25.4789 41.8543 29.7946 41.5714 34.1717 39.5401C36.7641 38.2021 35.0329 34.3677 32.3465 35.4924C29.5317 36.8048 26.9883 37.0764 24.6246 36.3093L34.2167 26.5551C36.2836 28.0943 38.6528 28.9444 40.9223 28.9443C42.9655 28.905 44.9924 28.1186 46.3508 26.7373C46.3508 26.7373 55.115 17.8795 55.1173 17.877C56.8049 16.1582 57.5338 13.6046 57.1172 10.8702C56.8352 9.01928 56.0572 7.18243 54.8813 5.54017ZM52.0197 14.7295L52.0037 14.7456C50.4017 16.3504 46.8233 15.5418 44.3315 13.0079C43.4764 12.1384 42.0901 12.1384 41.2351 13.0079C40.3801 13.8775 40.3801 15.2872 41.2351 16.1566C42.9353 17.8856 44.9951 19.1103 47.1261 19.6752L43.2591 23.5836C42.693 24.1593 41.9084 24.4729 40.9904 24.4905C39.2365 24.524 37.2433 23.5746 35.6466 21.9508C34.3402 20.6224 33.4539 18.9601 33.2147 17.39C33.0967 16.6157 33.0402 15.173 33.9876 14.2098L42.7455 5.30383C43.6508 4.41457 44.8338 4.37115 45.8728 4.51788C47.4169 4.76112 49.0515 5.66251 50.3579 6.99095C52.8694 9.54495 53.6296 13.0875 52.0197 14.7295ZM40.9223 28.9443C40.8646 28.9454 40.98 28.9443 40.9223 28.9443V28.9443ZM50.687 56.9981C44.9621 57.1137 40.0416 52.0074 40.1561 46.1984C40.156 43.7231 40.949 40.7679 42.3891 37.8774C43.769 35.1075 45.5402 32.8293 47.2488 31.627C48.3542 30.8493 49.7927 30.7341 51.003 31.3265C52.2067 31.9156 53.011 33.1226 53.1021 34.4765C53.1494 35.1794 53.4649 36.1469 53.8778 37.1297C54.3252 36.7722 54.8558 36.5178 55.44 36.3933C56.757 36.1124 58.086 36.5485 58.9939 37.5598C65.447 45.1459 60.9745 56.7548 50.687 56.9981ZM48.9131 36.0071C46.8029 38.1623 44.5349 42.8137 44.5349 46.1985C44.5349 49.7573 47.2373 52.5451 50.687 52.5451C54.5385 52.5451 57.6718 49.3915 57.6718 45.5153C57.6718 44.1629 56.974 42.4173 56.2967 41.3087C56.1257 41.6149 55.8885 42.0371 55.5563 42.6285C55.1735 43.3097 54.4665 43.7358 53.6952 43.75C52.9257 43.7649 52.202 43.3648 51.7952 42.6983C51.5404 42.2811 49.5484 38.9561 48.9131 36.0071Z" fill="black"/>
</svg>
