<svg width="65" height="61" viewBox="0 0 65 61" fill="none" xmlns="http://www.w3.org/2000/svg">
<circle cx="30.3111" cy="30.3111" r="30.3111" fill="#8ABDAD" fill-opacity="0.5"/>
<path d="M62.9918 34.7487C62.785 34.1823 62.1583 33.8909 61.592 34.0976C61.0256 34.3045 60.7341 34.9312 60.9409 35.4975C61.2957 36.469 61.4755 37.4915 61.4755 38.5362V50.8166H57.7637V39.5398C57.7637 38.937 57.2748 38.4481 56.672 38.4481C56.0691 38.4481 55.5803 38.937 55.5803 39.5398V50.8166H46.9052V42.3287C46.9052 38.6627 44.4232 35.485 40.8692 34.6015C40.8543 34.5978 40.8394 34.5944 40.8244 34.5913L40.7386 34.5737C41.6404 33.6472 42.2886 32.4737 42.5696 31.1652L46.3504 37.211C46.5499 37.5301 46.8997 37.7239 47.276 37.7239C47.6523 37.7239 48.0021 37.53 48.2017 37.2109L52.9066 29.6841C53.8632 29.7147 54.7987 29.8952 55.6906 30.2252C55.8156 30.2714 55.9435 30.2933 56.0694 30.2933C56.5131 30.2933 56.9304 30.0206 57.0934 29.5801C57.3025 29.0145 57.0138 28.3866 56.4483 28.1774C55.4004 27.7897 54.3055 27.5669 53.1866 27.5102C55.1778 25.8266 56.4453 23.3128 56.4453 20.5073V17.076V15.1312V14.5721C56.4453 14.4702 56.4304 14.3721 56.4043 14.2786C55.9725 9.62052 52.0439 5.96103 47.275 5.96103C42.5061 5.96103 38.5775 9.62052 38.1458 14.2786C38.1197 14.3721 38.1047 14.4702 38.1047 14.5721V15.1313V17.0761V20.5074C38.1047 20.9868 38.1421 21.4574 38.2132 21.9171C37.5795 21.6743 36.9021 21.5214 36.196 21.4729V15.09C36.196 8.42347 30.7726 3 24.1061 3C17.4397 3 12.0162 8.42347 12.0162 15.09V29.8344C9.4295 31.8571 7.76367 35.0057 7.76367 38.5364V51.9083C7.76367 52.5111 8.25254 53 8.85538 53H62.5672C63.17 53 63.6589 52.5111 63.6589 51.9083V38.5364C63.6589 37.2353 63.4344 35.9609 62.9918 34.7487ZM47.2758 34.5729L43.7809 28.9844C44.8585 29.4302 46.0382 29.6777 47.275 29.6777H50.3357L47.2758 34.5729ZM40.2882 15.1313C40.2881 11.2787 43.4224 8.14443 47.275 8.14443C51.1277 8.14443 54.2619 11.2787 54.2619 15.1313V15.1686L50.5023 12.9598C50.0426 12.6896 49.4551 12.7913 49.1126 13.1999C47.6297 14.9694 45.4552 15.9844 43.1464 15.9844H40.2882V15.1313ZM40.2881 18.1678H43.1463C45.7902 18.1678 48.2966 17.1284 50.155 15.2881L54.2619 17.7009V20.5074C54.2619 24.36 51.1275 27.4943 47.2749 27.4943C43.4224 27.4943 40.2881 24.36 40.2881 20.5074V18.1678ZM24.1475 27.4943C20.2949 27.4943 17.1606 24.36 17.1606 20.5074V18.1678H20.0189C22.6628 18.1678 25.1692 17.1284 27.0276 15.2881L31.1344 17.7009V20.5074C31.1344 24.36 28.0001 27.4943 24.1475 27.4943ZM27.5866 29.0061L24.1069 34.5729L21.0457 29.6777H24.1475C25.3636 29.6777 26.5238 29.4378 27.5866 29.0061ZM30.8796 28.5822H34.3576C35.0877 28.5822 35.7949 28.3876 36.4131 28.0365L38.2885 28.5443C38.3816 28.5695 38.4774 28.5824 38.5738 28.5824H40.5429V29.6949C40.5429 32.3538 38.3755 34.5171 35.7113 34.5171C33.0471 34.5171 30.8796 32.3539 30.8796 29.6949V28.5822ZM40.0759 26.3989H38.719L38.0683 26.2227C38.1709 25.7722 37.9783 25.2882 37.5592 25.0406C37.0401 24.734 36.3708 24.9061 36.064 25.4251C35.7091 26.0258 35.0553 26.3989 34.3576 26.3989H31.3466C32.1235 24.7678 33.7876 23.6377 35.7113 23.6377C37.635 23.6377 39.299 24.7679 40.0759 26.3989ZM14.1996 15.09C14.1996 9.62751 18.6437 5.18341 24.1061 5.18341C29.5686 5.18341 34.0126 9.62751 34.0126 15.09V21.6633C33.738 21.7319 33.4701 21.8171 33.2093 21.9171C33.2805 21.4575 33.3178 20.9868 33.3178 20.5074V17.0761C33.3178 16.6943 33.1082 16.3282 32.7791 16.1348L27.3748 12.9598C26.9151 12.6897 26.3276 12.7913 25.9851 13.1999C24.5022 14.9694 22.3276 15.9844 20.0189 15.9844H16.0689C15.4661 15.9844 14.9772 16.4731 14.9772 17.0761V20.5074C14.9772 23.3122 16.2442 25.8255 18.2345 27.5091C16.8008 27.5824 15.4388 27.9311 14.1996 28.5023V15.09ZM24.5174 50.8166H15.8423V44.3392C15.8423 43.7364 15.3534 43.2475 14.7506 43.2475C14.1477 43.2475 13.6589 43.7364 13.6589 44.3392V50.8166H9.94708V38.5364C9.94708 33.7623 13.7436 29.8605 18.4758 29.6861L23.1815 37.211C23.381 37.5301 23.7308 37.7239 24.1071 37.7239C24.4834 37.7239 24.8332 37.53 25.0328 37.2109L28.8418 31.1172C29.1172 32.4449 29.7708 33.6352 30.6833 34.573L30.5894 34.593C30.5773 34.5956 30.5652 34.5985 30.5533 34.6014C26.9994 35.485 24.5174 38.6626 24.5174 42.3286V50.8166ZM44.7218 50.8166H41.5308V44.048C41.5308 43.4452 41.042 42.9563 40.4391 42.9563C39.8363 42.9563 39.3474 43.4452 39.3474 44.048V50.8166H31.0505V44.048C31.0505 43.4452 30.5616 42.9563 29.9588 42.9563C29.3559 42.9563 28.8671 43.4452 28.8671 44.048V50.8166H26.7007V42.3287C26.7007 39.6738 28.4936 37.3719 31.0628 36.7247L33.2578 36.2573C34.0219 36.5431 34.8484 36.7004 35.7112 36.7004C36.5619 36.7004 37.3778 36.5481 38.1329 36.2698L40.3636 36.7257C42.9309 37.3741 44.7218 39.675 44.7218 42.3287V50.8166Z" fill="black" stroke="black"/>
<path d="M44.5725 19.2476C44.3695 19.0445 44.0878 18.9277 43.8007 18.9277C43.5125 18.9277 43.2319 19.0445 43.0289 19.2476C42.8247 19.4507 42.709 19.7323 42.709 20.0194C42.709 20.3076 42.8247 20.5882 43.0289 20.7913C43.2319 20.9954 43.5126 21.1111 43.8007 21.1111C44.0878 21.1111 44.3695 20.9954 44.5725 20.7913C44.7755 20.5882 44.8924 20.3076 44.8924 20.0194C44.8924 19.7323 44.7756 19.4507 44.5725 19.2476Z" fill="black"/>
<path d="M51.5237 19.2476C51.3206 19.0445 51.039 18.9277 50.7519 18.9277C50.4647 18.9277 50.1831 19.0445 49.98 19.2476C49.7771 19.4507 49.6602 19.7323 49.6602 20.0194C49.6602 20.3076 49.777 20.5882 49.98 20.7913C50.1831 20.9954 50.4647 21.1111 50.7519 21.1111C51.039 21.1111 51.3206 20.9954 51.5237 20.7913C51.7266 20.5882 51.8436 20.3066 51.8436 20.0194C51.8436 19.7323 51.7267 19.4507 51.5237 19.2476Z" fill="black"/>
<path d="M21.4435 19.2476C21.2406 19.0445 20.9589 18.9277 20.6718 18.9277C20.3846 18.9277 20.103 19.0445 19.8999 19.2476C19.6969 19.4507 19.5801 19.7323 19.5801 20.0194C19.5801 20.3066 19.6968 20.5882 19.8999 20.7913C20.103 20.9954 20.3846 21.1111 20.6718 21.1111C20.9589 21.1111 21.2406 20.9954 21.4435 20.7913C21.6466 20.5882 21.7635 20.3066 21.7635 20.0194C21.7635 19.7323 21.6467 19.4507 21.4435 19.2476Z" fill="black"/>
<path d="M28.3947 19.2476C28.1917 19.0445 27.9111 18.9277 27.623 18.9277C27.3358 18.9277 27.0542 19.0445 26.8511 19.2476C26.6481 19.4507 26.5312 19.7323 26.5312 20.0194C26.5312 20.3066 26.648 20.5882 26.8511 20.7913C27.0543 20.9943 27.3358 21.1111 27.623 21.1111C27.9112 21.1111 28.1917 20.9943 28.3947 20.7913C28.5988 20.5882 28.7147 20.3066 28.7147 20.0194C28.7147 19.7323 28.5988 19.4507 28.3947 19.2476Z" fill="black"/>
</svg>
