<?xml version="1.0" encoding="utf-8"?>
<!-- Generator: Adobe Illustrator 25.3.1, SVG Export Plug-In . SVG Version: 6.00 Build 0)  -->
<svg version="1.1" id="Capa_1" xmlns="http://www.w3.org/2000/svg" xmlns:xlink="http://www.w3.org/1999/xlink" x="0px" y="0px"
     viewBox="0 0 512 512" style="enable-background:new 0 0 512 512;" xml:space="preserve">
<g>
	<path d="M425.7,337.4l-5.1,78.1c-2.4,37.2-33.6,66.4-70.9,66.4c-37.3,0-68.5-29.2-70.9-66.4l-5.1-78.1h-35.4l-5.1,78.1
		c-2.4,37.3-33.6,66.4-70.9,66.4c-37.3,0-68.5-29.2-70.9-66.4l-5.1-78.1H56.3l5.2,80.1c3.5,53,47.8,94.5,100.9,94.5
		c42.1,0,78.6-26,93.7-63.2c15.1,37.2,51.6,63.2,93.7,63.2c53.1,0,97.4-41.5,100.9-94.5l5.2-80.1H425.7z M489.4,259.3
		c-1.6-24.3-9.9-48.5-24-70.7l4-60.9c2.2-33.5-9.2-65.4-32.2-89.8C414.3,13.5,383.2,0,349.7,0s-64.6,13.5-87.5,37.9
		c-2.2,2.3-4.2,4.7-6.2,7.1c-2-2.4-4-4.8-6.2-7.1C226.9,13.5,195.8,0,162.3,0S97.7,13.5,74.8,37.9c-22.9,24.5-34.3,56.4-32.2,89.8
		l4,60.9c-14.1,22.2-22.3,46.4-24,70.7c-0.5,6.9-0.4,13.9,0.3,20.7c1.2,12.2,7.5,23.3,17.4,30.6c3.4,2.5,7.1,4.5,11,5.9H85l-0.1-1.4
		c16.5-7.6,26.8-24.8,25-43.6c-0.2-2.2-0.2-4.3-0.1-6.4c1.6-24.2,21.1-49.3,52.5-68.3c31.4,18.9,50.9,44.1,52.5,68.3
		c0.1,2.1,0.1,4.3-0.1,6.4c-1.8,18.7,8.5,35.9,25,43.6l-0.1,1.4h33.7c3.9-1.4,7.6-3.4,11-5.9c9.9-7.3,16.2-18.5,17.3-30.6
		c0.7-6.8,0.8-13.7,0.3-20.7c-0.2-3.5-0.6-7-1.1-10.5c7.2-18.8,24.4-37.2,48.8-51.9c31.5,18.9,50.9,44.1,52.5,68.3
		c0.1,2.1,0.1,4.3-0.1,6.4c-1.8,18.7,8.6,35.9,25,43.6l-0.1,1.4h33.7c3.9-1.4,7.6-3.4,11-5.9c9.9-7.3,16.2-18.5,17.4-30.6
		C489.7,273.2,489.8,266.3,489.4,259.3z M96.7,58.4C113.9,40.1,137.2,30,162.3,30s48.5,10.1,65.6,28.4
		c17.2,18.4,25.8,42.3,24.1,67.4l-1.9,28.7c-18.8-18.5-44.1-37-72.9-47.9V69.1h-30v37.6c-28.8,10.9-54.1,29.4-72.9,47.9l-1.9-28.7
		C70.9,100.7,79.5,76.8,96.7,58.4z M271.9,277.1c-0.4,3.8-2.3,7.1-5.3,9.4c-3.2,2.4-7.1,3.2-11,2.4c-6.9-1.4-11.6-7.6-10.9-14.5
		c0.4-3.8,0.4-7.6,0.2-11.3c-2.5-36.9-29.9-72.1-75.3-96.7l-7.1-3.9l-7.2,3.9c-45.4,24.6-72.8,59.9-75.3,96.7
		c-0.2,3.7-0.2,7.5,0.2,11.3c0.7,6.9-4,13.1-10.9,14.5c-3.9,0.8-7.8-0.1-11-2.4c-3.1-2.3-5-5.6-5.3-9.4c-0.5-5.2-0.6-10.5-0.2-15.8
		c1.5-23.2,10.8-46.5,26.8-67.4c15.9-20.8,46.8-48.6,82.9-60.9c36.1,12.3,67,40.1,82.9,60.9c16,20.9,25.3,44.2,26.9,67.4
		c0.1,2.2,0.2,4.4,0.2,6.6C272.3,271,272.2,274.1,271.9,277.1z M272.8,73.1c3.2-5.2,6.9-10.1,11.2-14.7
		C301.2,40.1,324.5,30,349.7,30c25.1,0,48.5,10.1,65.6,28.4c17.2,18.4,25.8,42.3,24.1,67.4l-1.9,28.7c-18.8-18.5-44.1-37-72.9-47.9
		V69.1h-30v37.6c-19.7,7.5-37.8,18.5-53.3,30.6l0.6-9.5C283.3,108.7,280.1,90.1,272.8,73.1z M459.2,277.1c-0.4,3.8-2.3,7.1-5.3,9.4
		c-3.2,2.4-7.1,3.2-11,2.4c-6.9-1.4-11.6-7.6-10.9-14.5c0.4-3.8,0.4-7.6,0.2-11.3c-2.5-36.9-29.9-72.1-75.3-96.7l-7.2-3.9l-7.1,3.9
		c-22.4,12.1-40.4,26.9-53.2,43.1c-3.2-7.1-7-14.1-11.3-20.9l0.5-8.4c17.2-18,42.5-37.5,71.1-47.2c36.1,12.3,67,40.1,82.9,60.9
		c16,20.9,25.3,44.2,26.8,67.4c0.2,2.2,0.2,4.5,0.2,6.7C459.7,271.1,459.5,274.1,459.2,277.1z"/>
</g>
</svg>