<svg width="63" height="69" viewBox="0 0 63 69" fill="none" xmlns="http://www.w3.org/2000/svg">
<circle cx="29.8271" cy="39.8075" r="29.1923" fill="#8ABDAD" fill-opacity="0.5"/>
<g clip-path="url(#clip0)">
<path d="M52.9717 60.7923H19.0175C5.72469 60.2302 5.73492 40.9433 19.0175 40.3862H52.9717C66.2645 40.9484 66.2543 60.2352 52.9717 60.7923ZM19.0175 44.6823C11.3216 45.0077 11.3275 56.1738 19.0175 56.4963H52.9717C60.6676 56.1709 60.6617 45.0048 52.9717 44.6823H19.0175ZM13.2179 36.9494V10.439C13.2179 10.3801 13.2179 10.2237 13.409 10.1346C13.6043 10.0437 13.7235 10.1487 13.7685 10.1882C16.3073 12.4235 19.3339 16.175 19.3339 21.3527V34.8014C19.4452 37.6514 23.4414 37.6492 23.5518 34.8014V21.3527C23.5518 14.5509 19.7315 9.7598 16.5268 6.93817C15.1617 5.73604 13.2947 5.46367 11.6544 6.22783C10.0171 6.99059 9 8.60428 9 10.439V36.9494C9 38.1358 9.94418 39.0974 11.109 39.0974C12.2737 39.0974 13.2179 38.1358 13.2179 36.9494ZM17.4358 50.5893C17.4358 49.1064 18.6161 47.9043 20.072 47.9043C23.5689 48.0457 23.5679 53.1334 20.072 53.2743C18.6161 53.2743 17.4358 52.0722 17.4358 50.5893ZM51.9172 53.2743C53.3731 53.2743 54.5534 52.0722 54.5534 50.5893C54.4145 47.0277 49.4194 47.0286 49.281 50.5893C49.281 52.0722 50.4613 53.2743 51.9172 53.2743ZM62.3844 38.6809C63.2069 37.8409 63.2049 36.4808 62.3802 35.6432L52.725 25.8371C52.1138 25.2163 51.6731 24.4582 51.4508 23.6444C50.3275 18.8718 45.373 13.4744 39.9709 13.3424C37.876 13.2341 35.7635 13.7583 33.693 14.9021C30.9313 16.4021 31.4819 20.8446 34.5239 21.5948C39.0772 22.7525 39.093 25.8249 38.709 28.035C38.4119 29.744 38.9549 31.491 40.1614 32.7083L43.6421 36.22C44.4698 37.0549 45.8051 37.0482 46.6246 36.2056C47.4442 35.3627 47.4379 34.0027 46.6105 33.1678L43.1296 29.6562C42.9064 29.4308 42.8064 29.1049 42.8622 28.7839C43.5886 24.6036 42.2458 22.0058 40.9915 20.5627C40.0352 19.4626 38.7875 18.5998 37.2689 17.9865C39.9428 17.1056 42.4636 17.8495 44.7815 20.2102C46.3302 21.7876 47.0533 23.575 47.3873 24.7966C47.8047 26.3237 48.6205 27.7354 49.7466 28.8791L59.4018 38.6852C59.8134 39.1033 60.3522 39.3122 60.8909 39.3122C61.4317 39.3122 61.9724 39.1017 62.3844 38.6809Z" fill="black"/>
</g>
<defs>
<clipPath id="clip0">
<rect width="54" height="55" fill="white" transform="translate(9)"/>
</clipPath>
</defs>
</svg>
