<svg width="44" height="44" viewBox="0 0 44 44" fill="none" xmlns="http://www.w3.org/2000/svg">
<circle cx="22" cy="22" r="22" fill="#8ABDAD" fill-opacity="0.5"/>
<path d="M34.2002 42H7.79142C-2.54747 41.5707 -2.53951 26.8405 7.79142 26.415H34.2002C44.5391 26.8444 44.5312 41.5745 34.2002 42ZM7.79142 29.6961C1.80572 29.9446 1.81032 38.4726 7.79142 38.719H34.2002C40.1859 38.4704 40.1813 29.9424 34.2002 29.6961H7.79142ZM3.2806 23.7902V3.54314C3.2806 3.49819 3.2806 3.37868 3.42921 3.31068C3.5811 3.2412 3.67386 3.32142 3.7088 3.35161C5.68347 5.05882 8.03746 7.92399 8.03746 11.8784V22.1497C8.12407 24.3263 11.2322 24.3247 11.3181 22.1497V11.8784C11.3181 6.68359 8.34674 3.02441 5.85414 0.869419C4.79246 -0.0486989 3.3403 -0.256717 2.06456 0.326898C0.791116 0.909448 0 2.14189 0 3.54314V23.7902C0 24.6963 0.734362 25.4307 1.6403 25.4307C2.54624 25.4307 3.2806 24.6963 3.2806 23.7902ZM6.56119 34.2075C6.56119 33.075 7.47919 32.1569 8.61157 32.1569C11.3313 32.2649 11.3306 36.1506 8.61157 36.2582C7.47919 36.2582 6.56119 35.3401 6.56119 34.2075ZM33.3801 36.2582C34.5125 36.2582 35.4304 35.3401 35.4304 34.2075C35.3224 31.4874 31.4373 31.4881 31.3297 34.2075C31.3297 35.3401 32.2477 36.2582 33.3801 36.2582ZM41.5212 25.1126C42.1609 24.4711 42.1594 23.4323 41.5179 22.7926L34.0083 15.3033C33.5329 14.8292 33.1902 14.2502 33.0173 13.6287C32.1436 9.98358 28.2901 5.86136 24.0885 5.76055C22.4591 5.67787 20.816 6.07824 19.2057 6.95182C17.0577 8.09739 17.4859 11.4903 19.852 12.0633C23.3934 12.9474 23.4057 15.294 23.107 16.9819C22.8759 18.2872 23.2982 19.6214 24.2366 20.5511L26.9439 23.2331C27.5876 23.8708 28.6262 23.8657 29.2636 23.2221C29.9011 22.5784 29.8962 21.5397 29.2526 20.9021L26.5453 18.2201C26.3717 18.048 26.2939 17.799 26.3373 17.5539C26.9023 14.3612 25.8578 12.3772 24.8823 11.275C24.1385 10.4348 23.1681 9.77589 21.9869 9.30744C24.0666 8.63466 26.0273 9.20286 27.83 11.0058C29.0346 12.2105 29.5971 13.5757 29.8568 14.5086C30.1814 15.675 30.816 16.7531 31.6918 17.6266L39.2014 25.1159C39.5215 25.4352 39.9406 25.5948 40.3596 25.5948C40.7802 25.5948 41.2008 25.434 41.5212 25.1126V25.1126Z" fill="black"/>
</svg>
