<svg width="44" height="44" viewBox="0 0 44 44" fill="none" xmlns="http://www.w3.org/2000/svg">
<circle cx="22" cy="22" r="22" fill="#8ABDAD" fill-opacity="0.5"/>
<path d="M14.9179 43C13.5478 43 12.1862 42.7356 10.9035 42.2142L5.62469 40.0682C2.20823 38.6793 0.000635124 35.3994 0.000635124 31.7124V7.81846C-0.0651529 3.06212 4.99241 -0.338701 9.37396 1.51366C9.37781 1.51522 9.38175 1.51686 9.38561 1.51842L14.1076 3.48034L25.1452 1.18442C25.1596 1.18139 25.174 1.1786 25.1884 1.17597C27.1796 0.817212 29.2229 1.03034 31.0971 1.79231L36.3759 3.93824C39.7924 5.32721 42 8.60708 42 12.294V36.181C42 38.4502 40.8756 40.5612 38.9924 41.8279C37.1091 43.0946 34.7294 43.3406 32.6267 42.4858C32.6228 42.4842 32.6189 42.4826 32.615 42.481L27.8935 40.5193L16.8562 42.8218C16.8416 42.8249 16.8269 42.8277 16.8121 42.8304C16.1837 42.9437 15.5499 43 14.9179 43V43ZM6.79797 4.28602C6.11335 4.28602 5.43808 4.49061 4.84008 4.89292C3.84981 5.55903 3.28192 6.62531 3.28192 7.81846V31.7124C3.28192 34.0587 4.68676 36.1459 6.86089 37.0298L12.1397 39.1757C13.4308 39.7005 14.8375 39.8493 16.2094 39.6061L27.7198 37.2049C28.043 37.1374 28.3795 37.1691 28.6846 37.296L33.8682 39.4497C34.9723 39.8965 36.172 39.7716 37.1606 39.1066C38.1509 38.4405 38.7188 37.3742 38.7188 36.181V12.2941C38.7188 9.94783 37.314 7.86069 35.1398 6.97678L29.861 4.83084C28.57 4.30594 27.1632 4.15727 25.791 4.40041L14.28 6.79481C13.9569 6.86214 13.621 6.83032 13.3162 6.70363L8.13243 4.5499C7.69628 4.37335 7.24503 4.28602 6.79797 4.28602V4.28602ZM11.4848 33.6512C12.6174 33.6512 13.5356 32.7333 13.5356 31.6011C13.4276 28.8817 9.54171 28.8825 9.43409 31.6011C9.43409 32.7333 10.3522 33.6512 11.4848 33.6512ZM11.4848 26.2709C12.6174 26.2709 13.5356 25.3531 13.5356 24.2208C13.4276 21.5015 9.54171 21.5022 9.43409 24.2208C9.43409 25.3531 10.3522 26.2709 11.4848 26.2709ZM18.7855 33.6512C19.9181 33.6512 20.8363 32.7333 20.8363 31.6011C20.7282 28.8817 16.8424 28.8825 16.7348 31.6011C16.7348 32.7333 17.6529 33.6512 18.7855 33.6512ZM26.0862 33.6512C27.2188 33.6512 28.1369 32.7333 28.1369 31.6011C28.0289 28.8817 24.1431 28.8825 24.0354 31.6011C24.0354 32.7333 24.9536 33.6512 26.0862 33.6512ZM26.0862 26.2709C27.2188 26.2709 28.1369 25.3531 28.1369 24.2208C28.0289 21.5015 24.1431 21.5022 24.0354 24.2208C24.0354 25.3531 24.9536 26.2709 26.0862 26.2709ZM26.0862 18.8907C27.2188 18.8907 28.1369 17.9728 28.1369 16.8406C28.0289 14.1212 24.1431 14.1219 24.0354 16.8406C24.0354 17.9728 24.9536 18.8907 26.0862 18.8907ZM33.3868 18.8907C34.5194 18.8907 35.4376 17.9728 35.4376 16.8406C35.3296 14.1212 31.4437 14.1219 31.3361 16.8406C31.3361 17.9728 32.2543 18.8907 33.3868 18.8907ZM13.8051 15.2005L15.9262 13.0801C17.4041 11.4801 15.2047 9.28385 13.6061 10.7607L11.4849 12.8812L9.36379 10.7607C7.7633 9.28327 5.56629 11.4819 7.04365 13.0801L9.16478 15.2005L7.04357 17.321C6.40283 17.9615 6.40283 18.9999 7.04357 19.6403C7.68422 20.2808 8.72305 20.2808 9.3637 19.6403L11.4848 17.5199L13.606 19.6403C14.2466 20.2808 15.2854 20.2808 15.9261 19.6403C16.5668 18.9998 16.5668 17.9614 15.9261 17.321L13.8051 15.2005Z" fill="black"/>
</svg>
