<svg width="559" height="366" viewBox="0 0 559 366" fill="none" xmlns="http://www.w3.org/2000/svg">
<g clip-path="url(#clip0)">
<path opacity="0.1" d="M289.117 65.8226C253.813 71.8025 218.559 69.239 184.645 65.5103C150.732 61.7815 116.902 56.9124 81.5839 58.3801C58.8643 59.3222 33.5627 63.8343 17.6991 76.9493C2.4291 89.5635 0.0498138 106.586 0.0201344 121.952C-0.019438 133.51 0.979765 145.47 9.15147 154.677C14.8301 161.064 23.5707 165.64 30.1545 171.536C53.062 192.014 46.0973 224.259 31.0647 251.674C24.0109 264.536 15.3841 277.185 10.581 290.349C5.77792 303.514 5.13982 317.621 13.7369 328.356C22.2549 339.001 38.7319 345.001 55.9112 348.11C90.8042 354.427 129.679 350.505 167.293 345.189C250.538 333.383 332.923 314.978 415.13 296.617C445.546 289.819 476.096 282.991 505.4 273.193C521.674 267.739 538.245 260.951 548.756 250.385C562.112 236.997 562.448 218.685 549.577 207.742C527.981 189.396 479.099 193.467 462.394 172.493C453.204 160.945 457.205 145.261 464.521 131.408C480.207 101.697 510.524 72.343 506.597 42.7214C503.886 22.3919 483.204 5.56807 455.484 1.18483C426.428 -3.40665 389.111 5.30032 372.382 25.7587C355.183 46.8369 320.29 60.5271 289.117 65.8226Z" fill="#FF5555"/>
<path d="M318.276 178.126H178.076V210.668H318.276V178.126Z" fill="#565661"/>
<path opacity="0.1" d="M318.276 178.126H178.076V210.668H318.276V178.126Z" fill="black"/>
<path d="M194.85 211.739L195.834 298.615L182.35 332.739L181.306 211.739H194.85Z" fill="#BCBEC9"/>
<path d="M179.555 184.374L316.055 185.197V209.433H179.555V184.374Z" fill="#565661"/>
<path d="M304.376 211.739L316.055 213.39V331.42L304.376 295.318V211.739Z" fill="#BCBEC9"/>
<path d="M386.276 179.43H320.492V319.555H386.276V179.43Z" fill="#EFEFF0"/>
<path d="M381.013 183.322H325.755V291.034H381.013V183.322Z" fill="#565661"/>
<path opacity="0.1" d="M381.013 183.322H325.755V291.034H381.013V183.322Z" fill="black"/>
<path d="M381.013 185.529H325.755V209.433H381.013V185.529Z" fill="#565661"/>
<path d="M381.013 211.739H325.755V262.513H381.013V211.739Z" fill="#565661"/>
<path d="M381.013 265.647H325.755V316.421H381.013V265.647Z" fill="#565661"/>
<path opacity="0.1" d="M381.013 265.647H325.755V316.421H381.013V265.647Z" fill="black"/>
<path d="M328.06 328.678C330.027 328.678 331.622 326.636 331.622 324.116C331.622 321.597 330.027 319.555 328.06 319.555C326.093 319.555 324.499 321.597 324.499 324.116C324.499 326.636 326.093 328.678 328.06 328.678Z" fill="#565661"/>
<path d="M377.452 328.896C379.419 328.896 381.013 326.854 381.013 324.334C381.013 321.815 379.419 319.773 377.452 319.773C375.485 319.773 373.89 321.815 373.89 324.334C373.89 326.854 375.485 328.896 377.452 328.896Z" fill="#565661"/>
<path d="M177.581 332.739H182.35L181.039 180.645H173.797L177.581 332.739Z" fill="#EFEFF0"/>
<path d="M316.055 179.43V331.42H320.492V180.645L316.055 179.43Z" fill="#EFEFF0"/>
<path d="M181.271 207.946V213.39H316.055V209.433L181.271 207.946Z" fill="#EFEFF0"/>
<path d="M190.408 169.211H361.281L386.113 177.452V182.231L172.976 180.585V175.721L190.408 169.211Z" fill="white"/>
<path d="M172.976 175.721L386.113 177.452V182.231L172.976 180.585V175.721Z" fill="#BCBEC9"/>
<path d="M192.282 232.406L191.293 232.257C191.293 232.212 191.293 232.173 191.293 232.133C191.263 231.9 191.229 231.672 191.194 231.439C191.6 231.761 191.986 232.083 192.342 232.406H192.282Z" fill="url(#paint0_linear)"/>
<path d="M170.785 308.968C171.428 308.82 172.081 308.696 172.734 308.606C177.218 307.966 181.791 308.641 185.901 310.55C185.486 313.614 185.075 316.783 185.956 319.743C186.569 321.826 187.801 323.71 188.063 325.881C188.724 325.995 189.34 326.291 189.842 326.736C190.344 327.181 190.713 327.757 190.907 328.4C191.097 328.969 191.192 329.566 191.189 330.166C191.184 330.908 191.091 331.647 190.912 332.367C190.852 332.943 190.57 333.472 190.127 333.842C189.683 334.213 189.113 334.395 188.538 334.35C184.709 334.787 180.955 333.274 177.393 331.792L170.468 328.906C169.657 328.569 168.841 328.227 168.064 327.81C166.591 327.013 165.283 325.941 164.211 324.652C163.984 324.422 163.825 324.134 163.751 323.819C163.622 322.946 164.641 322.425 165.289 321.835C165.479 321.656 165.645 321.452 165.784 321.231C166.55 320.07 166.625 318.469 167.085 317.1C168.173 313.852 171.537 311.76 172.724 308.592C172.788 308.418 172.847 308.244 172.897 308.066" fill="#A26565"/>
<path opacity="0.1" d="M191.189 330.165C191.184 330.908 191.091 331.647 190.912 332.367C190.852 332.942 190.57 333.472 190.127 333.842C189.684 334.213 189.113 334.395 188.538 334.35C184.709 334.787 180.955 333.274 177.393 331.792L170.468 328.906C169.657 328.569 168.841 328.227 168.064 327.81C166.591 327.012 165.283 325.94 164.211 324.652C163.984 324.422 163.825 324.133 163.751 323.819C163.622 322.946 164.641 322.425 165.289 321.835C165.479 321.656 165.645 321.452 165.784 321.23C167.693 321.642 170.063 322.847 171.522 323.313C172.983 323.712 174.387 324.3 175.697 325.063C177.517 326.233 178.828 328.038 180.371 329.526C181.914 331.013 183.908 332.367 186.06 332.184C187.197 332.012 188.294 331.632 189.295 331.063L191.189 330.165Z" fill="black"/>
<path d="M183.082 259.702C183.21 260.152 183.199 260.63 183.049 261.073C182.898 261.516 182.616 261.903 182.241 262.181C181.593 262.583 180.757 262.528 180.114 262.964C179.317 263.525 179.204 264.635 179.065 265.597C178.57 268.904 176.933 271.904 175.533 274.944C174.133 277.983 172.951 281.3 173.466 284.603C173.817 286.844 174.915 289.234 173.886 291.252C173.634 291.748 173.258 292.189 172.971 292.67C171.561 295.03 172.363 298.02 172.308 300.767C172.329 301.072 172.262 301.377 172.115 301.645C171.899 301.898 171.633 302.104 171.334 302.25C170.831 302.62 170.419 303.099 170.127 303.651C169.835 304.203 169.671 304.814 169.647 305.438C169.605 306.687 169.755 307.934 170.092 309.137C170.147 309.623 170.361 310.076 170.701 310.426C171.094 310.687 171.559 310.819 172.031 310.803C175.139 311.055 178.187 311.798 181.064 313.005C182.938 313.788 184.759 314.77 186.752 315.147C186.945 315.207 187.148 315.227 187.349 315.205C187.549 315.184 187.744 315.122 187.919 315.023C188.17 314.796 188.343 314.496 188.414 314.165C189.181 311.636 189.957 309.028 189.695 306.4C189.582 305.269 189.28 304.164 189.201 303.033C188.854 298.571 191.867 294.544 192.821 290.141C193.252 288.158 193.252 286.105 193.559 284.102C194.39 278.613 197.407 273.689 198.569 268.26C198.731 267.248 198.983 266.252 199.321 265.285C200.187 263.182 202.19 261.477 202.235 259.201C202.262 258.7 202.131 258.204 201.859 257.783C201.393 257.27 200.773 256.922 200.093 256.791C197.406 256.05 194.67 255.497 191.906 255.135C190.64 254.886 189.347 254.796 188.058 254.867C186.384 255.065 184.775 255.634 183.349 256.533C181.439 257.713 182.666 257.996 183.082 259.702Z" fill="#454B69"/>
<path opacity="0.05" d="M183.082 259.702C183.21 260.152 183.199 260.63 183.049 261.073C182.898 261.516 182.616 261.903 182.241 262.181C181.593 262.583 180.757 262.528 180.114 262.964C179.317 263.525 179.204 264.635 179.065 265.597C178.57 268.904 176.933 271.904 175.533 274.944C174.133 277.983 172.951 281.3 173.466 284.603C173.817 286.844 174.915 289.234 173.886 291.252C173.634 291.748 173.258 292.189 172.971 292.67C171.561 295.03 172.363 298.02 172.308 300.767C172.329 301.072 172.262 301.377 172.115 301.645C171.899 301.898 171.633 302.104 171.334 302.25C170.831 302.62 170.419 303.099 170.127 303.651C169.835 304.203 169.671 304.814 169.647 305.438C169.605 306.687 169.755 307.934 170.092 309.137C170.147 309.623 170.361 310.076 170.701 310.426C171.094 310.687 171.559 310.819 172.031 310.803C175.139 311.055 178.187 311.798 181.064 313.005C182.938 313.788 184.759 314.77 186.752 315.147C186.945 315.207 187.148 315.227 187.349 315.205C187.549 315.184 187.744 315.122 187.919 315.023C188.17 314.796 188.343 314.496 188.414 314.165C189.181 311.636 189.957 309.028 189.695 306.4C189.582 305.269 189.28 304.164 189.201 303.033C188.854 298.571 191.867 294.544 192.821 290.141C193.252 288.158 193.252 286.105 193.559 284.102C194.39 278.613 197.407 273.689 198.569 268.26C198.731 267.248 198.983 266.252 199.321 265.285C200.187 263.182 202.19 261.477 202.235 259.201C202.262 258.7 202.131 258.204 201.859 257.783C201.393 257.27 200.773 256.922 200.093 256.791C197.406 256.05 194.67 255.497 191.906 255.135C190.64 254.886 189.347 254.796 188.058 254.867C186.384 255.065 184.775 255.634 183.349 256.533C181.439 257.713 182.666 257.996 183.082 259.702Z" fill="black"/>
<path d="M173.401 334.43H169.182L166.422 277.587L166.229 274.354L169.815 273.089L170.058 276.526L173.401 334.43Z" fill="#565661"/>
<path opacity="0.1" d="M170.058 276.526L166.422 277.587L166.229 274.354L169.815 273.089L170.058 276.526Z" fill="black"/>
<path d="M226.344 346.454L219.384 347.297L187.321 274.354L178.674 273.719L163.488 278.162L160.535 365.008H153.576L156.316 274.988L139.651 275.415L109.912 349.622H103.586L134.863 262.895L136.07 259.553L182.681 257.951L194.301 264.482L194.449 264.858L226.344 346.454Z" fill="#565661"/>
<path opacity="0.1" d="M194.449 264.858C184.432 267.883 174.035 271.185 174.035 271.185C174.035 271.185 164.552 274.502 160.535 271.185C160.029 270.789 159.463 270.476 158.859 270.258C159.38 270.631 159.942 270.942 160.535 271.185L134.863 262.89L136.065 259.553L182.681 257.951L194.301 264.482L194.449 264.858Z" fill="black"/>
<path d="M147.036 250.464L166.016 246.235C166.016 246.235 211.366 254.694 214.74 258.075C214.74 258.075 178.462 265.473 174.455 267.992C170.448 270.511 146.611 273.297 147.036 250.464Z" fill="white"/>
<path d="M138.874 202.918C137.39 207.633 133.339 211.883 128.407 212.086C128.049 212.128 127.685 212.063 127.364 211.898C126.745 211.511 126.731 210.603 126.983 209.914C127.235 209.225 127.675 208.605 127.745 207.881C127.759 207.734 127.749 207.584 127.715 207.44C127.586 206.85 127.107 206.324 126.543 206.448C126.927 206.14 127.182 205.7 127.26 205.213C127.338 204.727 127.232 204.228 126.963 203.815C126.739 203.562 126.537 203.29 126.36 203.002C125.949 202.159 126.587 201.212 126.854 200.31C127.403 198.326 126.008 196.343 125.895 194.275C125.796 192.426 126.731 190.686 126.963 188.851C127.334 185.876 125.86 183.025 125.687 180.055C125.568 177.982 126.078 175.929 126.647 173.931C127.141 172.146 127.7 170.341 127.735 168.477C127.735 167.123 127.502 165.784 127.438 164.436C127.335 163.203 127.559 161.965 128.086 160.846C128.428 160.188 129.012 159.689 129.713 159.453C131.336 158.907 132.399 159.755 132.637 161.297C133.033 163.92 132.805 166.598 133.324 169.231C133.805 171.693 134.532 174.1 135.496 176.415C136.371 178.508 137.435 180.531 138.108 182.698C138.614 184.484 138.976 186.308 139.191 188.152C139.854 193.105 140.373 198.202 138.874 202.918Z" fill="#FF5555"/>
<path d="M251.537 322.931C250.911 323.815 250.106 324.557 249.174 325.107C248.243 325.658 247.205 326.004 246.13 326.124C243.984 326.392 241.753 325.852 239.67 326.442C239.348 326.495 239.044 326.627 238.785 326.827C238.526 327.027 238.32 327.288 238.186 327.587C238.135 327.99 238.103 328.396 238.092 328.802C237.85 330.126 236.114 330.423 234.763 330.413L229.193 330.379C228.036 330.379 226.755 330.314 225.924 329.511C225.529 329.072 225.306 328.505 225.297 327.914C225.288 327.323 225.493 326.749 225.874 326.298C226.047 326.093 226.259 325.924 226.498 325.802C226.15 325.687 225.841 325.477 225.605 325.196C225.369 324.915 225.216 324.574 225.162 324.21C225.061 323.481 225.096 322.74 225.266 322.024C225.266 319.951 225.761 316.48 227.215 314.859C229.001 312.841 232.097 310.233 234.793 309.692C235.703 309.517 236.642 309.558 237.534 309.812C238.425 310.066 239.245 310.526 239.928 311.155C241.204 312.345 242.134 314.209 243.885 314.418C244.839 314.537 245.759 314.085 246.704 313.922C247.778 313.783 248.868 313.981 249.826 314.488C250.783 314.995 251.56 315.786 252.052 316.753C252.291 317.243 252.458 317.766 252.546 318.305C252.808 319.92 252.447 321.573 251.537 322.931Z" fill="#A26565"/>
<path opacity="0.1" d="M251.537 322.931C250.911 323.815 250.106 324.557 249.174 325.107C248.243 325.658 247.205 326.004 246.131 326.125C243.984 326.392 241.753 325.852 239.67 326.442C239.348 326.495 239.044 326.628 238.785 326.827C238.526 327.027 238.32 327.288 238.186 327.587C238.135 327.99 238.103 328.396 238.092 328.802C237.85 330.126 236.114 330.423 234.763 330.414L229.194 330.379C228.036 330.379 226.755 330.314 225.924 329.511C225.529 329.072 225.306 328.505 225.297 327.914C225.288 327.323 225.493 326.749 225.874 326.298C229.09 326.164 232.25 326.298 235.456 325.634C236.757 325.371 238.038 325.024 239.354 324.84C242.203 324.434 245.235 324.781 247.852 323.571C250.033 322.579 251.596 320.561 252.521 318.31C252.789 319.92 252.437 321.571 251.537 322.931Z" fill="black"/>
<path d="M236.841 315.092C234.862 316.629 232.542 317.829 230.049 317.958C227.556 318.087 224.91 316.966 223.688 314.795C221.902 311.606 223.485 307.173 221.299 304.248C220.616 303.331 219.632 302.681 218.91 301.794C218.188 300.906 217.772 299.572 218.415 298.63C217.638 298.928 216.817 298.174 216.59 297.371C216.362 296.567 216.506 295.705 216.367 294.891C216.006 292.735 213.894 291.351 212.88 289.437C211.866 287.523 212.004 285.039 211.891 282.773C211.638 277.252 209.588 271.966 206.054 267.724C205.381 266.921 204.52 266.103 203.472 266.143C203.655 264.328 202.448 262.592 200.884 261.68C199.321 260.768 197.461 260.46 195.651 260.282C177.383 258.477 158.349 265.285 140.908 259.558C136.055 257.966 131.376 255.303 128.408 251.129C127.252 249.54 126.424 247.735 125.975 245.82C125.526 243.906 125.463 241.921 125.791 239.982V239.913C126.478 236.392 128.333 235.524 131.405 233.918C134.951 232.039 138.658 230.48 142.481 229.262C149.9 226.936 157.889 226.098 165.546 227.804C169.123 228.607 172.57 229.936 176.152 230.715C177.562 231.022 178.981 231.24 180.411 231.424C182.632 231.701 184.863 231.885 187.098 232.143C194.248 232.968 201.288 234.555 208.102 236.878C210.639 237.741 213.177 238.727 215.358 240.289C217.084 241.546 218.543 243.133 219.65 244.96C220.757 246.787 221.491 248.816 221.808 250.93C222.016 252.388 222.021 253.905 222.338 255.318C222.638 256.506 223.035 257.667 223.525 258.789C227.751 269.265 231.205 280.037 233.858 291.019C234.009 291.835 234.287 292.621 234.684 293.349C235.317 294.376 236.406 295.065 237.044 296.091C238.528 298.511 237.098 301.888 238.414 304.407C238.869 305.279 239.626 305.969 240.081 306.841C241.565 309.702 239.374 313.124 236.841 315.092Z" fill="#454B69"/>
<path opacity="0.1" d="M211.564 258.12C212.267 257.562 212.874 256.892 213.36 256.136C213.847 255.377 214.041 254.465 213.904 253.573C214.097 254.702 214.023 255.86 213.689 256.956C213.355 258.051 212.769 259.052 211.98 259.88C210.738 261.154 208.408 262.404 206.593 261.968C206.85 260.51 210.412 259.102 211.564 258.12Z" fill="black"/>
<path opacity="0.1" d="M180.658 233.407C180.509 233.939 180.23 234.424 179.846 234.821C179.463 235.217 178.987 235.512 178.462 235.678C177.407 236.001 176.303 236.131 175.202 236.06H174.213C161.233 235.772 148.115 232.886 135.437 235.638C133.909 235.954 132.41 236.397 130.955 236.962C129.102 237.694 127.367 238.697 125.806 239.937V239.868C126.493 236.347 128.348 235.48 131.42 233.873C134.963 232.01 138.664 230.467 142.48 229.262C149.9 226.936 157.889 226.098 165.546 227.804C169.123 228.607 172.57 229.936 176.152 230.715C177.561 231.022 178.981 231.24 180.411 231.424C180.688 232.046 180.774 232.736 180.658 233.407Z" fill="black"/>
<path d="M180.658 232.698C180.51 233.231 180.231 233.718 179.848 234.115C179.464 234.513 178.988 234.808 178.462 234.974C177.407 235.298 176.302 235.426 175.202 235.351H174.213C161.233 235.063 148.115 232.177 135.437 234.929C133.909 235.246 132.41 235.687 130.955 236.248C129.014 237.024 127.204 238.094 125.588 239.422C125.209 238.377 124.831 237.331 124.455 236.283C124 235.033 125.444 234.756 125.722 233.635C125.905 232.877 125.593 232.014 125.435 231.206C125.394 231.008 125.368 230.807 125.355 230.606C125.266 228.816 125.905 227.784 127.369 226.817C131.712 223.942 137.01 221.968 141.966 220.485C144.601 219.65 147.323 219.121 150.078 218.909C153.976 218.681 157.869 219.405 161.663 220.322C166.328 221.477 170.943 223.004 175.078 225.449C177.106 226.634 179.085 228.121 180.178 230.234C180.614 230.976 180.784 231.846 180.658 232.698Z" fill="#A26565"/>
<path opacity="0.1" d="M138.875 202.918C137.391 207.633 133.339 211.883 128.408 212.086C128.049 212.128 127.686 212.063 127.364 211.898C126.746 211.511 126.731 210.603 126.983 209.914C127.235 209.225 127.676 208.605 127.745 207.881C127.76 207.734 127.75 207.584 127.715 207.44C130.332 203.741 132.869 200.002 133.874 195.624C134.077 194.87 134.139 194.085 134.057 193.309C133.923 192.416 133.473 191.608 133.226 190.745C132.79 189.218 132.993 187.601 133.117 186.02C133.632 179.055 132.471 172.068 129.733 165.646C129.066 164.099 128.304 162.532 128.071 160.881C128.414 160.223 128.997 159.723 129.699 159.487C131.321 158.942 132.385 159.79 132.622 161.332C133.018 163.955 132.79 166.632 133.31 169.265C133.79 171.727 134.517 174.135 135.481 176.45C136.357 178.542 137.42 180.565 138.093 182.732C138.599 184.518 138.962 186.342 139.176 188.186C139.854 193.105 140.373 198.202 138.875 202.918Z" fill="black"/>
<path opacity="0.1" d="M180.658 232.698C180.51 233.231 180.231 233.718 179.848 234.115C179.464 234.513 178.988 234.808 178.462 234.974C177.407 235.298 176.302 235.426 175.202 235.351H174.213C169.987 232.538 164.908 231.309 159.868 231.88C158.255 232.073 156.643 232.45 155.03 232.301C151.77 232.004 149.129 229.654 146.225 228.151C142.921 226.516 139.205 225.907 135.553 226.404C131.902 226.9 128.482 228.479 125.732 230.938L125.45 231.186C125.409 230.988 125.383 230.787 125.37 230.586C125.281 228.796 125.92 227.765 127.384 226.798C131.727 223.922 137.025 221.948 141.981 220.466C144.616 219.631 147.338 219.102 150.093 218.889C153.991 218.661 157.884 219.385 161.678 220.302C166.343 221.457 170.958 222.985 175.093 225.429C177.106 226.634 179.085 228.122 180.178 230.234C180.615 230.976 180.784 231.846 180.658 232.698Z" fill="black"/>
<path d="M191.753 178.384L191.684 178.562C190.576 181.443 188.538 183.878 187.232 186.684C185.585 190.239 185.179 194.226 184.813 198.133C184.496 201.48 184.185 204.847 184.437 208.204C185.07 216.474 189.102 224.318 190.18 232.43C190.446 234.304 190.514 236.2 190.383 238.088C190.294 239.283 190.076 240.567 189.285 241.45C188.493 242.332 186.955 242.679 186.104 241.832C186.485 241.103 186.871 240.379 187.257 239.65C184.996 237.89 181.593 239.154 178.951 238.053C177.789 237.557 176.859 236.665 175.885 235.867C173.661 234.054 171.097 232.705 168.346 231.9C165.595 231.094 162.71 230.848 159.863 231.176C158.25 231.374 156.637 231.751 155.025 231.602C151.765 231.3 149.124 228.955 146.22 227.452C142.916 225.817 139.2 225.209 135.549 225.704C131.898 226.2 128.478 227.777 125.726 230.234C125.034 230.878 124.104 231.632 123.253 231.226C122.924 231.024 122.659 230.733 122.486 230.388C119.247 224.839 121.631 217.684 125.093 212.279C128.556 206.875 133.141 201.892 134.566 195.629C134.772 194.876 134.834 194.09 134.749 193.314C134.615 192.421 134.165 191.613 133.918 190.75C133.483 189.223 133.685 187.606 133.809 186.025C134.328 179.059 133.171 172.07 130.436 165.646C129.644 163.796 128.704 161.922 128.704 159.914C128.704 156.75 130.965 154.127 132.835 151.584C134.986 148.658 136.792 145.42 139.517 143.015C142.1 140.73 145.839 139.331 149.035 140.492C154.464 139.17 160.053 138.624 165.635 138.87C167.564 138.959 169.558 139.163 171.25 140.1C173.06 141.092 174.361 142.857 176.142 143.913C177.443 144.691 178.941 145.058 180.356 145.604C184.263 147.133 187.487 150.024 189.438 153.745C191.417 157.588 191.911 162.006 192.347 166.31C192.762 170.361 193.158 174.571 191.753 178.384Z" fill="#FF5555"/>
<path opacity="0.1" d="M184.437 208.204C185.07 216.474 189.102 224.318 190.18 232.43C188.023 230.601 185.021 228.761 184.62 226.634C184.175 224.333 182.75 221.319 182.513 218.993C182.276 216.668 183.903 213.826 182.196 212.23C181.365 211.451 183.577 211.669 182.765 210.871C180.94 209.091 180.49 206.349 180.376 203.805C180.183 199.303 180.752 194.751 179.926 190.324C179.431 187.591 178.397 184.988 177.571 182.336C176.612 179.246 175.919 176.083 175.227 172.915C174.545 170.098 174.049 167.239 173.743 164.356C173.53 161.877 173.629 159.249 174.732 156.988C175.835 154.727 178.066 152.893 180.569 152.927C188.939 153.036 187.494 164.411 189.334 169.667C190.071 171.759 191.066 173.782 191.466 175.964C191.612 176.819 191.692 177.685 191.704 178.552C190.596 181.433 188.558 183.868 187.252 186.674C185.605 190.229 185.199 194.216 184.833 198.123C184.497 201.48 184.185 204.847 184.437 208.204Z" fill="black"/>
<path d="M189.878 169.538C190.615 171.63 191.61 173.653 192.01 175.835C192.678 179.489 191.644 183.372 192.767 186.912C193.059 187.668 193.304 188.441 193.499 189.228C193.692 190.353 193.47 191.504 193.47 192.649C193.47 194.494 194.048 196.279 194.563 198.049C196.302 204.064 197.454 210.235 198.001 216.474C198.082 218.151 198.346 219.813 198.787 221.433C198.995 221.981 199.173 222.541 199.321 223.109C199.454 223.866 199.486 224.638 199.415 225.404C199.282 227.834 199.01 230.273 199.282 232.693C199.554 235.113 200.434 237.567 202.25 239.189C200.627 239.541 198.911 239.893 197.328 239.372C195.102 238.643 193.766 236.397 192.634 234.354C191.199 231.746 185.748 229.396 185.184 226.465C184.744 224.17 183.319 221.155 183.082 218.824C182.844 216.494 184.467 213.663 182.76 212.066C181.934 211.288 184.145 211.501 183.329 210.708C181.509 208.927 181.059 206.185 180.945 203.637C180.752 199.14 181.316 194.588 180.495 190.16C180 187.428 178.966 184.825 178.14 182.167C177.181 179.083 176.488 175.919 175.796 172.746C175.112 169.929 174.616 167.07 174.312 164.188C174.099 161.709 174.193 159.076 175.301 156.815C176.409 154.554 178.64 152.724 181.138 152.754C189.473 152.902 188.038 164.282 189.878 169.538Z" fill="#FF5555"/>
<path opacity="0.1" d="M166.026 171.477C166.808 172.394 167.812 173.401 168.994 173.222C168.904 173.365 168.762 173.466 168.599 173.505C168.435 173.544 168.263 173.517 168.119 173.43C167.835 173.242 167.607 172.98 167.461 172.672L165.769 169.811C165.546 169.439 164.013 167.272 163.637 168.521C163.489 169.052 165.645 171.03 166.026 171.477Z" fill="black"/>
<path opacity="0.1" d="M165.116 178.612C165.067 177.677 164.674 176.793 164.013 176.133C163.418 175.592 162.724 175.173 161.97 174.898C160.115 174.134 157.919 173.52 155.906 173.619C156.638 174.69 158.987 175.329 160.164 175.934C161.833 176.797 163.484 177.69 165.116 178.612Z" fill="black"/>
<path opacity="0.1" d="M170.384 198.921C170.043 201.46 167.97 203.384 165.873 204.872C163.775 206.359 161.421 207.638 160.051 209.79C159.101 211.278 158.676 213.003 157.869 214.555C156.979 216.266 155.648 217.704 154.585 219.31C153.521 220.917 152.69 222.836 153.017 224.74C153.021 224.827 153.044 224.913 153.083 224.992C153.122 225.07 153.177 225.14 153.244 225.196C153.346 225.239 153.457 225.255 153.567 225.243C153.677 225.231 153.782 225.191 153.872 225.127C156.029 223.996 156.88 221.413 157.785 219.177C158.736 216.919 159.805 214.715 160.991 212.572C161.525 211.58 162.113 210.499 163.108 209.949C163.788 209.665 164.486 209.421 165.195 209.22C166.202 208.757 167.085 208.062 167.772 207.192C170.473 203.963 171.883 199.845 171.73 195.634C171.7 194.746 171.65 190.472 170.32 191.791C168.989 193.11 170.612 197.196 170.384 198.921Z" fill="black"/>
<path d="M173.644 101.553C177.898 103.413 181.558 107.503 181.425 112.139C181.311 117.009 177.245 121.595 178.645 126.261C179.456 128.968 181.9 130.783 183.834 132.841C191.199 140.655 191.184 154.296 183.794 162.095C180.965 165.07 177.329 167.188 174.336 170.029C163.785 179.995 163.335 197.236 168.984 210.618C164.656 211.557 160.244 212.055 155.816 212.106C153.744 212.106 151.206 211.754 150.454 209.815C149.762 208.025 150.949 205.605 149.584 204.282C148.941 203.662 147.976 203.577 147.11 203.434C141.541 202.531 136.97 198.074 134.883 192.823C132.795 187.572 132.904 181.661 134.101 176.138C134.952 172.146 136.282 167.753 134.309 164.183C131.836 159.691 124.722 157.796 124.831 152.66C124.92 148.45 129.872 146.402 132.681 143.273C137.865 137.512 135.397 128.572 135.387 120.807C135.387 113.974 137.771 106.923 142.847 102.371C150.395 95.5436 164.933 97.76 173.644 101.553Z" fill="#A26565"/>
<g opacity="0.1">
<path opacity="0.1" d="M135.12 159.091C132.948 155.163 127.245 153.22 125.919 149.357C125.256 150.259 124.883 151.342 124.851 152.461C124.742 157.598 131.845 159.492 134.329 163.989C135.144 165.582 135.487 167.375 135.318 169.156C136.099 165.705 136.787 162.105 135.12 159.091Z" fill="black"/>
<path opacity="0.1" d="M179.214 119.904C180.104 117.301 181.395 114.673 181.459 111.971C181.468 111.678 181.46 111.385 181.435 111.093C180.44 114.078 178.917 116.974 179.214 119.904Z" fill="black"/>
<path opacity="0.1" d="M135.971 133.773C137.672 128.383 136.203 121.699 136.198 115.719C136.198 114.995 136.228 114.267 136.282 113.543C135.696 115.854 135.401 118.229 135.402 120.613C135.412 124.882 136.159 129.514 135.971 133.773Z" fill="black"/>
<path opacity="0.1" d="M184.62 157.023C181.791 159.998 178.155 162.115 175.162 164.956C169.82 169.999 167.075 176.906 166.387 184.23C167.663 178.775 170.241 173.753 174.371 169.85C177.339 167.024 180.999 164.917 183.829 161.917C187.194 158.24 189.149 153.485 189.344 148.499C188.49 151.686 186.868 154.613 184.62 157.023Z" fill="black"/>
<path opacity="0.1" d="M156.643 207.018C154.57 207.018 152.032 206.661 151.28 204.723C150.588 202.938 151.775 200.518 150.41 199.189C149.767 198.569 148.797 198.485 147.937 198.341C142.372 197.444 137.801 192.981 135.714 187.735C134.175 183.858 133.844 179.628 134.23 175.453C134.19 175.617 134.155 175.781 134.121 175.949C132.944 181.473 132.82 187.388 134.902 192.639C136.985 197.89 141.56 202.348 147.125 203.245C148.006 203.389 148.975 203.478 149.599 204.093C150.979 205.422 149.777 207.842 150.469 209.627C151.221 211.565 153.759 211.947 155.831 211.922C160.259 211.871 164.671 211.373 168.999 210.435C168.389 208.988 167.855 207.51 167.401 206.007C163.849 206.64 160.25 206.978 156.643 207.018Z" fill="black"/>
</g>
<path opacity="0.1" d="M172.843 185.395C174.064 186.317 175.39 182.802 174.633 181.924C174.43 182.152 172.655 185.266 172.843 185.395Z" fill="black"/>
<path opacity="0.1" d="M178.051 249.031C179.491 248.535 181.019 248.039 181.959 246.849C182.736 245.892 183.374 242.094 181.731 243.914C180.336 245.476 179.679 247.534 178.051 249.031Z" fill="black"/>
<path opacity="0.1" d="M192.708 245.05C192.535 246.22 192.213 247.435 191.387 248.277C191.234 248.436 190.892 248.535 190.848 248.322C191.771 247.83 192.628 247.223 193.4 246.517C195.072 244.856 195.3 240.765 192.752 239.68C192.728 241.475 192.98 243.225 192.708 245.05Z" fill="black"/>
<path d="M210.303 237.676C210.303 237.676 196.264 232.148 191.189 232.718C186.114 233.288 196.937 241.306 196.937 241.306L203.407 245.679C203.407 245.679 207.364 244.192 207.627 244.078C207.889 243.964 210.303 237.676 210.303 237.676Z" fill="#454B69"/>
<path d="M113.711 178.364C113.711 178.364 124.257 172.235 138.177 179.851C152.097 187.468 154.416 232.287 154.416 232.287C154.416 232.287 148.723 277.949 170.676 267.789C170.676 267.789 210.743 255.318 214.755 258.065C214.755 258.065 218.553 258.065 210.961 259.756C203.368 261.447 174.035 270.764 174.035 270.764C174.035 270.764 164.552 274.086 160.535 270.764C156.519 267.442 145.137 271.19 143.658 248.352C142.679 233.96 140.919 219.632 138.385 205.432L134.472 193.804L113.711 178.364Z" fill="#565661"/>
<path d="M112.445 248.982C112.445 248.982 117.085 202.68 109.477 185.975C102.859 171.417 128.452 178.225 135.13 180.209C136.163 180.518 137.065 181.164 137.692 182.043C141.649 187.621 155.846 209.979 151.661 239.893C151.661 239.893 149.975 266.534 160.521 270.759L128.027 260.267C125.39 259.414 122.714 258.705 120.013 258.09C116.57 257.307 110.961 255.08 112.445 248.982Z" fill="white"/>
<path d="M343.553 335.422H347.772L350.537 278.578L350.725 275.345L347.139 274.081L346.902 277.517L343.553 335.422Z" fill="#565661"/>
<path opacity="0.1" d="M346.902 277.517L350.537 278.578L350.725 275.345L347.139 274.081L346.902 277.517Z" fill="black"/>
<path d="M308.324 313.471C308.22 314.249 308.02 315.012 307.73 315.742C307.43 316.694 306.786 317.501 305.924 318.003C305.346 318.242 304.725 318.365 304.099 318.364C301.769 318.503 299.306 318.469 297.303 317.279C296.449 316.727 295.667 316.073 294.973 315.33C290.471 310.846 286.379 305.968 282.745 300.752C282.137 299.875 281.508 298.838 281.78 297.777C286.487 296.468 290.957 294.418 295.022 291.703C295.583 291.272 296.212 290.937 296.882 290.711C298.03 290.466 299.212 290.422 300.374 290.583C301.497 290.766 301.547 290.801 301.977 292.07C302.689 294.217 302.571 296.533 303.372 298.68C303.881 299.866 304.5 301.002 305.222 302.071C307.29 305.537 308.878 309.628 308.324 313.471Z" fill="#A26565"/>
<path opacity="0.1" d="M308.324 313.471C308.22 314.249 308.02 315.012 307.73 315.742C307.43 316.694 306.786 317.501 305.924 318.003C305.346 318.242 304.725 318.365 304.099 318.365C301.769 318.503 299.306 318.469 297.303 317.279C296.449 316.728 295.667 316.073 294.973 315.33C290.471 310.846 286.379 305.968 282.745 300.752C282.137 299.875 281.508 298.838 281.78 297.777C283.316 297.351 284.828 296.844 286.311 296.26L286.386 296.315C287.904 297.4 289.007 298.957 290.081 300.485L293.543 305.369C294.16 306.328 294.889 307.21 295.715 307.997C296.738 308.82 297.868 309.5 299.074 310.02C300.701 310.808 302.328 311.596 304.02 312.231C305.113 312.672 306.963 312.846 308.324 313.471Z" fill="black"/>
<path d="M311.519 260.52C311.178 261.344 310.764 262.135 310.282 262.885C305.685 270.624 302.138 278.943 299.736 287.622C299.054 287.469 298.668 288.401 298.673 289.11C298.678 289.819 298.673 290.711 298.02 290.969C297.827 291.044 297.609 291.044 297.421 291.128C297.006 291.316 296.887 291.847 296.828 292.303L296.244 296.597C296.041 298.085 295.863 299.696 296.59 301.01C297.092 301.791 297.742 302.465 298.505 302.993L308.16 310.629C308.556 310.942 309.046 311.274 309.521 311.1C310.604 310.704 309.644 308.76 310.51 307.972C311.084 307.431 311.994 307.838 312.79 307.773C313.829 307.694 314.615 306.737 314.878 305.731C315.062 304.705 315.08 303.657 314.932 302.627C314.867 302.156 314.921 301.677 315.09 301.233C315.385 300.763 315.791 300.373 316.273 300.098C317.948 298.871 319.298 297.252 320.204 295.381C321.11 293.511 321.546 291.446 321.471 289.368C321.393 288.735 321.416 288.094 321.541 287.469C321.742 286.896 322.045 286.365 322.436 285.902C325.943 281.147 328.866 275.985 331.77 270.833C333.442 267.858 335.144 264.838 335.727 261.487C335.778 261.362 335.799 261.227 335.789 261.093C335.778 260.959 335.737 260.829 335.668 260.713C335.599 260.598 335.504 260.5 335.39 260.428C335.277 260.355 335.149 260.311 335.015 260.297C333.567 259.843 332.089 259.489 330.593 259.236C326.047 258.313 321.659 256.89 317.237 255.522C312.815 254.153 312.85 256.94 311.519 260.52Z" fill="#454B69"/>
<path d="M290.61 347.446L297.575 348.289L329.633 275.345L338.28 274.711L353.471 279.153L356.419 366H363.379L360.638 275.98L377.303 276.407L407.042 350.614H413.369L382.091 263.887L380.889 260.545L334.273 258.943L322.654 265.473L322.505 265.85L290.61 347.446Z" fill="#565661"/>
<path opacity="0.1" d="M322.505 265.85C332.522 268.875 342.92 272.177 342.92 272.177C342.92 272.177 352.402 275.494 356.419 272.177C356.925 271.781 357.491 271.468 358.096 271.25C357.575 271.623 357.012 271.934 356.419 272.177L382.092 263.882L380.904 260.545L334.288 258.943L322.669 265.473L322.505 265.85Z" fill="black"/>
<path d="M369.918 251.456L350.938 247.226C350.938 247.226 305.588 255.685 302.214 259.067C302.214 259.067 338.492 266.465 342.499 268.984C346.506 271.503 370.343 274.289 369.918 251.456Z" fill="white"/>
<path d="M299.489 319.426C298.347 321.607 295.532 322.222 293.059 322.257C289.625 322.299 286.214 321.689 283.007 320.457C281.177 319.753 279.421 318.845 277.531 318.33C274.717 317.556 271.596 317.621 269.122 316.069C267.811 315.192 266.727 314.014 265.961 312.633C265.818 312.39 265.679 312.137 265.551 311.879C264.369 309.573 263.82 306.891 264.477 304.402C265.135 301.912 267.525 299.17 270.295 299.21C273.584 299.26 277.507 300.822 280.682 301.63C284.64 302.622 288.597 303.767 292.094 305.864C295.022 307.63 297.61 310.163 298.99 313.257C299.255 313.854 299.473 314.471 299.643 315.102C300.073 316.53 300.172 318.122 299.489 319.426Z" fill="#A26565"/>
<path opacity="0.1" d="M299.489 319.426C298.346 321.607 295.532 322.222 293.059 322.257C289.625 322.299 286.214 321.689 283.007 320.457C281.177 319.753 279.421 318.845 277.531 318.33C274.717 317.556 271.595 317.621 269.122 316.069C267.811 315.192 266.727 314.014 265.961 312.633C265.818 312.39 265.679 312.137 265.551 311.879C266.045 311.919 266.501 311.968 266.748 311.993C269.785 312.286 272.684 313.396 275.582 314.234C279.607 315.399 283.762 316.049 287.949 316.168C290.917 316.252 294.013 316.034 296.605 314.581C297.379 314.092 298.182 313.65 299.009 313.257C299.275 313.854 299.493 314.471 299.662 315.102C300.073 316.53 300.172 318.122 299.489 319.426Z" fill="black"/>
<path d="M320.744 225.147C314.314 224.09 307.765 223.833 301.245 223.575L293.271 223.257C292.704 223.191 292.129 223.261 291.594 223.461C291.133 223.758 290.695 224.089 290.283 224.452C289.482 224.998 288.458 225.057 287.494 225.112C280.651 225.49 273.846 226.375 267.134 227.76C263.671 228.469 260.075 229.396 257.473 231.791C254.723 234.325 253.516 238.187 253.422 241.926C253.328 245.664 254.307 249.339 255.341 252.929C256.657 257.25 257.384 261.73 257.503 266.247C257.456 267.5 257.504 268.755 257.646 270C257.876 271.19 258.226 272.352 258.69 273.471L262.331 283.214C262.652 284.067 262.969 284.915 263.32 285.748C263.671 286.581 264.007 287.236 264.309 288.019C264.754 289.09 265.106 290.201 265.457 291.307L267.881 298.938L268.197 299.929C269.073 302.676 269.968 305.473 271.62 307.833C273.272 310.193 275.83 312.097 278.704 312.241C279.631 312.206 280.559 312.231 281.484 312.315C282.271 312.508 283.036 312.786 283.764 313.143C285.922 314.042 288.239 314.496 290.575 314.477C292.727 314.477 295.116 313.877 296.284 312.062C296.927 311.071 297.095 309.851 297.273 308.681C297.585 306.331 297.886 303.876 297.09 301.645C296.595 300.311 295.764 299.166 295.19 297.852C294.389 296.062 294.127 294.083 293.608 292.194C292.484 288.128 290.196 284.481 287.029 281.702C285.904 277.237 285.077 272.702 284.555 268.126C284.483 267.113 284.282 266.113 283.957 265.151C283.378 263.663 282.206 262.459 281.716 260.941C281.256 259.533 281.395 257.907 280.559 256.692C287.518 258.611 294.409 258.179 301.636 258.065C303.95 258.073 306.263 257.94 308.561 257.669C309.632 257.472 310.717 257.356 311.806 257.322C314.042 257.322 316.139 258.313 318.192 259.186C323.994 261.665 330.108 263.614 336.41 263.882C342.915 264.154 349.345 262.622 355.702 261.105C358.496 260.436 361.4 259.712 363.616 257.872C365.832 256.032 367.079 252.715 365.713 250.191C364.675 248.292 362.523 247.36 360.515 246.567C354.955 244.365 349.365 242.218 344.008 239.556C335.826 235.559 329.708 226.634 320.744 225.147Z" fill="#454B69"/>
<path d="M309.278 202.715C308.502 204.4 307.196 205.779 306.231 207.366C304.618 209.977 304.085 213.118 304.747 216.117C305.095 217.6 305.777 218.983 306.742 220.16C307.707 221.337 308.928 222.276 310.312 222.905C311.547 223.398 312.847 223.712 314.17 223.837C315.912 224.051 317.767 224.095 319.305 223.252C320.456 222.56 321.401 221.57 322.04 220.386C323.371 218.155 324.128 215.641 324.82 213.137C326.102 208.516 327.195 203.776 327.036 198.981C326.982 197.33 326.656 195.47 325.29 194.518C324.586 194.11 323.804 193.854 322.995 193.765L316.471 192.594C315.209 192.366 313.008 191.439 311.915 192.351C310.822 193.264 310.737 195.961 310.55 197.226C310.253 199.095 310.07 200.994 309.278 202.715Z" fill="#A1616A"/>
<path d="M388.586 183.535L386.88 197.875C386.526 200.433 386.323 203.009 386.271 205.591C386.271 207.028 386.316 208.625 385.366 209.701C384.902 210.191 384.314 210.545 383.664 210.727C381.592 211.372 379.331 210.797 377.353 209.909C376.195 209.413 375.013 208.694 374.489 207.539C374.184 206.738 374.057 205.88 374.118 205.025C374.118 196.472 374.924 187.552 379.381 180.263C379.761 179.548 380.297 178.927 380.949 178.448C382.185 177.655 383.803 177.878 385.203 178.309C386.064 178.572 388.388 178.865 388.937 179.633C389.487 180.402 388.705 182.549 388.586 183.535Z" fill="#A1616A"/>
<path d="M343.311 131.68C353.145 131.68 361.118 123.689 361.118 113.83C361.118 103.972 353.145 95.9799 343.311 95.9799C333.476 95.9799 325.503 103.972 325.503 113.83C325.503 123.689 333.476 131.68 343.311 131.68Z" fill="#A1616A"/>
<path d="M338.547 140.432C338.483 141.821 338.106 143.177 337.444 144.399C346.536 143.01 355.604 141.463 364.65 139.758C361.649 138.211 359.38 135.538 358.338 132.32C357.846 130.595 357.577 128.814 357.537 127.02C357.393 124.175 357.448 121.323 357.7 118.486C354.534 118.818 351.537 120.008 348.519 121.03C345.486 122.058 342.399 122.923 339.274 123.623C337.766 123.96 336.247 124.248 334.723 124.516C332.943 124.833 332.087 124.828 333.323 126.395C336.643 130.58 339.012 134.834 338.547 140.432Z" fill="#A1616A"/>
<path d="M344.018 138.047C341.668 138.399 339.205 138.796 337.33 140.254C336.617 140.868 335.938 141.522 335.297 142.212C331.572 145.837 326.314 147.295 321.793 149.853C321.056 150.218 320.402 150.733 319.874 151.365C319.379 152.055 319.127 152.932 318.607 153.617C318.004 154.41 317.049 154.906 316.579 155.783C316.109 156.661 316.213 157.593 316.164 158.525C316.05 160.573 315.278 162.517 314.68 164.475C311.935 173.852 313.438 184.309 309.283 193.165C309.474 193.675 309.767 194.141 310.142 194.535C310.518 194.928 310.97 195.242 311.47 195.456C312.515 195.833 313.607 196.068 314.715 196.155L323.92 197.3C325.236 197.464 326.631 197.617 327.833 197.067C326.733 200.106 325.956 203.252 325.513 206.453C325.289 208.41 324.942 210.351 324.474 212.265C323.208 216.628 320.022 220.262 316.248 222.747C315.773 222.996 315.372 223.367 315.085 223.823C314.591 224.814 315.323 225.925 315.842 226.897C317.351 229.713 317.143 233.095 317.123 236.288C317.104 239.481 317.425 242.987 319.651 245.278C320.967 246.631 322.767 247.365 324.519 248.064L338.918 253.831C341.294 254.845 343.745 255.674 346.249 256.31C350.043 257.178 353.985 257.143 357.878 256.975C360.45 256.865 363.019 256.7 365.585 256.479C366.605 256.475 367.608 256.211 368.498 255.71C369.265 255.104 369.854 254.303 370.205 253.39C372.208 249.021 372.881 243.924 375.987 240.265C378.119 237.751 381.429 235.743 381.671 232.455C381.785 230.819 381.058 229.227 381.048 227.586C381.048 225.568 382.101 223.649 382.037 221.636C381.903 218.358 378.822 215.859 378.332 212.617C377.086 204.396 381.251 196.184 383.808 188.276C384.268 186.863 384.862 185.301 386.217 184.696C387.572 184.091 389.482 184.408 389.966 183.069C391.188 179.708 391.48 175.766 391.322 172.191C391.233 170.123 390.501 168.1 390.585 166.027C390.644 164.57 391.109 163.152 391.233 161.699C391.421 159.502 390.842 157.32 390.243 155.198C390.07 154.441 389.812 153.705 389.472 153.007C389.106 152.373 388.675 151.78 388.186 151.236L385.777 148.366C384.649 147.022 383.457 145.629 381.819 144.949C381.29 143.635 379.598 142.728 378.386 142.004C377.165 141.309 375.903 140.688 374.607 140.145L360.985 134.115C360.475 133.858 359.93 133.681 359.367 133.59C358.538 133.562 357.714 133.732 356.963 134.085C352.808 135.736 348.47 137.383 344.018 138.047Z" fill="#FF5555"/>
<path d="M329.589 116.934C329.064 115.085 327.724 113.488 327.521 111.574C327.338 109.873 328.085 108.227 328.51 106.571C328.936 104.915 328.921 102.892 327.61 101.791C327.392 101.603 327.115 101.434 327.036 101.156C326.878 100.661 327.378 100.209 327.531 99.7086C327.813 98.7169 326.591 97.6211 327.036 96.6691C327.289 96.1485 327.922 95.965 328.476 95.8014C330.593 95.1717 332.74 93.7734 333.2 91.6066C334.857 92.3007 336.623 90.9967 337.894 89.7323C339.165 88.4679 340.728 87.025 342.479 87.4068L342.089 88.2051C344.789 87.2225 347.742 87.1893 350.463 88.1109H349.632C352.019 88.1514 354.334 88.9365 356.256 90.3571C356.043 90.3571 356.023 90.6744 356.107 90.8529C356.8 92.4743 358.581 93.3321 360.297 93.7337C361.331 93.9817 362.454 94.1601 363.21 94.9039C363.967 95.6477 363.982 97.1997 362.983 97.5567C365.021 98.3519 366.95 99.4014 368.726 100.68C369.221 101.042 369.78 101.533 369.715 102.168C369.644 102.487 369.542 102.797 369.409 103.095C369.31 103.624 369.345 104.17 369.512 104.682L370.061 106.953C370.665 109.477 371.14 112.516 369.305 114.346C369.992 115.632 370.247 117.107 370.032 118.55C369.817 119.993 369.144 121.329 368.113 122.359C368.258 122.802 368.308 123.271 368.26 123.734C368.212 124.198 368.066 124.647 367.832 125.05C367.599 125.453 367.282 125.802 366.904 126.074C366.526 126.346 366.095 126.535 365.639 126.628C366.248 127.58 365.689 128.938 364.729 129.533C363.769 130.128 362.562 130.133 361.445 130.029C360.327 129.925 359.194 129.672 358.076 129.841C356.449 130.094 354.856 131.204 353.288 130.709C352.703 130.458 352.142 130.156 351.611 129.806C350.513 129.216 349.236 129.082 348.02 128.814C345.945 128.368 343.975 127.526 342.217 126.335C341.052 125.633 340.123 124.597 339.551 123.36C338.463 120.603 340.293 116.989 338.369 114.743C337.241 113.433 335.005 113.414 333.744 114.534C333.116 115.095 333.032 116.275 332.379 116.696C331.468 116.927 330.525 117.008 329.589 116.934Z" fill="#464353"/>
<path opacity="0.1" d="M305.39 259.112C304.687 258.554 304.08 257.884 303.595 257.128C303.107 256.369 302.914 255.457 303.051 254.565C302.858 255.694 302.931 256.852 303.265 257.947C303.6 259.043 304.185 260.044 304.975 260.872C306.216 262.146 308.546 263.396 310.362 262.959C310.104 261.502 306.543 260.093 305.39 259.112Z" fill="black"/>
<path d="M403.243 179.356C403.243 179.356 392.697 173.227 378.777 180.843C364.858 188.459 362.538 233.278 362.538 233.278C362.538 233.278 368.231 278.94 346.278 268.781C346.278 268.781 306.211 256.31 302.2 259.057C302.2 259.057 298.401 259.057 305.994 260.748C313.587 262.439 342.92 271.756 342.92 271.756C342.92 271.756 352.402 275.078 356.419 271.756C360.435 268.433 371.817 272.182 373.296 249.344C374.275 234.952 376.036 220.624 378.569 206.424L382.482 194.796L403.243 179.356Z" fill="#565661"/>
<path d="M404.509 249.973C404.509 249.973 399.869 203.672 407.477 186.967C414.096 172.409 388.502 179.217 381.824 181.2C380.791 181.51 379.89 182.155 379.262 183.035C375.305 188.613 361.108 210.97 365.293 240.884C365.293 240.884 366.98 267.526 356.434 271.751L388.928 261.259C391.564 260.406 394.24 259.697 396.941 259.082C400.384 258.298 405.993 256.072 404.509 249.973Z" fill="white"/>
<path opacity="0.1" d="M489.694 340.008C516.314 340.008 537.893 336.534 537.893 332.248C537.893 327.963 516.314 324.488 489.694 324.488C463.074 324.488 441.495 327.963 441.495 332.248C441.495 336.534 463.074 340.008 489.694 340.008Z" fill="#FF5555"/>
<path d="M491.242 183.59H488.141V253.588H491.242V183.59Z" fill="#535461"/>
<path d="M510.737 253.375L510.544 256.528L510.267 260.991L510.153 262.845L509.881 267.308L509.762 269.162L509.485 273.625L506.359 324.235C506.216 326.408 505.254 328.444 503.669 329.932C502.083 331.42 499.993 332.248 497.821 332.248H481.562C479.386 332.247 477.293 331.415 475.708 329.92C474.124 328.426 473.167 326.382 473.034 324.206L469.898 273.59L469.626 269.128L469.512 267.273L469.23 262.811L469.116 260.956L468.844 256.493L468.646 253.34C468.612 252.736 468.701 252.13 468.907 251.561C469.114 250.992 469.434 250.472 469.847 250.03C470.261 249.589 470.76 249.237 471.314 248.996C471.868 248.754 472.465 248.628 473.069 248.625H506.319C506.926 248.628 507.526 248.756 508.081 249C508.637 249.244 509.137 249.599 509.55 250.044C509.964 250.489 510.283 251.014 510.487 251.587C510.691 252.159 510.776 252.768 510.737 253.375Z" fill="#565661"/>
<path d="M510.544 256.528L510.267 260.976H469.121L468.844 256.528H510.544Z" fill="#9D9CB5"/>
<path d="M510.153 262.835L509.881 267.288H469.512L469.235 262.835H510.153Z" fill="#9D9CB5"/>
<path d="M509.762 269.142L509.485 273.59H469.903L469.626 269.142H509.762Z" fill="#9D9CB5"/>
<path d="M464.105 209.825C482.17 222.925 489.694 243.413 489.694 243.413C489.694 243.413 467.929 242.664 449.859 229.564C431.789 216.464 424.276 195.981 424.276 195.981C424.276 195.981 446.045 196.73 464.105 209.825Z" fill="#FF5555"/>
<path d="M424.276 195.981C424.276 195.981 446.867 208.551 454.118 218.958C461.37 229.366 489.694 243.413 489.694 243.413" stroke="#535461" stroke-width="2" stroke-miterlimit="10"/>
<path d="M475.764 183.436C485.598 190.562 489.694 201.718 489.694 201.718C489.694 201.718 477.822 201.306 468.013 194.181C458.204 187.056 454.113 175.9 454.113 175.9C454.113 175.9 465.936 176.306 475.764 183.436Z" fill="#FF5555"/>
<path d="M454.113 175.9C454.113 175.9 466.41 182.742 470.353 188.405C474.295 194.067 489.719 201.718 489.719 201.718" stroke="#535461" stroke-width="2" stroke-miterlimit="10"/>
<path d="M503.98 201.148C492.687 213.588 490.297 229.847 490.297 229.847C490.297 229.847 506.22 225.93 517.503 213.484C528.786 201.039 531.186 184.785 531.186 184.785C531.186 184.785 515.272 188.707 503.98 201.148Z" fill="#FF5555"/>
<path d="M531.195 184.79C531.195 184.79 516.484 197.543 512.745 206.329C509.005 215.116 490.297 229.847 490.297 229.847" stroke="#535461" stroke-width="2" stroke-miterlimit="10"/>
<path d="M275.513 171.199V172.329H242.069V171.412C242.986 171.067 243.854 170.604 244.652 170.034C246.072 169.014 247.229 167.67 248.027 166.113C248.826 164.556 249.242 162.83 249.242 161.079C249.243 160.164 249.128 159.253 248.901 158.367C248.496 156.772 247.741 155.288 246.69 154.024C245.638 152.761 244.318 151.749 242.826 151.063H275.286C273.793 151.749 272.473 152.761 271.422 154.024C270.371 155.288 269.616 156.772 269.211 158.367C268.986 159.253 268.873 160.164 268.875 161.079C268.874 162.829 269.289 164.555 270.087 166.112C270.884 167.67 272.041 169.014 273.46 170.034C274.102 170.493 274.79 170.883 275.513 171.199Z" fill="#DFE6F5"/>
<path opacity="0.1" d="M275.286 151.063C273.793 151.749 272.473 152.761 271.422 154.024C270.371 155.288 269.616 156.772 269.211 158.367H248.901C248.496 156.772 247.741 155.288 246.69 154.024C245.639 152.761 244.318 151.749 242.826 151.063H275.286Z" fill="black"/>
<path d="M203.778 145.286V151.653C203.778 155.164 206.341 158.015 209.506 158.015H307.898C311.064 158.015 313.631 155.164 313.631 151.653V145.286H203.778Z" fill="#DFE6F5"/>
<path opacity="0.1" d="M275.513 171.199V172.329H242.069V171.412C242.986 171.067 243.854 170.604 244.652 170.034H273.46C274.102 170.493 274.79 170.883 275.513 171.199Z" fill="black"/>
<path d="M284.887 170.386H232.696C231.77 170.386 231.019 171.137 231.019 172.064C231.019 172.991 231.77 173.743 232.696 173.743H284.887C285.813 173.743 286.564 172.991 286.564 172.064C286.564 171.137 285.813 170.386 284.887 170.386Z" fill="#DFE6F5"/>
<path d="M313.631 75.5563C313.631 74.8018 313.483 74.0548 313.195 73.3578C312.907 72.6609 312.484 72.0277 311.952 71.4944C311.419 70.9612 310.787 70.5384 310.092 70.2501C309.396 69.9618 308.651 69.8138 307.898 69.8145H209.506C208.754 69.8138 208.009 69.9619 207.313 70.2502C206.618 70.5385 205.987 70.9614 205.454 71.4947C204.922 72.0281 204.501 72.6613 204.213 73.3582C203.925 74.0551 203.778 74.8021 203.778 75.5563V146.526H313.631V75.5563Z" fill="#474157"/>
<path d="M310.634 78.1197V139.108C310.634 139.48 310.562 139.848 310.42 140.191C310.279 140.535 310.071 140.847 309.81 141.11C309.548 141.373 309.237 141.581 308.894 141.724C308.552 141.866 308.185 141.939 307.814 141.939H209.595C209.225 141.939 208.858 141.866 208.515 141.724C208.173 141.581 207.862 141.373 207.6 141.11C207.338 140.847 207.13 140.535 206.989 140.191C206.848 139.848 206.775 139.48 206.776 139.108V78.1197C206.773 77.6236 206.903 77.1357 207.152 76.7066C207.399 76.2767 207.756 75.9197 208.185 75.6717C208.614 75.4236 209.1 75.2931 209.595 75.2935H307.814C308.562 75.2935 309.279 75.5912 309.808 76.1213C310.337 76.6513 310.634 77.3702 310.634 78.1197Z" fill="#4C4C78"/>
<path d="M258.705 73.8753C259.434 73.8753 260.025 73.2826 260.025 72.5514C260.025 71.8203 259.434 71.2275 258.705 71.2275C257.975 71.2275 257.384 71.8203 257.384 72.5514C257.384 73.2826 257.975 73.8753 258.705 73.8753Z" fill="white"/>
<path d="M258.705 155.183C260.505 155.183 261.965 153.72 261.965 151.916C261.965 150.111 260.505 148.648 258.705 148.648C256.904 148.648 255.445 150.111 255.445 151.916C255.445 153.72 256.904 155.183 258.705 155.183Z" fill="white"/>
<path d="M310.634 78.1198H206.786C206.786 77.3702 207.083 76.6513 207.611 76.1213C208.14 75.5912 208.857 75.2935 209.605 75.2935H307.814C308.562 75.2935 309.279 75.5912 309.808 76.1213C310.336 76.6513 310.634 77.3702 310.634 78.1198Z" fill="#C8CAD7"/>
<path d="M209.595 77.4157C209.986 77.4157 210.303 77.0982 210.303 76.7066C210.303 76.315 209.986 75.9976 209.595 75.9976C209.205 75.9976 208.888 76.315 208.888 76.7066C208.888 77.0982 209.205 77.4157 209.595 77.4157Z" fill="#EDEDF4"/>
<path d="M211.712 77.4157C212.103 77.4157 212.42 77.0982 212.42 76.7066C212.42 76.315 212.103 75.9976 211.712 75.9976C211.322 75.9976 211.005 76.315 211.005 76.7066C211.005 77.0982 211.322 77.4157 211.712 77.4157Z" fill="#EDEDF4"/>
<path d="M213.83 77.4157C214.22 77.4157 214.537 77.0982 214.537 76.7066C214.537 76.315 214.22 75.9976 213.83 75.9976C213.439 75.9976 213.122 76.315 213.122 76.7066C213.122 77.0982 213.439 77.4157 213.83 77.4157Z" fill="#EDEDF4"/>
</g>
<defs>
<linearGradient id="paint0_linear" x1="191.16" y1="231.925" x2="192.307" y2="231.925" gradientUnits="userSpaceOnUse">
<stop stop-color="#808080" stop-opacity="0.25"/>
<stop offset="0.54" stop-color="#808080" stop-opacity="0.12"/>
<stop offset="1" stop-color="#808080" stop-opacity="0.1"/>
</linearGradient>
<clipPath id="clip0">
<rect width="559" height="366" fill="white"/>
</clipPath>
</defs>
</svg>
