<svg width="23" height="22" viewBox="0 0 23 22" fill="none" xmlns="http://www.w3.org/2000/svg">
<path d="M11.9204 1.98198C14.8575 1.98198 15.2054 1.9932 16.3654 2.04612C17.4378 2.09503 18.0203 2.27423 18.4079 2.42487C18.9213 2.62442 19.2878 2.86278 19.6727 3.24768C20.0576 3.63263 20.296 3.99906 20.4955 4.51251C20.6462 4.90013 20.8254 5.48257 20.8743 6.55506C20.9272 7.71496 20.9384 8.06288 20.9384 11C20.9384 13.9371 20.9272 14.285 20.8743 15.4449C20.8254 16.5174 20.6462 17.0999 20.4955 17.4875C20.296 18.0009 20.0576 18.3674 19.6727 18.7523C19.2878 19.1372 18.9213 19.3756 18.4079 19.5751C18.0203 19.7258 17.4378 19.905 16.3654 19.9539C15.2056 20.0068 14.8577 20.018 11.9204 20.018C8.98307 20.018 8.63524 20.0068 7.47547 19.9539C6.40298 19.905 5.82054 19.7258 5.43292 19.5751C4.91947 19.3756 4.55304 19.1372 4.16814 18.7523C3.78323 18.3674 3.54483 18.0009 3.34528 17.4875C3.19464 17.0999 3.01544 16.5174 2.96653 15.4449C2.91361 14.285 2.90239 13.9371 2.90239 11C2.90239 8.06288 2.91361 7.71496 2.96653 6.55506C3.01544 5.48257 3.19464 4.90013 3.34528 4.51251C3.54483 3.99906 3.78319 3.63263 4.16814 3.24773C4.55304 2.86278 4.91947 2.62442 5.43292 2.42487C5.82054 2.27423 6.40298 2.09503 7.47547 2.04612C8.63537 1.9932 8.98329 1.98198 11.9204 1.98198ZM11.9204 0C8.93299 0 8.55839 0.0126627 7.38512 0.0661955C6.2143 0.119597 5.41467 0.305565 4.71499 0.577464C3.99164 0.858576 3.3782 1.2347 2.76664 1.84623C2.15511 2.45779 1.77899 3.07123 1.49792 3.79458C1.22597 4.49426 1.04001 5.29389 0.986606 6.46471C0.933073 7.63798 0.92041 8.01258 0.92041 11C0.92041 13.9874 0.933073 14.362 0.986606 15.5353C1.04001 16.7061 1.22597 17.5057 1.49792 18.2054C1.77899 18.9288 2.15511 19.5422 2.76664 20.1538C3.3782 20.7653 3.99164 21.1414 4.71499 21.4225C5.41467 21.6944 6.2143 21.8804 7.38512 21.9338C8.55839 21.9873 8.93299 22 11.9204 22C14.9078 22 15.2824 21.9873 16.4557 21.9338C17.6265 21.8804 18.4261 21.6944 19.1258 21.4225C19.8492 21.1414 20.4626 20.7653 21.0742 20.1538C21.6857 19.5422 22.0618 18.9288 22.3429 18.2054C22.6148 17.5057 22.8008 16.7061 22.8542 15.5353C22.9077 14.362 22.9204 13.9874 22.9204 11C22.9204 8.01258 22.9077 7.63798 22.8542 6.46471C22.8008 5.29389 22.6148 4.49426 22.3429 3.79458C22.0618 3.07123 21.6857 2.45779 21.0742 1.84623C20.4626 1.2347 19.8492 0.858576 19.1258 0.577464C18.4261 0.305565 17.6265 0.119597 16.4557 0.0661955C15.2824 0.0126627 14.9078 0 11.9204 0Z" fill="white"/>
<path d="M11.9246 5.35742C8.80486 5.35742 6.27588 7.88629 6.27588 11.0058C6.27588 14.1254 8.80486 16.6543 11.9246 16.6543C15.0443 16.6543 17.5733 14.1254 17.5733 11.0058C17.5733 7.88629 15.0443 5.35742 11.9246 5.35742ZM11.9246 14.6724C9.8995 14.6724 8.25787 13.0308 8.25787 11.0058C8.25787 8.98087 9.8995 7.33932 11.9246 7.33932C13.9496 7.33932 15.5913 8.98087 15.5913 11.0058C15.5913 13.0308 13.9496 14.6724 11.9246 14.6724Z" fill="white"/>
<path d="M19.1165 5.12848C19.1165 5.85739 18.5255 6.44832 17.7965 6.44832C17.0676 6.44832 16.4766 5.85739 16.4766 5.12848C16.4766 4.39953 17.0676 3.80859 17.7965 3.80859C18.5255 3.80859 19.1165 4.39953 19.1165 5.12848Z" fill="white"/>
</svg>
