<svg width="562" height="445" viewBox="0 0 562 445" fill="none" xmlns="http://www.w3.org/2000/svg">
<g clip-path="url(#clip0)">
<path opacity="0.1" d="M548.381 302.561C547.877 302.94 547.414 303.309 546.921 303.667C545.1 304.995 543.194 306.194 541.216 307.255C530.854 312.888 518.081 315.64 505.639 317.509C477.736 321.704 449.249 322.52 420.882 323.319C344.236 325.489 267.403 327.655 190.943 322.655C160.734 320.682 129.86 317.379 102.485 307.255C98.5614 305.808 94.7148 304.212 90.9453 302.468C83.3174 298.932 75.9917 294.628 69.8994 289.488C64.1748 284.67 59.5326 279.135 56.7584 272.842C50.9733 259.737 54.0345 245.018 60.6403 232.173C63.3838 226.976 66.4778 221.985 69.8994 217.235C74.9998 210.003 80.6238 202.978 85.7543 195.751C104.011 170.06 115.923 137.558 99.0716 111.208C94.2281 103.638 87.2296 96.9926 83.2822 89.0903C78.2473 78.9814 78.635 67.7562 80.2361 56.8529C80.4442 55.4684 80.6641 54.0977 80.8957 52.7408C83.6296 36.5728 88.7753 19.1535 104.64 9.06012C121.119 -1.42782 144.522 -0.898226 164.973 2.82966C196.779 8.68629 226.117 20.8772 255.768 31.8844C285.418 42.8915 316.438 52.9485 349.024 54.0284C377.798 54.9838 411.361 47.8343 430.458 29.252C449.007 11.2044 483.874 9.82854 509.003 20.7318C526.252 28.2136 539.121 41.6921 544.549 56.8529C545.648 59.8967 546.44 63.0494 546.91 66.2609C547.345 69.1959 547.487 72.1692 547.333 75.1341C547.258 76.5983 547.112 78.0468 546.91 79.4799C542.711 109.396 512.487 132.994 494.115 159.718C485.137 172.771 478.798 188.451 484.971 202.526C494.386 223.975 527.128 231.602 546.9 247.562C550.621 250.467 553.897 253.932 556.618 257.842C566.209 272.048 562.67 291.232 548.381 302.561Z" fill="#FF5555"/>
<path d="M129.895 168.669C129.895 168.669 106.735 126.343 71.8328 114.152C57.1863 109.033 44.4027 99.407 35.6621 86.2503C31.5242 80.0038 27.9512 73.3786 24.9882 66.4582" stroke="#535461" stroke-width="2" stroke-miterlimit="10"/>
<path d="M3.04111 58.6234C7.01868 62.5849 25.537 66.7386 25.537 66.7386C25.537 66.7386 21.0056 47.7772 17.018 43.7949C15.1011 41.9231 12.5462 40.9057 9.90696 40.963C7.26767 41.0204 4.75661 42.148 2.91796 44.1014C1.07931 46.0548 0.0611939 48.6767 0.0842454 51.3989C0.107297 54.121 1.16966 56.7242 3.04111 58.6442V58.6234Z" fill="#FF5555"/>
<path d="M13.5187 92.9377C18.9514 94.0488 36.6792 87.1278 36.6792 87.1278C36.6792 87.1278 22.8584 73.753 17.4208 72.642C14.8364 72.1727 12.1766 72.766 10.0114 74.2948C7.84625 75.8236 6.34794 78.1662 5.83762 80.8205C5.3273 83.4749 5.84557 86.2298 7.28137 88.4948C8.71717 90.7598 10.9562 92.3547 13.5187 92.9377Z" fill="#FF5555"/>
<path d="M51.6581 130.082C56.8944 128.212 68.7767 113.015 68.7767 113.015C68.7767 113.015 50.3087 108.659 45.0774 110.528C43.7939 110.94 42.6035 111.612 41.577 112.507C40.5504 113.402 39.7087 114.5 39.1016 115.737C38.4946 116.973 38.1346 118.323 38.0432 119.706C37.9517 121.089 38.1306 122.476 38.5691 123.787C39.0077 125.097 39.6971 126.303 40.5963 127.333C41.4955 128.363 42.5862 129.197 43.8038 129.784C45.0213 130.371 46.3408 130.7 47.684 130.751C49.0271 130.802 50.3666 130.574 51.6228 130.082H51.6581Z" fill="#FF5555"/>
<path d="M86.6506 151.468C92.1185 150.533 106.337 137.631 106.337 137.631C106.337 137.631 88.8508 130.118 83.3829 131.047C80.757 131.494 78.4107 132.998 76.8603 135.229C75.3099 137.46 74.6823 140.234 75.1156 142.942C75.5489 145.65 77.0077 148.07 79.1709 149.668C81.3341 151.267 84.0246 151.914 86.6506 151.468Z" fill="#FF5555"/>
<path d="M52.1061 72.3096C52.1061 78.0209 42.0867 94.5991 42.0867 94.5991C42.0867 94.5991 32.0471 78.0313 32.0421 72.32C32.0121 70.942 32.2495 69.5717 32.7402 68.2895C33.2309 67.0074 33.9651 65.8392 34.8996 64.8537C35.8341 63.8682 36.9501 63.0851 38.1822 62.5505C39.4142 62.0159 40.7374 61.7405 42.0741 61.7405C43.4108 61.7405 44.734 62.0159 45.966 62.5505C47.198 63.0851 48.3141 63.8682 49.2486 64.8537C50.1831 65.8392 50.9173 67.0074 51.408 68.2895C51.8987 69.5717 52.1361 70.942 52.1061 72.32V72.3096Z" fill="#FF5555"/>
<path d="M92.7278 97.8909C91.0713 103.343 76.6967 116.063 76.6967 116.063C76.6967 116.063 71.9236 97.138 73.5599 91.6604C74.4394 89.1524 76.2239 87.0914 78.5412 85.9074C80.8585 84.7233 83.5297 84.5075 85.9975 85.3052C88.4653 86.1028 90.5392 87.8521 91.7866 90.1883C93.034 92.5245 93.3585 95.2672 92.6925 97.8441L92.7278 97.8909Z" fill="#FF5555"/>
<path d="M128.898 128.29C128.163 133.955 116.08 148.996 116.08 148.996C116.08 148.996 108.275 131.198 109.031 125.533C109.422 122.847 110.822 120.426 112.929 118.795C115.035 117.163 117.68 116.452 120.291 116.814C122.902 117.176 125.271 118.582 126.885 120.729C128.499 122.877 129.23 125.592 128.919 128.29H128.898Z" fill="#FF5555"/>
<path opacity="0.25" d="M3.04111 58.6234C7.01868 62.5849 25.537 66.7386 25.537 66.7386C25.537 66.7386 21.0056 47.7772 17.018 43.7949C15.1011 41.9231 12.5462 40.9057 9.90696 40.963C7.26767 41.0204 4.75661 42.148 2.91796 44.1014C1.07931 46.0548 0.0611939 48.6767 0.0842454 51.3989C0.107297 54.121 1.16966 56.7242 3.04111 58.6442V58.6234Z" fill="black"/>
<path opacity="0.25" d="M13.5187 92.9377C18.9514 94.0488 36.6792 87.1278 36.6792 87.1278C36.6792 87.1278 22.8584 73.753 17.4208 72.642C14.8364 72.1727 12.1766 72.766 10.0114 74.2948C7.84625 75.8236 6.34794 78.1662 5.83762 80.8205C5.3273 83.4749 5.84557 86.2298 7.28137 88.4948C8.71717 90.7598 10.9562 92.3547 13.5187 92.9377Z" fill="black"/>
<path opacity="0.25" d="M51.6581 130.082C56.8944 128.212 68.7767 113.015 68.7767 113.015C68.7767 113.015 50.3087 108.659 45.0774 110.528C43.7939 110.94 42.6035 111.612 41.577 112.507C40.5504 113.402 39.7087 114.5 39.1016 115.737C38.4946 116.973 38.1346 118.323 38.0432 119.706C37.9517 121.089 38.1306 122.476 38.5691 123.787C39.0077 125.097 39.6971 126.303 40.5963 127.333C41.4955 128.363 42.5862 129.197 43.8038 129.784C45.0213 130.371 46.3408 130.7 47.684 130.751C49.0271 130.802 50.3666 130.574 51.6228 130.082H51.6581Z" fill="black"/>
<path opacity="0.25" d="M86.6506 151.468C92.1185 150.533 106.337 137.631 106.337 137.631C106.337 137.631 88.8508 130.118 83.3829 131.047C80.757 131.494 78.4107 132.998 76.8603 135.229C75.3099 137.46 74.6823 140.234 75.1156 142.942C75.5489 145.65 77.0077 148.07 79.1709 149.668C81.3341 151.267 84.0246 151.914 86.6506 151.468Z" fill="black"/>
<path opacity="0.25" d="M52.1061 72.3096C52.1061 78.0209 42.0867 94.5991 42.0867 94.5991C42.0867 94.5991 32.0471 78.0313 32.0421 72.32C32.0121 70.942 32.2495 69.5717 32.7402 68.2895C33.2309 67.0074 33.9651 65.8392 34.8996 64.8537C35.8341 63.8682 36.9501 63.0851 38.1822 62.5505C39.4142 62.0159 40.7374 61.7405 42.0741 61.7405C43.4108 61.7405 44.734 62.0159 45.966 62.5505C47.198 63.0851 48.3141 63.8682 49.2486 64.8537C50.1831 65.8392 50.9173 67.0074 51.408 68.2895C51.8987 69.5717 52.1361 70.942 52.1061 72.32V72.3096Z" fill="black"/>
<path opacity="0.25" d="M92.7278 97.8909C91.0713 103.343 76.6967 116.063 76.6967 116.063C76.6967 116.063 71.9236 97.138 73.5599 91.6604C74.4394 89.1524 76.2239 87.0914 78.5412 85.9074C80.8585 84.7233 83.5297 84.5075 85.9975 85.3052C88.4653 86.1028 90.5392 87.8521 91.7866 90.1883C93.034 92.5245 93.3585 95.2672 92.6925 97.8441L92.7278 97.8909Z" fill="black"/>
<path opacity="0.25" d="M128.898 128.29C128.163 133.955 116.08 148.996 116.08 148.996C116.08 148.996 108.275 131.198 109.031 125.533C109.422 122.847 110.822 120.426 112.929 118.795C115.035 117.163 117.68 116.452 120.291 116.814C122.902 117.176 125.271 118.582 126.885 120.729C128.499 122.877 129.23 125.592 128.919 128.29H128.898Z" fill="black"/>
<path d="M128.561 167.828C128.561 167.828 124.03 119.448 96.9016 93.7165C85.5278 82.917 77.623 68.7946 74.7985 53.0939C73.4726 45.6522 72.8119 38.1007 72.8248 30.5344" stroke="#535461" stroke-width="2" stroke-miterlimit="10"/>
<path d="M55.832 14.2158C57.9063 19.5169 73.2175 31.0173 73.2175 31.0173C73.2175 31.0173 76.5153 11.7808 74.446 6.47968C73.4511 3.9322 71.5157 1.89658 69.0654 0.820648C66.6152 -0.255287 63.8508 -0.283409 61.3804 0.742468C58.9101 1.76835 56.9361 3.76419 55.8927 6.29093C54.8493 8.81768 54.822 11.6684 55.8169 14.2158H55.832Z" fill="#FF5555"/>
<path d="M51.9098 49.9631C56.4412 53.2496 75.3573 54.3244 75.3573 54.3244C75.3573 54.3244 68.0214 36.3288 63.49 33.0422C61.3141 31.4586 58.6172 30.8313 55.9928 31.2982C53.3683 31.7651 51.0312 33.2879 49.4955 35.5318C47.9599 37.7756 47.3515 40.5566 47.8043 43.263C48.2571 45.9694 49.7338 48.3795 51.9098 49.9631Z" fill="#FF5555"/>
<path d="M72.2054 99.8483C77.7438 100.331 94.5805 91.406 94.5805 91.406C94.5805 91.406 79.4104 79.7083 73.8871 79.2307C72.5581 79.0847 71.2143 79.2141 69.9345 79.611C68.6546 80.008 67.4646 80.6646 66.4342 81.5423C65.4038 82.42 64.5538 83.5011 63.9341 84.7221C63.3144 85.9432 62.9375 87.2796 62.8255 88.653C62.7135 90.0263 62.8686 91.4089 63.2818 92.7195C63.695 94.0302 64.3579 95.2425 65.2317 96.2854C66.1054 97.3282 67.1724 98.1806 68.37 98.7924C69.5675 99.4042 70.8715 99.7632 72.2054 99.8483Z" fill="#FF5555"/>
<path d="M95.7889 134.033C101.156 135.466 119.226 129.609 119.226 129.609C119.226 129.609 106.191 115.435 100.829 114.002C98.2692 113.362 95.5684 113.786 93.3092 115.182C91.0499 116.578 89.4134 118.833 88.7525 121.462C88.0917 124.091 88.4597 126.883 89.777 129.234C91.0943 131.586 93.2554 133.309 95.7939 134.033H95.7889Z" fill="#FF5555"/>
<path d="M95.3106 47.2321C93.07 52.4553 77.3914 63.4157 77.3914 63.4157C77.3914 63.4157 74.7229 44.0805 76.9634 38.8521C77.4823 37.5871 78.2402 36.4414 79.193 35.4816C80.1457 34.5218 81.2742 33.7672 82.5127 33.2618C83.7511 32.7564 85.0748 32.5103 86.4064 32.5378C87.738 32.5654 89.051 32.866 90.2688 33.4222C91.4866 33.9785 92.5849 34.7791 93.4995 35.7776C94.4142 36.776 95.1269 37.9522 95.5962 39.2376C96.0655 40.523 96.2819 41.8919 96.2329 43.2644C96.1838 44.637 95.8703 45.9857 95.3106 47.2321Z" fill="#FF5555"/>
<path d="M122.398 87.5639C118.743 91.8577 100.602 97.4807 100.602 97.4807C100.602 97.4807 103.664 78.2078 107.324 73.914C108.193 72.8933 109.249 72.0591 110.43 71.4591C111.612 70.8591 112.897 70.505 114.211 70.417C115.526 70.329 116.844 70.5089 118.091 70.9463C119.338 71.3838 120.49 72.0702 121.479 72.9665C122.469 73.8627 123.278 74.9513 123.86 76.1699C124.442 77.3885 124.785 78.7134 124.871 80.0689C124.956 81.4244 124.782 82.784 124.357 84.07C123.933 85.356 123.267 86.5432 122.398 87.5639Z" fill="#FF5555"/>
<path d="M143.545 130.497C140.645 135.367 123.687 144.069 123.687 144.069C123.687 144.069 123.546 124.536 126.446 119.666C127.839 117.325 130.077 115.651 132.667 115.011C135.257 114.371 137.987 114.819 140.257 116.255C142.527 117.691 144.151 119.999 144.771 122.67C145.392 125.34 144.958 128.156 143.565 130.497H143.545Z" fill="#FF5555"/>
<path opacity="0.1" d="M205.504 442.207C236.517 442.207 261.658 438.831 261.658 434.668C261.658 430.504 236.517 427.129 205.504 427.129C174.491 427.129 149.35 430.504 149.35 434.668C149.35 438.831 174.491 442.207 205.504 442.207Z" fill="#FF5555"/>
<path opacity="0.1" d="M92.0781 437.098C101.499 437.098 109.136 435.749 109.136 434.086C109.136 432.423 101.499 431.075 92.0781 431.075C82.6571 431.075 75.0199 432.423 75.0199 434.086C75.0199 435.749 82.6571 437.098 92.0781 437.098Z" fill="#FF5555"/>
<path d="M95.7839 400.556C95.7839 400.556 98.548 404.289 94.505 409.902C90.462 415.514 87.1289 420.286 88.4631 423.801C88.4631 423.801 94.5604 413.339 99.5399 413.194C104.519 413.048 101.252 406.849 95.7839 400.556Z" fill="#FF5555"/>
<path opacity="0.1" d="M95.7838 400.556C96.0253 400.917 96.2152 401.313 96.3477 401.729C101.191 407.596 103.774 413.074 99.1169 413.209C94.7819 413.339 89.5758 421.335 88.3322 423.354C88.3732 423.511 88.422 423.665 88.4782 423.816C88.4782 423.816 94.5754 413.354 99.555 413.209C104.534 413.064 101.252 406.849 95.7838 400.556Z" fill="black"/>
<path d="M100.924 405.312C100.924 406.626 100.783 407.69 100.607 407.69C100.431 407.69 100.285 406.651 100.285 405.312C100.285 403.972 100.466 404.616 100.643 404.616C100.819 404.616 100.924 403.998 100.924 405.312Z" fill="#FFD037"/>
<path d="M102.692 406.88C101.574 407.508 100.597 407.887 100.512 407.726C100.426 407.565 101.267 406.927 102.385 406.298C103.502 405.67 103.059 406.127 103.145 406.298C103.23 406.47 103.809 406.252 102.692 406.88Z" fill="#FFD037"/>
<path d="M81.1726 400.556C81.1726 400.556 78.4084 404.289 82.4515 409.902C86.4945 415.514 89.8276 420.286 88.4933 423.801C88.4933 423.801 82.3961 413.339 77.4166 413.194C72.4371 413.048 75.7148 406.849 81.1726 400.556Z" fill="#FF5555"/>
<path opacity="0.1" d="M81.1726 400.556C80.9311 400.917 80.7412 401.313 80.6087 401.729C75.7651 407.596 73.1822 413.074 77.8395 413.209C82.1795 413.339 87.3806 421.335 88.6242 423.354C88.5854 423.511 88.5367 423.666 88.4782 423.816C88.4782 423.816 82.3809 413.354 77.4014 413.209C72.4219 413.064 75.7147 406.849 81.1726 400.556Z" fill="black"/>
<path d="M76.032 405.312C76.032 406.626 76.173 407.69 76.3492 407.69C76.5254 407.69 76.6714 406.651 76.6714 405.312C76.6714 403.972 76.4902 404.616 76.3139 404.616C76.1377 404.616 76.032 403.998 76.032 405.312Z" fill="#FFD037"/>
<path d="M74.2697 406.88C75.3875 407.508 76.3592 407.887 76.4448 407.726C76.5304 407.565 75.6896 406.927 74.5718 406.298C73.4541 405.67 73.8972 406.127 73.8116 406.298C73.726 406.47 73.152 406.252 74.2697 406.88Z" fill="#FFD037"/>
<path d="M76.9131 423.328C76.9131 423.328 84.6467 423.079 86.9829 421.371C89.3191 419.663 98.8753 417.612 99.4543 420.359C100.033 423.105 111.075 434.008 102.344 434.081C93.6138 434.154 82.0587 432.679 79.7326 431.22C77.4065 429.761 76.9131 423.328 76.9131 423.328Z" fill="#A8A8A8"/>
<path opacity="0.2" d="M102.495 433.126C93.7649 433.198 82.2098 431.724 79.8837 430.265C78.1114 429.149 77.4065 425.156 77.1699 423.318H76.9131C76.9131 423.318 77.4166 429.746 79.7276 431.21C82.0386 432.674 93.6088 434.143 102.339 434.071C104.857 434.071 105.733 433.126 105.682 431.755C105.335 432.596 104.373 433.11 102.495 433.126Z" fill="black"/>
<path d="M335.173 423.022C335.173 423.022 313.885 421.698 316.398 437.082C316.398 437.082 315.894 439.798 318.286 441.033C318.286 441.033 318.326 439.896 320.471 440.28C321.234 440.413 322.01 440.451 322.782 440.395C323.828 440.324 324.822 439.9 325.612 439.19C325.612 439.19 331.593 436.646 333.919 426.558C333.919 426.558 335.641 424.356 335.576 423.79L331.981 425.348C331.981 425.348 333.209 428.022 332.243 430.244C332.243 430.244 332.127 425.447 331.437 425.571C331.296 425.571 329.569 426.496 329.569 426.496C329.569 426.496 331.684 431.168 330.073 434.533C330.073 434.533 330.677 428.822 328.894 426.833L326.377 428.354C326.377 428.354 328.844 433.162 327.173 437.087C327.173 437.087 327.601 431.07 325.848 428.723L323.558 430.566C323.558 430.566 325.874 435.306 324.459 438.562C324.459 438.562 324.277 431.558 323.059 431.028C323.059 431.028 321.045 432.851 320.748 433.624C320.748 433.624 322.334 437.061 321.352 438.879C321.352 438.879 320.748 434.206 320.25 434.206C320.25 434.206 318.236 437.321 318.044 439.398C318.044 439.398 318.135 436.246 319.766 433.889C318.615 434.115 317.552 434.684 316.71 435.524C316.71 435.524 317.022 433.339 320.234 433.147C320.234 433.147 321.886 430.8 322.329 430.66C322.329 430.66 319.107 430.379 317.153 431.272C317.153 431.272 318.87 429.195 322.918 430.146L325.179 428.245C325.179 428.245 320.939 427.643 319.137 428.308C319.137 428.308 321.211 426.48 325.788 427.788L328.255 426.272C328.255 426.272 324.635 425.467 322.48 425.753C322.48 425.753 324.756 424.486 328.975 425.857L330.737 425.042C330.737 425.042 328.084 424.523 327.308 424.424C326.533 424.325 326.493 424.118 326.493 424.118C328.172 423.829 329.896 424.027 331.472 424.689C331.472 424.689 335.238 423.266 335.173 423.022Z" fill="#FF5555"/>
<path opacity="0.1" d="M320.511 445C328.831 445 335.576 443.824 335.576 442.373C335.576 440.922 328.831 439.746 320.511 439.746C312.191 439.746 305.447 440.922 305.447 442.373C305.447 443.824 312.191 445 320.511 445Z" fill="#FF5555"/>
<path d="M297.88 423.842C297.88 423.842 285.876 423.095 287.306 431.771C287.234 432.211 287.298 432.663 287.49 433.063C287.682 433.463 287.991 433.79 288.374 433.998C288.374 433.998 288.374 433.354 289.607 433.572C290.036 433.644 290.472 433.667 290.906 433.64C291.495 433.595 292.055 433.357 292.502 432.96C292.502 432.96 295.876 431.521 297.19 425.836C297.19 425.836 298.156 424.595 298.121 424.278L296.107 425.166C296.107 425.166 296.797 426.677 296.253 427.928C296.253 427.928 296.188 425.223 295.8 425.286C295.72 425.286 294.748 425.805 294.748 425.805C294.748 425.805 295.936 428.401 295.04 430.338C295.04 430.338 295.377 427.103 294.375 425.992L292.95 426.854C292.95 426.854 294.34 429.564 293.398 431.776C293.398 431.776 293.64 428.38 292.648 427.061L291.359 428.1C291.359 428.1 292.663 430.774 291.863 432.607C291.863 432.607 291.757 428.655 291.072 428.359C290.582 428.786 290.144 429.272 289.768 429.808C289.768 429.808 290.665 431.75 290.111 432.773C290.111 432.773 289.768 430.14 289.491 430.13C289.491 430.13 288.364 431.874 288.248 433.069C288.299 431.961 288.632 430.886 289.215 429.953C288.566 430.08 287.967 430.399 287.493 430.872C287.493 430.872 287.669 429.637 289.507 429.533C289.507 429.533 290.433 428.209 290.685 428.131C290.685 428.131 288.867 427.97 287.764 428.474C287.764 428.474 288.736 427.311 291.017 427.84L292.291 426.765C292.291 426.765 289.899 426.428 288.887 426.802C288.887 426.802 290.055 425.763 292.638 426.521L294.023 425.67C292.956 425.426 291.862 425.328 290.77 425.379C290.77 425.379 292.054 424.668 294.431 425.436L295.438 424.979C295.438 424.979 293.927 424.673 293.509 424.626C293.091 424.58 293.046 424.455 293.046 424.455C293.993 424.292 294.966 424.404 295.856 424.777C295.856 424.777 297.915 423.983 297.88 423.842Z" fill="#FF5555"/>
<path opacity="0.1" d="M289.612 436.236C294.303 436.236 298.106 435.573 298.106 434.756C298.106 433.939 294.303 433.276 289.612 433.276C284.921 433.276 281.118 433.939 281.118 434.756C281.118 435.573 284.921 436.236 289.612 436.236Z" fill="#FF5555"/>
<path d="M320.723 405.457C320.723 405.457 306.237 404.554 307.944 415.026C307.857 415.557 307.934 416.104 308.166 416.587C308.397 417.07 308.771 417.465 309.233 417.716C309.233 417.716 309.233 416.942 310.718 417.197C311.238 417.282 311.765 417.308 312.289 417.274C313.001 417.222 313.677 416.934 314.218 416.454C314.218 416.454 318.291 414.72 319.872 407.851C319.872 407.851 321.045 406.356 321 405.971L318.553 407.046C318.553 407.046 319.389 408.869 318.734 410.379C318.734 410.379 318.653 407.114 318.18 407.191C318.09 407.191 316.911 407.82 316.911 407.82C316.911 407.82 318.351 410.992 317.264 413.292C317.264 413.292 317.677 409.388 316.463 408.048L314.741 409.087C314.741 409.087 316.423 412.358 315.285 415.031C315.285 415.031 315.577 410.935 314.379 409.32L312.818 410.571C312.818 410.571 314.399 413.796 313.437 416.013C313.437 416.013 313.311 411.246 312.481 410.883C312.481 410.883 311.116 412.124 310.91 412.633C310.91 412.633 311.992 414.974 311.318 416.21C311.318 416.21 310.91 413.038 310.572 413.022C310.572 413.022 309.213 415.099 309.062 416.568C309.127 415.235 309.53 413.942 310.23 412.82C309.447 412.973 308.724 413.359 308.151 413.931C308.151 413.931 308.362 412.441 310.567 412.311C310.567 412.311 311.69 410.717 311.992 410.618C311.992 410.618 309.797 410.431 308.468 411.039C308.468 411.039 309.636 409.632 312.395 410.27L313.936 408.978C313.936 408.978 311.046 408.567 309.822 409.019C309.822 409.019 311.232 407.778 314.354 408.682L316.03 407.643C316.03 407.643 313.568 407.124 312.103 407.295C312.103 407.295 313.649 406.433 316.524 407.363L317.722 406.812C317.722 406.812 315.914 406.444 315.386 406.387C314.857 406.33 314.832 406.179 314.832 406.179C315.975 405.983 317.148 406.118 318.22 406.568C318.22 406.568 320.773 405.624 320.723 405.457Z" fill="#FF5555"/>
<path opacity="0.1" d="M310.749 420.416C316.413 420.416 321.005 419.616 321.005 418.63C321.005 417.643 316.413 416.843 310.749 416.843C305.084 416.843 300.493 417.643 300.493 418.63C300.493 419.616 305.084 420.416 310.749 420.416Z" fill="#FF5555"/>
<path d="M547.847 303.563V49.6048H68.8522V288.995C74.9696 294.259 82.3256 298.688 89.9987 302.328C93.7783 304.124 97.6383 305.767 101.579 307.255H542.132L547.847 303.563Z" fill="url(#paint0_linear)"/>
<path d="M546.921 303.667V56.8737H69.8994V289.529C75.9916 294.649 83.3174 298.953 90.9453 302.509C94.7114 304.24 98.558 305.836 102.485 307.297H541.216L546.921 303.667Z" fill="white"/>
<path d="M546.921 50.3265H69.9044V63.3793H546.921V50.3265Z" fill="#5A5773"/>
<path d="M79.4305 60.2277C81.238 60.2277 82.7032 58.7168 82.7032 56.8529C82.7032 54.9891 81.238 53.4781 79.4305 53.4781C77.6231 53.4781 76.1578 54.9891 76.1578 56.8529C76.1578 58.7168 77.6231 60.2277 79.4305 60.2277Z" fill="white"/>
<path d="M88.2416 60.2277C90.049 60.2277 91.5142 58.7168 91.5142 56.8529C91.5142 54.9891 90.049 53.4781 88.2416 53.4781C86.4341 53.4781 84.9689 54.9891 84.9689 56.8529C84.9689 58.7168 86.4341 60.2277 88.2416 60.2277Z" fill="white"/>
<path d="M97.0527 60.2277C98.8602 60.2277 100.325 58.7168 100.325 56.8529C100.325 54.9891 98.8602 53.4781 97.0527 53.4781C95.2453 53.4781 93.78 54.9891 93.78 56.8529C93.78 58.7168 95.2453 60.2277 97.0527 60.2277Z" fill="white"/>
<path d="M270.6 92.0654H191.804V143.124H270.6V92.0654Z" fill="#FF5555"/>
<path opacity="0.2" d="M161.499 92.0654H82.7031V143.124H161.499V92.0654Z" fill="#5A5773"/>
<path opacity="0.2" d="M379.702 92.0654H300.905V143.124H379.702V92.0654Z" fill="#5A5773"/>
<path opacity="0.2" d="M161.499 165.06H82.7031V216.119H161.499V165.06Z" fill="#5A5773"/>
<path opacity="0.2" d="M270.6 165.06H191.804V216.119H270.6V165.06Z" fill="#5A5773"/>
<path opacity="0.2" d="M379.702 165.06H300.905V216.119H379.702V165.06Z" fill="#5A5773"/>
<path opacity="0.2" d="M161.499 238.05H82.7031V289.109H161.499V238.05Z" fill="#5A5773"/>
<path opacity="0.2" d="M270.6 238.05H191.804V289.109H270.6V238.05Z" fill="#5A5773"/>
<path opacity="0.2" d="M379.702 238.05H300.905V289.109H379.702V238.05Z" fill="#5A5773"/>
<path d="M251.292 136.79L245.854 138.773L243.88 135.398C242.37 132.802 240.275 129.251 238.73 126.67C236.001 122.133 239.57 115.217 239.57 115.217C239.57 115.217 240.215 108.275 242.511 106.136C244.807 103.997 245.446 115.217 245.446 115.217C254.665 119.537 249.726 129.697 249.726 129.697L250.622 133.726L251.292 136.79Z" fill="#EFB7B9"/>
<path opacity="0.1" d="M251.292 136.79L245.854 138.773L243.88 135.398V135.102C243.88 135.102 246.997 132.896 250.632 133.726L251.292 136.79Z" fill="black"/>
<path d="M242.511 159.531L245.235 157.153L243.87 135.751C243.87 135.751 250.919 130.777 256.135 138.56C256.135 138.56 255.924 143.316 256.135 144.614C256.347 145.912 254.67 147.21 256.135 148.503C257.6 149.796 256.135 154.126 256.135 154.126C256.135 154.126 257.792 157.153 258.839 158.015C259.886 158.877 260.938 166.016 258.839 167.527C256.739 169.037 252.802 172.501 252.802 174.011C252.802 175.522 247.767 179.204 247.767 179.204L243.347 173.176L242.511 159.531Z" fill="#FF6484"/>
<path d="M183.602 289.446C173.442 285.002 175.698 274.145 177.611 268.678C177.993 267.57 178.442 266.488 178.955 265.438L184.655 261.871C184.655 261.871 185.818 264.929 187.061 269.031C189.946 278.574 193.264 293.678 183.602 289.446Z" fill="#EFB7B9"/>
<path d="M197.569 388.505C196.881 389.888 196.374 391.358 196.059 392.877C195.556 395.322 195.336 397.819 195.404 400.317C195.445 402.046 195.586 403.178 195.586 403.178L184.267 411.205C184.267 411.205 184.333 410.265 184.443 408.884C184.735 405.208 185.345 398.386 185.919 397.503C186.316 396.89 186.593 394.429 186.769 392.145C186.946 389.86 187.016 387.856 187.016 387.856C187.016 387.856 200.635 382.592 197.569 388.505Z" fill="#EFB7B9"/>
<path d="M224.299 394.263C224.299 394.263 224.299 396.496 224.219 399.092C224.138 401.688 223.987 404.751 223.67 406.179C223.378 407.487 223.358 409.891 223.413 412.108C223.489 414.704 223.67 417.041 223.67 417.041C223.67 417.041 212.115 405.774 213.293 404.881C213.61 404.642 213.923 403.682 214.21 402.404C214.562 400.847 214.879 398.77 215.116 397.005C215.398 394.902 215.574 393.209 215.574 393.209L224.299 394.263Z" fill="#EFB7B9"/>
<path opacity="0.1" d="M197.569 388.505C196.881 389.888 196.373 391.358 196.059 392.877C192.961 392.793 189.869 392.549 186.795 392.145C186.966 389.912 187.041 387.856 187.041 387.856C187.041 387.856 200.635 382.592 197.569 388.505Z" fill="black"/>
<path opacity="0.1" d="M224.299 394.263C224.299 394.263 224.299 396.496 224.219 399.092C220.614 400.042 216.908 398.142 215.116 397.015C215.398 394.912 215.574 393.22 215.574 393.22L224.299 394.263Z" fill="black"/>
<path d="M247.959 283.828C243.347 294.213 241.458 306.528 241.458 306.528L239.782 316.912C239.782 316.912 240.623 321.45 239.782 323.179C238.941 324.908 237.264 327.722 237.264 327.722C237.264 327.722 238.523 338.314 237.264 339.394C236.006 340.474 237.264 346.959 237.264 346.959L233.07 368.765L227.2 396.865C221.54 401.626 214.008 395.572 214.008 395.572L215.67 377.197C215.67 377.197 218.187 345.006 217.14 343.688C216.093 342.369 217.558 338.283 217.558 338.283C217.558 338.283 219.028 334.389 217.981 332.878C216.933 331.367 218.187 328.122 218.187 328.122C218.187 328.122 217.769 314.934 219.028 311.907C220.287 308.88 219.028 290.158 219.028 290.158L218.524 284.327L218.232 281.097L218.207 280.781C218.207 280.781 218.016 282.074 217.704 284.078C216.777 290.178 214.804 302.821 214.023 305.422C213.493 307.297 212.772 309.108 211.873 310.827C211.873 310.827 212.961 317.312 211.873 319.041C210.786 320.77 211.707 322.717 211.707 322.717C211.707 322.717 212.754 328.122 209.608 330.282C206.461 332.442 209.608 333.527 209.608 333.527C209.608 333.527 207.302 338.719 206.466 340.873C205.63 343.028 206.466 346.066 206.466 346.066L204.789 363.573C204.789 363.573 203.319 370.92 203.531 375.894C203.742 380.868 201.642 392.322 201.642 392.322C201.642 392.322 185.501 392.322 183.013 390.374C180.526 388.427 187.167 369.435 187.167 369.435C187.167 369.435 189.055 336.144 188.632 335.282C188.209 334.42 188.632 327.93 190.102 326.637C191.573 325.344 190.102 322.743 190.102 322.743C190.102 322.743 189.685 317.551 190.102 316.258C190.52 314.965 190.037 310.635 190.037 310.635C190.037 310.635 188.632 300.043 188.426 293.989C188.219 287.935 187.167 274.322 187.167 274.322C187.167 274.322 188.265 265.9 188.431 261.892C188.491 260.417 189.131 258.574 189.941 256.84C190.849 254.882 191.892 252.994 193.063 251.191C193.063 251.191 242.732 236.051 244.817 237.557C245.371 237.957 246.176 240.672 246.972 244.603C249.187 255.584 251.352 276.196 247.959 283.828Z" fill="#444053"/>
<path d="M217.356 151.706C225.345 151.706 231.822 145.028 231.822 136.79C231.822 128.551 225.345 121.873 217.356 121.873C209.367 121.873 202.891 128.551 202.891 136.79C202.891 145.028 209.367 151.706 217.356 151.706Z" fill="#A1616A"/>
<path opacity="0.1" d="M246.972 244.613C245.305 245.496 244.187 246.103 244.187 246.103C244.187 246.103 220.71 257.562 214.033 256.913C208.867 256.394 195.681 256.69 189.936 256.835C190.844 254.877 191.887 252.989 193.058 251.186C193.058 251.186 242.732 236.051 244.817 237.557C245.37 237.967 246.176 240.672 246.972 244.613Z" fill="black"/>
<path d="M207.292 160.611C207.292 160.611 193.894 162.791 190.732 164.931C187.57 167.07 181.307 171.203 181.307 180.065C181.307 188.928 179.841 198.009 179.001 200.6C178.16 203.191 192.207 224.161 192.207 224.161L187.172 255.942C187.172 255.942 207.312 255.293 214.018 255.942C220.725 256.591 244.192 245.132 244.192 245.132C244.192 245.132 258.028 237.567 260.964 237.344C263.899 237.121 255.093 220.698 255.093 220.698C255.093 220.698 241.463 194.115 243.769 189.79C246.075 185.465 247.767 179.198 247.767 179.198L245.25 157.153C245.25 157.153 241.479 155.855 238.332 158.233C235.185 160.611 224.496 159.313 224.496 159.313L207.292 160.611Z" fill="#FF6484"/>
<path opacity="0.1" d="M184.549 199.089L179.293 200.6L177.837 220.942C177.837 220.942 179.726 226.347 177.837 228.076C175.949 229.805 175.531 266.773 175.531 266.773C175.531 266.773 181.614 271.31 188.738 267.853C188.738 267.853 187.691 263.746 190.838 248.829C193.984 233.912 193.979 226.347 193.979 226.347C193.979 226.347 193.979 207.755 195.45 204.728C196.92 201.701 195.45 194.136 195.45 194.136C195.45 194.136 192.514 190.029 192.721 188.518C192.927 187.007 184.549 199.089 184.549 199.089Z" fill="black"/>
<path opacity="0.1" d="M187.061 269.047C183.975 270.119 180.615 269.993 177.611 268.694C177.993 267.586 178.442 266.504 178.955 265.454L184.655 261.887C184.655 261.887 185.838 264.945 187.061 269.047Z" fill="black"/>
<path d="M184.232 199.089L178.99 200.6L177.525 220.942C177.525 220.942 179.413 226.347 177.525 228.076C175.637 229.805 175.219 266.773 175.219 266.773C175.219 266.773 181.307 271.305 188.426 267.832C188.426 267.832 187.379 263.725 190.52 248.808C193.662 233.891 193.667 226.327 193.667 226.327C193.667 226.327 193.667 207.734 195.132 204.707C196.598 201.68 195.132 194.115 195.132 194.115C195.132 194.115 192.197 190.008 192.408 188.497C192.62 186.986 184.232 199.089 184.232 199.089Z" fill="#FF6484"/>
<path opacity="0.1" d="M237.899 202.329C237.899 202.329 235.175 226.539 227.205 231.082C227.205 231.082 245.023 225.896 237.899 202.329Z" fill="black"/>
<path opacity="0.1" d="M197.861 204.494C197.861 204.494 207.71 209.463 205.414 212.921C203.118 216.379 197.861 204.494 197.861 204.494Z" fill="black"/>
<path opacity="0.1" d="M197.861 214.437C197.861 214.437 204.15 221.14 202.896 223.518C201.643 225.896 197.861 214.437 197.861 214.437Z" fill="black"/>
<path opacity="0.1" d="M248.588 158.882C248.588 158.882 251.055 163.202 251.292 166.016C251.528 168.83 248.588 158.882 248.588 158.882Z" fill="black"/>
<path opacity="0.1" d="M248.588 153.046C248.588 153.046 249.826 151.961 252.988 153.046C256.15 154.131 248.588 153.046 248.588 153.046Z" fill="black"/>
<path opacity="0.1" d="M236.484 279.394C231.29 280.154 225.993 279.455 221.153 277.37L218.509 284.348L218.217 281.118C218.65 278.408 219.491 275.506 221.153 274.773C221.153 274.773 226.973 279.555 236.484 279.394Z" fill="black"/>
<path opacity="0.1" d="M193.481 288.475C193.481 288.475 206.375 291.232 209.99 290.744L193.481 288.475Z" fill="black"/>
<path opacity="0.1" d="M194.82 291.959C194.82 291.959 200.323 291.715 203.072 292.852L194.82 291.959Z" fill="black"/>
<path opacity="0.1" d="M195.45 294.311C197.96 294.861 200.509 295.208 203.072 295.35L195.45 294.311Z" fill="black"/>
<path opacity="0.1" d="M195.132 324.062C195.369 323.901 206.139 321.305 207.478 323.169L195.132 324.062Z" fill="black"/>
<path opacity="0.1" d="M195.132 327.468C195.132 327.468 204.487 326.331 204.724 327.468C204.96 328.605 195.132 327.468 195.132 327.468Z" fill="black"/>
<path opacity="0.1" d="M195.132 330.546C195.132 330.546 205.117 328.418 206.295 328.937C207.473 329.456 195.132 330.546 195.132 330.546Z" fill="black"/>
<path opacity="0.1" d="M195.606 403.183L184.287 411.21C184.287 411.21 184.353 410.27 184.463 408.889C186.981 402.503 190.258 399.133 190.258 399.133C192.811 398.448 194.422 399.082 195.424 400.322C195.465 402.046 195.606 403.183 195.606 403.183Z" fill="black"/>
<path d="M196.708 410.395C195.109 414.158 194.304 418.228 194.347 422.337C194.411 425.705 193.582 429.028 191.95 431.947C191.714 432.358 191.448 432.751 191.155 433.121C191.155 433.121 183.29 433.053 180.536 430.701C180.227 430.449 179.974 430.13 179.796 429.767C178.22 426.527 182.862 414.123 182.862 414.123C185.299 404.559 190.248 399.45 190.248 399.45C199.065 397.098 196.708 410.395 196.708 410.395Z" fill="#444053"/>
<path opacity="0.1" d="M191.95 431.921C191.714 432.332 191.448 432.725 191.155 433.095C191.155 433.095 183.29 433.027 180.536 430.675C181.891 426.054 186.21 412.072 188.234 414.45C190.138 416.683 191.462 427.425 191.95 431.921Z" fill="black"/>
<path d="M190.873 415.317L190.324 436.262H192.962C192.962 436.262 193.39 417.887 194.568 415.317C195.747 412.747 190.873 415.317 190.873 415.317Z" fill="#444053"/>
<path opacity="0.1" d="M223.67 417.041C223.67 417.041 212.115 405.774 213.293 404.881C213.61 404.642 213.923 403.682 214.21 402.404C216.43 402.005 220.251 402.96 223.413 412.108C223.489 414.704 223.67 417.041 223.67 417.041Z" fill="black"/>
<path d="M225.397 429.606C225.308 429.645 225.215 429.673 225.12 429.689C223.761 429.933 218.751 429.792 215.947 429.689C215.433 429.671 214.946 429.449 214.588 429.068C214.23 428.687 214.029 428.178 214.028 427.648C214.028 426.869 214.028 425.919 213.968 424.907C213.837 421.708 213.464 417.903 212.352 417.046C210.383 415.488 208.827 410.203 212.352 403.51C212.352 403.51 219.108 398.188 223.982 414.185C223.982 414.185 224.456 418.749 226.575 420.369C228.695 421.989 226.344 429.143 225.397 429.606Z" fill="#444053"/>
<path opacity="0.1" d="M225.11 429.689C223.751 429.933 218.741 429.792 215.936 429.689C215.423 429.671 214.935 429.449 214.578 429.068C214.22 428.687 214.019 428.178 214.018 427.648C214.018 426.869 214.018 425.919 213.958 424.907C214.809 421.033 216.032 417.046 217.608 416.137C217.618 416.132 222.386 415.577 225.11 429.689Z" fill="black"/>
<path d="M213.208 415.665L214.476 433.095H216.088V414.18L213.208 415.665Z" fill="#444053"/>
<path opacity="0.1" d="M217.145 113.02C212.578 113.371 208.156 114.836 204.245 117.294C203.238 117.922 202.232 118.685 201.814 119.812C201.451 120.788 201.602 121.888 201.617 122.927C201.753 131.868 192.086 138.633 192.388 147.568C192.509 151.115 194.236 154.417 194.553 157.952C195.082 163.851 191.699 169.276 188.456 174.162C191.797 174.372 195.087 173.247 197.645 171.021C201.066 182.781 201.508 195.249 198.929 207.235H203.566C204.024 207.201 204.484 207.259 204.92 207.407C205.327 207.606 205.692 207.887 205.993 208.232C210.328 212.682 213.233 219.26 211.576 225.335L221.445 221.519C223.806 220.605 226.203 219.676 228.257 218.17C230.311 216.664 232.033 214.478 232.466 211.913C232.733 210.356 232.647 208.497 233.891 207.594C234.504 207.258 235.157 207.008 235.834 206.851C238.543 205.865 239.741 202.635 240.295 199.728C240.97 196.16 241.181 192.517 240.925 188.892C240.487 182.817 238.745 176.649 240.18 170.72C240.99 167.392 242.793 164.292 242.939 160.855C243.175 155.19 238.881 150.31 238.241 144.676C237.793 140.751 239.168 136.779 238.719 132.854C238.471 130.828 237.752 128.894 236.624 127.216C235.496 125.537 233.992 124.164 232.239 123.212C231.026 122.569 229.722 122.138 228.524 121.426C225.79 119.791 224.043 116.847 221.56 114.822C219.078 112.797 214.945 112.034 213.077 114.666L217.145 113.02Z" fill="black"/>
<path d="M217.145 112.371C212.578 112.722 208.156 114.187 204.245 116.645C203.238 117.273 202.232 118.036 201.814 119.163C201.451 120.139 201.602 121.239 201.617 122.278C201.753 131.219 192.086 137.984 192.388 146.925C192.509 150.466 194.236 153.768 194.553 157.309C195.082 163.207 191.699 168.633 188.456 173.523C191.796 173.726 195.084 172.602 197.645 170.382C201.066 182.139 201.508 194.603 198.929 206.586H203.566C204.024 206.554 204.484 206.614 204.92 206.763C205.328 206.958 205.693 207.238 205.993 207.583C210.328 212.038 213.233 218.611 211.576 224.686L221.445 220.87C223.806 219.956 226.203 219.027 228.257 217.521C230.311 216.015 232.033 213.829 232.466 211.264C232.733 209.707 232.647 207.848 233.891 206.945C234.504 206.609 235.157 206.359 235.834 206.202C238.543 205.216 239.741 201.986 240.295 199.079C240.976 195.509 241.192 191.861 240.94 188.232C240.502 182.158 238.76 175.99 240.195 170.06C241.005 166.732 242.808 163.633 242.954 160.195C243.19 154.531 238.896 149.65 238.256 144.017C237.808 140.092 239.183 136.125 238.735 132.195C238.485 130.169 237.766 128.235 236.638 126.557C235.51 124.879 234.006 123.505 232.255 122.553C231.041 121.909 229.737 121.478 228.539 120.772C225.805 119.132 224.058 116.188 221.576 114.163C219.093 112.138 214.96 111.375 213.092 114.007L217.145 112.371Z" fill="#925978"/>
<g opacity="0.1">
<path opacity="0.1" d="M201.607 120.118C201.587 120.318 201.577 120.519 201.577 120.72C201.592 120.523 201.602 120.321 201.607 120.118Z" fill="black"/>
<path opacity="0.1" d="M238.201 140.902C238.382 138.15 238.976 135.388 238.755 132.646C238.588 135.398 237.994 138.16 238.201 140.902Z" fill="black"/>
<path opacity="0.1" d="M194.553 154.583C194.261 151.364 192.806 148.352 192.464 145.139C192.396 145.728 192.37 146.321 192.388 146.914C192.509 150.419 194.196 153.695 194.538 157.184C194.621 156.319 194.626 155.449 194.553 154.583Z" fill="black"/>
<path opacity="0.1" d="M240.215 167.371C239.743 169.484 239.574 171.656 239.711 173.819C239.761 172.558 239.93 171.304 240.215 170.076C241.025 166.748 242.828 163.648 242.974 160.211C242.998 159.601 242.971 158.989 242.893 158.383C242.501 161.473 240.935 164.349 240.215 167.371Z" fill="black"/>
<path opacity="0.1" d="M197.645 167.651C195.545 169.466 192.945 170.556 190.213 170.766C189.639 171.691 189.045 172.594 188.456 173.487C191.796 173.689 195.084 172.565 197.645 170.346C199.484 176.657 200.47 183.201 200.575 189.79C200.724 182.298 199.736 174.828 197.645 167.651Z" fill="black"/>
<path opacity="0.1" d="M240.31 196.358C239.757 199.266 238.558 202.495 235.849 203.476C235.171 203.632 234.517 203.884 233.906 204.224C232.662 205.127 232.748 206.997 232.481 208.544C232.048 211.109 230.331 213.289 228.272 214.774C226.213 216.259 223.821 217.214 221.46 218.128L212.044 221.763C211.996 222.737 211.844 223.704 211.591 224.644L221.46 220.828C223.821 219.914 226.218 218.985 228.272 217.479C230.326 215.974 232.048 213.788 232.481 211.223C232.748 209.665 232.662 207.806 233.906 206.903C234.519 206.567 235.172 206.317 235.849 206.161C238.558 205.174 239.757 201.945 240.31 199.037C240.884 196.011 241.122 192.928 241.02 189.847C240.954 192.034 240.716 194.211 240.31 196.358Z" fill="black"/>
<path opacity="0.1" d="M206.008 204.847C205.708 204.5 205.343 204.219 204.935 204.022C204.499 203.874 204.039 203.814 203.581 203.845H199.467C199.306 204.748 199.135 205.652 198.964 206.55H203.601C204.059 206.517 204.519 206.577 204.955 206.727C205.363 206.922 205.728 207.201 206.028 207.547C209.2 210.808 211.601 215.2 212.014 219.707C212.523 214.317 209.814 208.772 206.008 204.847Z" fill="black"/>
</g>
<path opacity="0.1" d="M183.003 222.542C183.003 222.542 186.749 220.922 187.585 222.542C188.421 224.161 183.003 222.542 183.003 222.542Z" fill="black"/>
<path opacity="0.1" d="M184.328 225.319C184.328 225.319 188.073 223.699 188.914 225.319C189.755 226.939 184.328 225.319 184.328 225.319Z" fill="black"/>
<path opacity="0.1" d="M416.492 15.6904C416.492 15.6904 397.334 14.5014 399.594 28.3434C399.594 28.3434 399.146 30.7888 401.296 31.8999C401.296 31.8999 401.332 30.8615 403.26 31.2198C403.947 31.339 404.645 31.3738 405.339 31.3236C406.277 31.2567 407.168 30.8756 407.877 30.2385C407.877 30.2385 413.259 27.9488 415.354 18.8731C415.354 18.8731 416.904 16.8897 416.864 16.3809L413.632 17.8087C413.632 17.8087 414.734 20.2126 413.863 22.2116C413.863 22.2116 413.763 17.8918 413.138 17.9956C413.012 17.9956 411.462 18.8264 411.462 18.8264C411.462 18.8264 413.36 23.0164 411.925 26.0641C411.925 26.0641 412.469 20.9032 410.868 19.1327L408.582 20.5294C408.582 20.5294 410.802 24.8543 409.297 28.3849C409.297 28.3849 409.684 22.9696 408.103 20.8617L406.039 22.5179C406.039 22.5179 408.129 26.7598 406.87 29.6881C406.87 29.6881 406.704 23.3798 405.606 22.9073C405.606 22.9073 403.804 24.548 403.532 25.223C403.532 25.223 404.957 28.3382 404.071 29.9477C404.071 29.9477 403.527 25.7526 403.064 25.7318C403.064 25.7318 401.266 28.5147 401.08 30.4046C401.167 28.6412 401.7 26.9319 402.625 25.4462C401.589 25.6486 400.632 26.1615 399.876 26.9208C399.876 26.9208 400.153 24.953 403.069 24.7765C403.069 24.7765 404.554 22.6685 404.952 22.5387C404.952 22.5387 402.052 22.2895 400.294 23.0942C400.294 23.0942 401.84 21.2355 405.485 22.0558L407.499 20.3424C407.499 20.3424 403.683 19.8232 402.062 20.3996C402.062 20.3996 403.925 18.7589 408.048 19.953L410.263 18.5875C410.263 18.5875 407.011 17.8606 405.072 18.1254C405.072 18.1254 407.117 16.9884 410.913 18.2189L412.499 17.4868C412.499 17.4868 410.112 17.004 409.418 16.9261C408.723 16.8482 408.682 16.6509 408.682 16.6509C410.192 16.3918 411.742 16.5716 413.158 17.1701C413.158 17.1701 416.547 15.9084 416.492 15.6904Z" fill="#FF5555"/>
<path opacity="0.1" d="M389.187 4.46516C389.187 4.46516 373.076 15.2179 382.848 24.9841C382.848 24.9841 383.891 27.2271 386.262 26.8117C386.262 26.8117 385.698 25.9602 387.455 25.062C388.078 24.7386 388.661 24.3394 389.192 23.873C389.91 23.2456 390.41 22.3946 390.617 21.4483C390.617 21.4483 393.638 16.3082 390.114 7.72058C390.114 7.72058 390.224 5.17647 389.882 4.80265L388.1 7.91788C388.1 7.91788 390.37 9.17954 390.819 11.3187C390.819 11.3187 388.256 7.90749 387.798 8.36958C387.707 8.46304 386.922 10.0674 386.922 10.0674C386.922 10.0674 390.864 12.2792 391.453 15.6073C391.453 15.6073 388.935 11.1162 386.614 10.6749L385.567 13.167C385.567 13.167 389.847 15.2958 390.662 19.06C390.662 19.06 387.858 14.4599 385.376 13.7278L384.671 16.3238C384.671 16.3238 388.8 18.4837 389.459 21.6197C389.459 21.6197 385.703 16.6457 384.545 16.9468C384.545 16.9468 384.042 19.3663 384.203 20.0621C384.203 20.0621 387.133 21.682 387.355 23.5407C387.355 23.5407 384.505 20.493 384.137 20.7474C384.137 20.7474 384.288 24.0859 385.23 25.737C384.288 24.2628 383.737 22.5609 383.629 20.7993C382.91 21.5958 382.434 22.5923 382.259 23.6654C382.259 23.6654 381.353 21.9104 383.604 19.9894C383.604 19.9894 383.604 17.3934 383.83 17.0351C383.83 17.0351 381.353 18.5927 380.396 20.3269C380.396 20.3269 380.578 17.8866 383.996 16.3394L384.651 13.7174C384.651 13.7174 381.267 15.6177 380.306 17.087C380.306 17.087 380.865 14.626 384.867 13.0684L385.874 10.6125C385.874 10.6125 382.853 12.0196 381.423 13.4163C381.423 13.4163 382.43 11.246 386.186 9.92201L387.042 8.36439C387.042 8.36439 384.842 9.43395 384.238 9.7974C383.634 10.1608 383.488 10.0258 383.488 10.0258C384.555 8.89404 385.906 8.09049 387.39 7.705C387.39 7.705 389.358 4.61054 389.187 4.46516Z" fill="#FF5555"/>
<path opacity="0.1" d="M364.667 16.9936C364.667 16.9936 355.036 34.1273 368.041 38.2446C368.041 38.2446 369.959 39.7555 371.887 38.2446C371.887 38.2446 371.016 37.7566 372.184 36.1315C372.59 35.5514 372.928 34.924 373.191 34.2623C373.555 33.367 373.628 32.3741 373.398 31.4327C373.398 31.4327 373.826 25.441 366.903 19.4338C366.903 19.4338 365.896 17.1182 365.392 16.9468L365.176 20.5813C365.176 20.5813 367.754 20.6436 369.098 22.3414C369.098 22.3414 365.312 20.4982 365.121 21.1161C365.08 21.2407 365.085 23.0371 365.085 23.0371C365.085 23.0371 369.612 23.1773 371.626 25.8668C371.626 25.8668 367.396 23.0475 365.146 23.7329L365.307 26.4431C365.307 26.4431 370.055 26.3393 372.436 29.3143C372.436 29.3143 367.905 26.5262 365.387 27.035L365.891 29.6777C365.891 29.6777 370.523 29.6777 372.487 32.1595C372.487 32.1595 366.948 29.4804 366.047 30.2748C366.047 30.2748 366.656 32.6736 367.119 33.2291C367.119 33.2291 370.442 33.3018 371.459 34.8542C371.459 34.8542 367.578 33.4679 367.361 33.8729C367.361 33.8729 368.967 36.7753 370.533 37.8033C369.047 36.9348 367.807 35.6822 366.933 34.1689C366.643 35.2144 366.657 36.3246 366.973 37.362C366.973 37.362 365.392 36.2249 366.55 33.4576C366.55 33.4576 365.392 31.1419 365.458 30.7213C365.458 30.7213 363.947 33.281 363.847 35.2592C363.847 35.2592 362.93 33.0007 365.297 30.0256L364.728 27.3777C364.728 27.3777 362.548 30.6539 362.336 32.414C362.336 32.414 361.752 29.9581 364.637 26.7027L364.446 24.0496C364.446 24.0496 362.361 26.7235 361.717 28.629C361.717 28.629 361.646 26.2302 364.421 23.2863L364.496 21.4951C364.496 21.4951 362.986 23.4733 362.628 24.0911C362.271 24.709 362.059 24.6207 362.059 24.6207C362.513 23.1117 363.364 21.762 364.516 20.7215C364.516 20.7215 364.879 17.0403 364.667 16.9936Z" fill="#FF5555"/>
<path d="M447.366 212.308C445.941 212.308 444.548 212.744 443.363 213.56C442.178 214.377 441.254 215.537 440.709 216.895C440.164 218.252 440.021 219.746 440.299 221.187C440.577 222.629 441.263 223.952 442.271 224.992C443.279 226.031 444.562 226.738 445.96 227.025C447.358 227.312 448.806 227.164 450.123 226.602C451.439 226.04 452.565 225.087 453.356 223.866C454.148 222.644 454.57 221.207 454.57 219.738C454.565 217.769 453.804 215.882 452.454 214.49C451.104 213.098 449.275 212.313 447.366 212.308ZM426.3 154.007V161.436H433.504L446.474 188.528L441.052 197.63C440.46 198.707 440.149 199.923 440.151 201.161C440.151 206.135 443.448 208.59 447.919 208.59H490.046V201.446H448.801C448.68 201.454 448.56 201.435 448.447 201.391C448.334 201.347 448.232 201.279 448.147 201.191C448.062 201.103 447.996 200.997 447.953 200.881C447.91 200.765 447.892 200.641 447.899 200.517C447.994 200.196 448.123 199.886 448.282 199.593L451.882 193.731H478.723C480.02 193.742 481.294 193.384 482.407 192.696C483.519 192.008 484.425 191.017 485.027 189.832L498.002 166.826C498.254 166.241 498.378 165.607 498.364 164.967C498.359 164.489 498.261 164.017 498.076 163.578C497.891 163.14 497.622 162.745 497.286 162.415C496.949 162.086 496.553 161.83 496.119 161.662C495.685 161.493 495.222 161.417 494.759 161.436H441.434L438.011 154.007H426.3ZM482.836 212.308C481.412 212.309 480.019 212.746 478.835 213.563C477.651 214.38 476.728 215.54 476.184 216.898C475.639 218.256 475.497 219.75 475.776 221.19C476.054 222.631 476.741 223.955 477.749 224.993C478.756 226.032 480.04 226.739 481.438 227.025C482.835 227.312 484.284 227.164 485.6 226.602C486.916 226.039 488.041 225.087 488.832 223.865C489.624 222.643 490.046 221.207 490.046 219.738C490.041 217.768 489.28 215.881 487.928 214.488C486.577 213.096 484.747 212.312 482.836 212.308Z" fill="#FF5555"/>
<path d="M473.617 174.562H467.576V168.331H463.044V174.562H457.002V179.235H463.044V185.465H467.576V179.235H473.617V174.562Z" fill="white"/>
</g>
<defs>
<linearGradient id="paint0_linear" x1="308.347" y1="307.255" x2="308.347" y2="49.6048" gradientUnits="userSpaceOnUse">
<stop stop-color="#808080" stop-opacity="0.25"/>
<stop offset="0.54" stop-color="#808080" stop-opacity="0.12"/>
<stop offset="1" stop-color="#808080" stop-opacity="0.1"/>
</linearGradient>
<clipPath id="clip0">
<rect width="562" height="445" fill="white"/>
</clipPath>
</defs>
</svg>
