<svg width="560" height="428" viewBox="0 0 560 428" fill="none" xmlns="http://www.w3.org/2000/svg">
<g clip-path="url(#clip0)">
<path opacity="0.1" d="M552.875 123.46C552.778 123.919 552.686 124.379 552.578 124.834C549.213 140.459 543.715 155.517 535.539 169.345C535.267 169.804 534.995 170.264 534.718 170.724C529.327 179.621 522.876 187.82 515.509 195.141C511.436 199.191 506.994 203.039 501.711 205.813C494.31 209.708 485.657 211.288 477.152 212.58C468.32 213.928 459.364 215.054 450.434 216.268C447.261 216.691 444.107 217.141 440.971 217.616C432.343 218.902 423.778 220.39 415.417 222.363C405.082 224.796 395.064 227.983 385.601 232.467C384.845 232.811 384.098 233.176 383.359 233.562C382.621 233.934 381.877 234.311 381.149 234.693C380.42 235.075 379.702 235.457 378.989 235.85C378.62 236.051 378.251 236.253 377.886 236.465C377.522 236.676 377.163 236.862 376.809 237.069C375.742 237.668 374.696 238.283 373.65 238.903L373.609 238.929C372.916 239.337 372.234 239.755 371.557 240.173C367.689 242.539 363.904 245.008 360.119 247.493L357.739 249.043L354.051 251.444C353.333 251.915 352.599 252.385 351.876 252.849C351.363 253.19 350.85 253.531 350.291 253.883C347.603 255.587 344.88 257.261 342.084 258.857C341.423 259.239 340.756 259.621 340.084 259.993C334.436 263.166 328.53 265.848 322.429 268.01L322.347 268.041C319.278 269.119 316.147 270.009 312.971 270.706C311.14 271.109 309.303 271.44 307.447 271.693C302.483 272.402 297.45 272.473 292.469 271.905C282.688 270.763 273.522 266.982 263.745 265.706C243.618 263.124 224.071 271.445 205.144 277.964C200.49 279.565 195.802 281.065 191.08 282.463C187.94 283.398 184.791 284.281 181.616 285.134C162.164 290.309 142.311 293.815 122.271 295.614C113.893 296.441 105.466 296.629 97.0606 296.177C93.8651 295.981 90.7054 295.661 87.6023 295.144C76.9847 293.491 67.0853 290.025 59.094 283.677C52.5491 278.465 47.8661 271.672 44.3012 264.565C40.6521 257.312 38.0756 249.561 36.6535 241.558C36.4586 240.468 36.2842 239.373 36.1406 238.278C35.8842 236.404 35.6927 234.521 35.5661 232.627C34.876 222.531 36.073 212.395 39.0951 202.744C42.4804 191.938 48.1225 181.566 50.6051 170.677C50.7077 170.216 50.8051 169.756 50.8974 169.298C51.2365 167.644 51.4882 165.973 51.6514 164.293C52.9184 150.914 48.061 137.871 44.2499 124.787C44.1166 124.333 43.9832 123.873 43.855 123.413C43.4447 121.96 43.0514 120.509 42.6753 119.059C39.1463 105.226 38.1667 90.4163 41.3109 76.609C41.4083 76.1493 41.5263 75.6895 41.6392 75.235C43.7441 66.5072 47.7024 58.3426 53.2415 51.3034C59.1299 43.8651 66.8596 37.6717 75.1177 32.2325C79.1424 29.5809 83.304 27.1032 87.6023 24.7994C90.6798 23.1464 93.8326 21.5813 97.0606 20.104C122.938 8.22341 152.456 2.42259 181.647 3.70363C183.186 3.77078 184.724 3.85342 186.263 3.96706C187.802 4.0807 189.484 4.21501 191.095 4.36481C209.899 6.20371 228.195 10.6408 246.362 15.4912C252.451 17.1183 258.529 18.7868 264.602 20.4242C267.305 21.1474 270.003 21.8706 272.706 22.5731C285.945 26.0184 299.378 29.1384 312.981 31.468C316.13 32.0155 319.283 32.5149 322.439 32.966C333.398 34.5879 344.445 35.5315 355.518 35.7915C359.823 35.8776 364.13 35.8397 368.438 35.6778C370.613 35.5986 372.79 35.4798 374.968 35.3214C397.46 33.7253 419.197 28.3842 440.971 23.3944C444.12 22.6712 447.275 21.9584 450.434 21.2559C454.579 20.3364 458.723 19.448 462.888 18.6267C488.806 13.4973 511.908 16.4468 536.005 27.0309C541.483 29.4328 546.956 32.3358 550.311 36.8452C553.665 41.3547 554.507 46.8921 555.132 52.2383C556.02 59.8522 556.599 67.5643 556.82 75.3176C556.82 75.7722 556.82 76.2319 556.851 76.6916C557.199 92.3533 556.04 108.165 552.875 123.46Z" fill="#FF5555"/>
<path opacity="0.1" d="M380.954 169.345H379.261V169.954V170.724H381.179L380.954 169.345ZM361.755 169.345C361.752 169.356 361.752 169.369 361.755 169.381C361.709 169.758 361.657 170.135 361.606 170.517V170.62V170.724H376.276V170.641L377.302 169.345H361.755ZM322.439 169.345V124.834H339.314C339.135 124.715 338.95 124.591 338.761 124.477L338.514 124.317L338.196 124.121C338.012 124.012 337.827 123.904 337.632 123.801C337.437 123.697 337.319 123.625 337.155 123.537L337.042 123.475H337.017H322.439V121.022L322.044 121.177L321.629 121.373H321.598L321.511 121.419L321.249 121.559L320.988 121.698C320.731 121.838 320.475 121.993 320.218 122.153L319.972 122.318L319.459 122.649C318.798 123.093 318.146 123.558 317.474 123.992C317.305 124.1 317.136 124.209 316.961 124.307C316.597 124.524 316.223 124.73 315.838 124.916C315.674 124.999 315.515 125.071 315.325 125.139L315.048 125.247L314.792 125.335C314.19 125.546 313.572 125.708 312.945 125.82V169.334H287.643C287.643 169.386 287.678 169.427 287.694 169.479C287.832 169.892 287.971 170.3 288.104 170.713H312.981V218.422C313.111 218.422 313.239 218.422 313.366 218.422L313.812 218.447L314.617 218.494L315.905 218.649L316.494 218.706L317.136 218.773H317.233L318.367 218.912L318.608 218.943L319.157 219.021L319.941 219.134L321.824 219.052L322.08 219.098C322.183 219.098 322.291 219.129 322.398 219.15V170.724H361.555V170.62V170.517C361.606 170.135 361.657 169.758 361.704 169.381C361.701 169.369 361.701 169.356 361.704 169.345H322.439ZM380.954 169.345H379.261V169.954V170.724H381.179L380.954 169.345ZM360.698 169.345C360.637 169.804 360.58 170.264 360.519 170.724H376.876L377.989 169.345H360.698ZM322.439 169.345V124.834H339.314C339.135 124.715 338.95 124.591 338.761 124.477L338.514 124.317L338.196 124.121C338.012 124.012 337.827 123.904 337.632 123.801C337.437 123.697 337.319 123.625 337.155 123.537L337.042 123.475H337.006H322.439V121.022L322.044 121.177L321.629 121.373H321.598L321.511 121.419L321.249 121.559L320.988 121.698C320.731 121.838 320.475 121.993 320.218 122.153L319.972 122.318L319.459 122.649C318.798 123.093 318.146 123.558 317.474 123.992C317.305 124.1 317.136 124.209 316.961 124.307C316.597 124.524 316.223 124.73 315.838 124.916C315.674 124.999 315.515 125.071 315.325 125.139L315.048 125.247L314.792 125.335C314.19 125.546 313.572 125.708 312.945 125.82V169.334H287.643C287.643 169.386 287.678 169.427 287.694 169.479C287.832 169.887 287.976 170.3 288.109 170.713H312.981V218.416H313.366L313.812 218.442L314.617 218.489L315.905 218.649L316.494 218.706L317.136 218.773H317.233L318.367 218.912L318.608 218.943L319.157 219.021L319.941 219.134L321.824 219.052L322.08 219.098C322.183 219.098 322.291 219.129 322.398 219.15V170.724H360.529C360.591 170.264 360.647 169.804 360.708 169.345H322.439ZM450.434 76.6555H556.851C556.851 76.1958 556.851 75.736 556.82 75.2815H450.434V21.2404C447.275 21.9291 444.12 22.6419 440.971 23.3789V75.2815H325.235L324.942 75.018L325.383 74.6255L368.433 35.6675C364.125 35.8328 359.818 35.8707 355.513 35.7812L322.434 65.7099V32.966C319.275 32.5149 316.122 32.0155 312.976 31.468V64.2015L264.612 20.4242C258.539 18.7868 252.461 17.1183 246.373 15.4912L312.145 75.018L311.853 75.2815H191.11V4.4113C189.5 4.25978 187.889 4.1272 186.279 4.01356C184.74 3.89992 183.201 3.81727 181.662 3.75012V75.2815H97.0605V20.1505C93.8667 21.6243 90.714 23.1895 87.6022 24.8459V75.2815H41.6391C41.5263 75.736 41.4083 76.1958 41.3109 76.6555H87.6022V123.46H43.855C43.9832 123.919 44.1166 124.379 44.2499 124.834H87.6022V169.345H50.8974C50.8051 169.803 50.7076 170.262 50.605 170.724H87.6022V295.175C90.6798 295.656 93.865 295.991 97.0605 296.208V170.724H181.647V285.154C184.822 284.302 187.971 283.419 191.11 282.484V170.724H312.981V270.701C316.157 270.004 319.288 269.114 322.357 268.036L322.439 268.005V170.724H440.971V217.616C444.117 217.151 447.271 216.705 450.434 216.278V170.724H534.718C534.995 170.264 535.267 169.804 535.539 169.345H450.434V124.834H552.578C552.686 124.379 552.778 123.919 552.875 123.46H450.434V76.6555ZM97.0605 76.6555H181.647V123.46H97.0605V76.6555ZM97.0605 169.345V124.834H181.647V169.345H97.0605ZM191.11 76.6555H312.981V123.46H191.11V76.6555ZM191.11 169.345V124.834H312.981V169.345H191.11ZM440.971 169.345H322.439V124.834H440.971V169.345ZM440.971 123.46H322.439V77.9107L324.101 76.6555H440.971V123.46ZM361.755 169.345C361.752 169.356 361.752 169.369 361.755 169.381C361.709 169.758 361.657 170.135 361.606 170.517V170.62V170.724H376.276V170.641L377.302 169.345H361.755ZM380.954 169.345H379.261V169.954V170.724H381.179L380.954 169.345ZM322.439 169.345V124.834H339.314C339.135 124.715 338.95 124.591 338.761 124.477L338.514 124.317L338.196 124.121C338.012 124.012 337.827 123.904 337.632 123.801C337.437 123.697 337.319 123.625 337.155 123.537L337.042 123.475H337.017H322.439V121.022L322.044 121.177L321.629 121.373H321.598L321.511 121.419L321.249 121.559L320.988 121.698C320.731 121.838 320.475 121.993 320.218 122.153L319.972 122.318L319.459 122.649C318.798 123.093 318.146 123.558 317.474 123.992C317.305 124.1 317.136 124.209 316.961 124.307C316.597 124.524 316.223 124.73 315.838 124.916C315.674 124.999 315.515 125.071 315.325 125.139L315.048 125.247L314.792 125.335C314.19 125.546 313.572 125.708 312.945 125.82V169.334H287.643C287.643 169.386 287.678 169.427 287.694 169.479C287.832 169.892 287.971 170.3 288.104 170.713H312.981V218.422C313.111 218.422 313.239 218.422 313.366 218.422L313.812 218.447L314.617 218.494L315.905 218.649L316.494 218.706L317.136 218.773H317.233L318.367 218.912L318.608 218.943L319.157 219.021L319.941 219.134L321.824 219.052L322.08 219.098C322.183 219.098 322.291 219.129 322.398 219.15V170.724H361.555V170.62V170.517C361.606 170.135 361.657 169.758 361.704 169.381C361.701 169.369 361.701 169.356 361.704 169.345H322.439Z" fill="#FF5555"/>
<path opacity="0.1" d="M137.73 44.4333H138.464C138.222 44.3303 138.012 44.1647 137.854 43.9533C137.696 43.742 137.597 43.4923 137.566 43.2298C137.566 42.2793 138.977 41.5045 140.7 41.5045H162.633C164.356 41.5045 165.762 42.2793 165.762 43.2298C165.762 44.1751 164.356 44.955 162.633 44.955H161.899C162.141 45.0563 162.352 45.2207 162.51 45.4314C162.668 45.642 162.767 45.8913 162.797 46.1534C162.797 46.9644 161.771 47.6463 160.401 47.827H166.716C168.434 47.827 169.844 48.6019 169.844 49.5523C169.844 50.5028 168.434 51.2776 166.716 51.2776H144.778C143.06 51.2776 141.649 50.4976 141.649 49.5523C141.649 48.7413 142.675 48.0647 144.044 47.8787H137.73C136.007 47.8787 134.601 47.1039 134.601 46.1534C134.601 45.203 136.007 44.4333 137.73 44.4333Z" fill="#FF5555"/>
<path opacity="0.1" d="M375.44 60.844H376.173C375.932 60.7403 375.723 60.5744 375.566 60.3631C375.41 60.1517 375.311 59.9025 375.281 59.6405C375.281 58.69 376.686 57.9152 378.409 57.9152H400.342C402.065 57.9152 403.476 58.69 403.476 59.6405C403.476 60.5858 402.065 61.3606 400.342 61.3606H399.614C399.855 61.4643 400.064 61.6302 400.221 61.8416C400.377 62.0529 400.476 62.3022 400.506 62.5641C400.506 63.3751 399.48 64.057 398.111 64.2378H404.425C406.148 64.2378 407.554 65.0126 407.554 65.963C407.554 66.9135 406.148 67.6883 404.425 67.6883H382.492C380.769 67.6883 379.358 66.9083 379.358 65.963C379.358 65.152 380.384 64.4702 381.754 64.2894H375.44C373.721 64.2894 372.311 63.5146 372.311 62.5641C372.311 61.6137 373.721 60.844 375.44 60.844Z" fill="#FF5555"/>
<path opacity="0.1" d="M104.067 131.074H104.795C104.554 130.97 104.345 130.805 104.188 130.593C104.031 130.382 103.933 130.132 103.903 129.87C103.903 128.925 105.314 128.145 107.032 128.145H128.97C130.688 128.145 132.098 128.925 132.098 129.87C132.098 130.82 130.688 131.595 128.97 131.595H128.236C128.477 131.697 128.687 131.861 128.844 132.072C129.001 132.283 129.099 132.532 129.129 132.794C129.129 133.605 128.103 134.287 126.733 134.467H133.047C134.771 134.467 136.181 135.247 136.181 136.193C136.181 137.138 134.771 137.918 133.047 137.918H111.135C109.412 137.918 108.006 137.143 108.006 136.193C108.006 135.387 109.032 134.705 110.402 134.519H104.067C102.344 134.519 100.933 133.744 100.933 132.794C100.933 131.843 102.364 131.074 104.067 131.074Z" fill="#FF5555"/>
<path opacity="0.1" d="M517.049 315.147C520.733 296.99 475.623 272.373 416.293 260.163C356.962 247.952 305.878 252.772 302.194 270.929C298.509 289.085 343.619 313.703 402.95 325.913C462.28 338.124 513.364 333.304 517.049 315.147Z" fill="#FF5555"/>
<path d="M397.234 198.808C397.234 198.808 403.066 169.98 425.332 172.65C425.332 172.65 440.72 173.715 443.884 183.86V206.283L397.234 198.808Z" fill="#3A3768"/>
<path d="M519.171 209.491L320.89 192.935L295.444 198.276L297.034 234.047L298.768 234.259L300.743 287.975L495.31 323.208L515.991 305.589V247.359L518.638 245.793L519.171 209.491Z" fill="#D48A9B"/>
<path opacity="0.05" d="M519.438 209.491L518.904 245.793L497.434 255.938L497.167 218.029L519.438 209.491Z" fill="black"/>
<path opacity="0.05" d="M515.991 247.395L516.253 304.525L495.577 322.144L496.905 255.938L515.991 247.395Z" fill="black"/>
<path opacity="0.05" d="M299.035 236.397L497.064 260.732L497.167 256.114L298.886 234.579L299.035 236.397Z" fill="black"/>
<path opacity="0.05" d="M515.991 249.492V247.395L496.372 256.114V260.742L515.991 249.492Z" fill="black"/>
<path d="M295.177 198.276L320.624 192.935L518.905 209.491L496.639 218.029L295.177 198.276Z" fill="#EFC6CD"/>
<path opacity="0.1" d="M497.782 210.518L507.513 211.159L491.386 216.02L483.174 215.426L497.782 210.518Z" fill="black"/>
<path d="M497.782 210.09L507.513 210.73L491.386 215.596L483.174 214.997L497.782 210.09Z" fill="white"/>
<path d="M496.618 211.19C497.003 211.025 497.408 211.34 497.818 211.417C498.054 211.464 498.295 211.417 498.531 211.464C499.008 211.526 499.48 211.846 499.937 211.686" fill="#D3DAE1"/>
<path d="M496.115 211.484C496.495 211.319 496.905 211.629 497.316 211.712C497.552 211.753 497.793 211.712 498.029 211.753C498.506 211.82 498.977 212.14 499.434 211.98" fill="#D3DAE1"/>
<path d="M494.956 212.073C495.341 211.908 495.751 212.218 496.162 212.295C496.392 212.342 496.639 212.295 496.869 212.342C497.351 212.409 497.823 212.729 498.275 212.564" fill="#D3DAE1"/>
<path opacity="0.1" d="M455.723 205.694L465.453 206.34L449.326 211.2L441.115 210.601L455.723 205.694Z" fill="black"/>
<path d="M455.723 205.27L465.453 205.911L449.326 210.772L441.115 210.178L455.723 205.27Z" fill="white"/>
<path d="M454.558 206.371C454.943 206.205 455.348 206.515 455.758 206.598C455.994 206.639 456.235 206.598 456.471 206.639C456.948 206.706 457.42 207.027 457.877 206.866" fill="#D3DAE1"/>
<path d="M454.056 206.665C454.435 206.5 454.846 206.81 455.256 206.887C455.492 206.934 455.733 206.887 455.969 206.934C456.446 207.001 456.918 207.321 457.374 207.156" fill="#D3DAE1"/>
<path d="M452.896 207.249C453.281 207.083 453.692 207.399 454.102 207.476C454.333 207.522 454.579 207.476 454.81 207.522C455.292 207.584 455.764 207.91 456.215 207.745" fill="#D3DAE1"/>
<path opacity="0.1" d="M475.896 208.106L485.631 208.747L469.505 213.613L461.288 213.013L475.896 208.106Z" fill="black"/>
<path d="M475.896 207.683L485.631 208.323L469.505 213.184L461.288 212.585L475.896 207.683Z" fill="white"/>
<path d="M474.732 208.783C475.116 208.618 475.527 208.927 475.937 209.005C476.168 209.051 476.409 209.005 476.645 209.051C477.122 209.113 477.599 209.439 478.05 209.274" fill="#D3DAE1"/>
<path d="M474.229 209.072C474.614 208.907 475.024 209.222 475.434 209.299C475.665 209.346 475.906 209.299 476.142 209.346C476.619 209.408 477.096 209.733 477.547 209.568" fill="#D3DAE1"/>
<path d="M473.075 209.661C473.454 209.496 473.865 209.806 474.275 209.888C474.511 209.93 474.752 209.888 474.988 209.93C475.465 209.997 475.937 210.317 476.393 210.157" fill="#D3DAE1"/>
<path opacity="0.1" d="M255.6 408.784C312.959 408.784 359.457 399.145 359.457 387.255C359.457 375.364 312.959 365.725 255.6 365.725C198.242 365.725 151.743 375.364 151.743 387.255C151.743 399.145 198.242 408.784 255.6 408.784Z" fill="#FF5555"/>
<path d="M369.331 210.947C368.223 201.143 363.837 191.788 363.837 191.788L364.171 188.483C364.171 188.483 364.243 186.83 364.135 184.35C364.147 182.802 364.348 181.262 364.735 179.763C365.633 176.896 363.612 173.374 363.386 173.048C363.16 172.723 363.499 166.436 361.478 163.353C359.457 160.269 345.998 154.535 345.998 154.535C345.998 154.535 345.275 153.011 344.254 151.229L344.346 151.048C343.511 149.523 342.476 148.117 341.269 146.87C340.443 145.981 339.648 145.475 339.007 145.723C338.746 144.866 338.547 143.99 338.412 143.104C338.545 143.14 338.684 143.176 338.817 143.202C339.372 143.332 339.948 143.346 340.51 143.243C341.761 142.959 342.592 141.828 343.29 140.764C346.767 135.444 349.763 129.607 350.373 123.31C350.537 122.025 350.476 120.721 350.194 119.457C349.905 118.474 349.502 117.529 348.993 116.641C348.094 114.82 346.956 113.13 345.608 111.615C343.213 109.074 339.909 107.519 336.514 106.6C332.689 105.564 328.704 105.264 324.768 105.716C323.742 105.835 322.716 106.006 321.69 106.073C320.389 106.131 319.086 106.108 317.787 106.006L311.073 105.613L311.042 105.51L309.924 105.443C309.483 106.326 309.924 107.374 310.473 108.201C311.022 109.027 311.652 109.89 311.606 110.866C311.56 111.843 310.857 112.628 310.309 113.449C309.76 114.27 309.344 115.345 309.893 116.151C309.97 116.262 310.062 116.363 310.165 116.45C310.745 117.055 311.755 117.122 312.632 117.111H312.786C310.577 120.041 309.383 123.619 309.385 127.298C309.4 130.441 310.274 133.52 311.91 136.197C313.547 138.874 315.884 141.045 318.664 142.474C318.762 142.81 318.859 143.156 318.951 143.507C319.968 147.135 320.333 150.917 320.028 154.675L319.91 154.933L319.839 154.659C319.839 154.659 311.929 160.062 309.58 161.493C307.231 162.924 304.872 167.774 304.759 169.097C304.646 170.419 300.943 190.363 300.943 190.363C300.19 192.372 299.57 194.429 299.086 196.52L294.362 200.699C294.362 200.699 284.616 201.582 281.795 200.921L281.877 201.469C279.389 200.897 276.856 200.551 274.306 200.435C272.914 200.255 271.499 200.446 270.203 200.988L270.106 201.035L270.029 201.071C268.544 201.275 267.094 201.685 265.72 202.29C265.556 202.357 265.407 202.424 265.264 202.491L265.294 201.815L254.749 201.267L249.363 200.167C249.363 200.167 247.455 198.617 246.332 198.845C245.208 199.072 242.854 197.522 242.854 197.522C242.317 197.098 241.736 196.735 241.12 196.437C240.941 195.187 240.828 194.428 240.828 194.428C240.828 194.428 236.637 177.682 233.498 167.836C231.395 161.261 228.369 158.022 226.584 156.612C225.789 155.217 225.266 154.318 225.266 154.318C224.922 153.109 223.035 150.387 222.552 150.32C222.476 150.196 222.419 150.134 222.388 150.134C222.285 150.123 222.181 150.139 222.086 150.181C221.203 145.759 220.691 140.216 222.04 135.387C223.886 133.858 225.374 131.938 226.398 129.762C227.421 127.587 227.954 125.211 227.959 122.804C227.959 122.731 227.959 122.659 227.959 122.587C227.959 122.514 227.959 122.437 227.959 122.365C227.958 118.526 226.608 114.811 224.148 111.879L223.973 111.682C224.02 111.649 224.064 111.613 224.107 111.574C224.492 111.259 224.786 110.845 224.956 110.376C225.127 109.907 225.168 109.4 225.076 108.909C224.845 107.917 224.076 107.137 223.681 106.197C223.444 105.473 223.253 104.735 223.112 103.986C222.809 102.923 222.255 101.949 221.496 101.15L221.573 101.357C219.562 99.0787 216.105 97.9475 212.992 98.4537C210.678 98.8256 208.524 99.9104 206.2 100.246C204.533 100.484 202.836 100.329 201.158 100.499C199.602 100.66 198.087 101.101 196.686 101.801C196.32 101.958 195.995 102.198 195.737 102.503C195.498 102.912 195.338 103.363 195.265 103.831C194.696 105.923 192.89 107.416 191.582 109.162C190.088 111.156 189.223 113.557 189.1 116.052C189.048 116.687 189.109 117.325 189.279 117.938C189.392 118.305 189.566 118.651 189.648 119.023C189.905 120.159 189.315 121.29 189.028 122.416C188.666 123.853 188.794 125.37 189.392 126.724C191.418 131.291 198.071 132.814 199.455 137.608C200.515 138.098 201.634 138.446 202.784 138.641C202.877 139.116 202.959 139.597 203.025 140.082C202.994 140.095 202.965 140.113 202.938 140.134C201.143 141.895 200.697 145.299 200.697 145.299L200.481 145.475C199.748 146.084 197.24 148.13 194.973 149.705C192.28 151.581 187.792 157.862 184.653 159.737C181.513 161.612 178.928 173.167 179.605 177.367C180.282 181.566 183.083 193.343 181.96 197.641C180.836 201.939 183.642 221.552 183.642 221.552C185.525 221.913 187.367 222.463 189.141 223.195L189.084 224.052L188.915 226.635C188.915 226.635 183.832 245.148 185.776 259.399C187.72 273.651 184.878 275.118 184.878 275.118C184.878 275.118 185.473 281.435 183.981 283.641C182.488 285.846 182.185 290.692 182.185 290.692C182.185 290.692 182.037 301.565 182.334 304.638C182.632 307.712 182.78 313.311 181.734 314.634C180.688 315.956 178.744 324.618 178.892 327.263C179.041 329.908 175.153 335.936 177.246 343.72C179.339 351.505 171.091 351.654 171.091 351.654C171.091 351.654 172.142 363.535 174.384 366.934L174.712 367.419C174.656 367.616 174.599 367.822 174.538 368.044C173.691 371.144 172.532 376.035 173.337 377.218C174.533 378.985 175.133 378.685 175.133 378.685L175.579 386.619C175.579 386.619 184.555 394.259 191.438 393.97C198.322 393.681 196.973 386.619 196.973 386.619L191.11 371.309L190.91 370.792L197.424 358.395C197.424 358.395 199.22 352.961 199.666 351.05C200.112 349.139 202.548 342.367 202.548 342.367C202.548 342.367 208.704 327.676 208.832 325.91C208.96 324.143 209.432 314.603 210.627 312.686C211.822 310.77 215.115 299.773 215.115 299.773L215.197 299.845C215.756 300.398 216.155 301.093 216.352 301.856C216.549 302.619 216.536 303.422 216.315 304.179C215.561 306.968 216.013 312.697 216.013 312.697C216.013 312.697 215.715 317.547 215.115 320.047C214.515 322.547 214.371 342.966 215.418 347.811C216.254 351.691 216.228 358.953 216.187 361.701C215.484 364.62 214.869 368.246 216.013 368.675C217.962 369.413 227.836 369.264 227.836 369.264C227.836 369.264 232.021 367.791 237.709 372.936C243.398 378.081 260.894 371.469 260.894 371.469C260.894 371.469 266.279 369.997 255.657 365.741C248.245 362.771 243.459 360.792 240.33 358.674C240.402 358.535 240.479 358.395 240.546 358.246C240.546 358.246 236.206 354.113 239.797 346.789C243.387 339.464 243.239 333.271 243.239 333.271L243.839 308.585L242.044 275.815L240.654 241.423L240.9 241.341C241.136 247.663 242.362 262.715 248.778 259.797C256.857 256.124 249.973 246.573 249.973 246.573L246.347 239.455L247.429 239.083L243.372 225.881C242.983 223.304 242.931 220.687 243.218 218.096C243.298 216.581 243.268 215.061 243.126 213.551C248.44 212.616 253.528 211.624 254.441 211.851C255.518 212.115 261.545 212.166 263.915 212.177C263.14 212.786 262.519 213.39 262.519 213.39L272.168 219.93C272.168 219.93 275.44 218.127 276.122 216.216C276.794 216.045 277.413 215.712 277.928 215.245C278.03 217.502 278.625 219.945 280.697 220.002C281.216 220.013 281.73 219.911 282.205 219.703L297.983 216.557L296.629 225.075L297.573 226.764C297.096 233.949 296.547 241.578 296.065 248.288L295.844 249.755L295.957 249.781C295.208 260.112 294.608 267.938 294.608 267.938C295.492 266.242 296.863 264.854 298.542 263.955L298.645 279.286C298.645 279.286 299.435 303.528 299.435 306.834C299.435 310.14 299.542 317.521 299.542 317.521C299.542 317.521 301.23 326.555 302.235 329.531C303.24 332.506 304.03 346.06 304.03 346.06C304.03 346.06 306.39 349.805 305.379 351.226C304.369 352.646 309.308 355.74 309.308 355.74C309.308 355.74 306.164 360.038 305.938 362.905C305.913 363.235 306.236 363.587 306.821 363.938C306.636 364.088 306.446 364.238 306.236 364.382C304.779 365.364 302.645 366.045 299.435 365.766C290.679 364.992 284.508 373.148 289.894 374.801C295.28 376.454 311.437 376.784 311.437 376.784C311.437 376.784 316.33 373.711 320.157 375.095C320.1 378.329 320.259 381.294 320.285 381.686L320.239 381.723C317.951 383.789 313.571 387.343 309.293 388.794C303.138 390.886 301.774 399.373 309.739 400.473C317.705 401.573 329.374 399.151 329.374 399.151C329.374 399.151 335.432 394.636 340.032 393.645C344.633 392.653 348.562 390.447 347.778 387.802C347.265 386.113 345.947 381.686 345.054 378.711C345.003 378.532 344.951 378.36 344.9 378.195C345.039 377.885 345.177 377.564 345.305 377.234C345.305 377.234 342.951 364.894 344.859 361.81C346.767 358.726 345.757 327.867 345.757 327.867C345.757 327.867 342.5 320.047 344.187 315.31C345.875 310.574 341.494 303.848 341.494 303.848C341.494 303.848 341.971 290.371 343.254 282.861C343.312 282.541 343.368 282.231 343.423 281.931C345.57 281.289 347.662 280.476 349.681 279.498C349.681 279.498 350.804 262.524 351.476 258.671C351.542 258.309 351.635 257.726 351.748 256.966L352.261 254.244L352.866 251.145L354.918 240.581L358.621 235.757L368.161 225.943C368.161 225.943 370.454 220.756 369.331 210.947ZM222.204 150.341L222.132 150.392C222.121 150.355 222.112 150.317 222.106 150.279C222.136 150.304 222.169 150.324 222.204 150.341ZM316.464 162.371L316.094 163.182L317.443 161.829L315.612 163.895L316.228 162.593L316.464 162.371ZM307.354 181.328C307 182.274 306.621 183.296 306.226 184.361L306.949 182.186L307.354 181.328Z" fill="url(#paint0_linear)"/>
<path d="M277.918 212.233C277.918 212.233 276.661 220.658 280.431 220.767C284.201 220.875 286.719 214.269 286.719 214.269L285.181 208.984L277.918 212.233Z" fill="#585B8A"/>
<path opacity="0.2" d="M277.918 212.233C277.918 212.233 276.661 220.658 280.431 220.767C284.201 220.875 286.719 214.269 286.719 214.269L285.181 208.984L277.918 212.233Z" fill="black"/>
<path d="M193.475 394.595C186.766 394.889 178.015 387.255 178.015 387.255L177.579 379.326C177.579 379.326 177 379.62 175.83 377.859C175.045 376.676 176.174 371.774 177 368.69C177.4 367.182 177.728 366.107 177.728 366.107L192.449 370.075L193.152 371.95L198.866 387.25C198.866 387.25 200.179 394.301 193.475 394.595Z" fill="#636992"/>
<path d="M261.114 372.135C261.114 372.135 244.059 378.742 238.545 373.602C233.032 368.463 228.923 369.93 228.923 369.93C228.923 369.93 219.301 370.08 217.403 369.341C216.285 368.912 216.89 365.24 217.587 362.316C218.059 360.296 218.572 358.628 218.572 358.628C218.572 358.628 235.335 352.899 237.961 356.422C238.75 357.457 239.692 358.363 240.756 359.108C243.793 361.319 248.537 363.323 256.041 366.407C266.361 370.663 261.114 372.135 261.114 372.135Z" fill="#636992"/>
<path d="M245.809 237.942L250.471 247.338C250.471 247.338 257.18 256.884 249.307 260.551C241.433 264.219 241.582 239.414 241.582 239.414L245.809 237.942Z" fill="#FFD6D6"/>
<path d="M226.271 156.462C226.271 156.462 231.375 158.812 234.437 168.647C237.499 178.482 241.582 195.224 241.582 195.224C241.582 195.224 244.352 214.16 243.911 218.861C243.63 221.45 243.68 224.064 244.059 226.64L247.994 239.853L240.12 242.643L228.02 195.957L226.271 156.462Z" fill="#DCE6F2"/>
<path opacity="0.05" d="M226.271 156.462C226.271 156.462 231.375 158.812 234.437 168.647C237.499 178.482 241.582 195.224 241.582 195.224C241.582 195.224 244.352 214.16 243.911 218.861C243.63 221.45 243.68 224.064 244.059 226.64L247.994 239.853L240.12 242.643L228.02 195.957L226.271 156.462Z" fill="black"/>
<path opacity="0.1" d="M192.449 370.08L193.152 371.955L192.29 373.613C188.936 375.08 180.626 373.907 180.626 373.907C180.626 373.907 179.087 371.939 176.984 368.7C177.384 367.192 177.713 366.118 177.713 366.118L192.449 370.08Z" fill="black"/>
<path opacity="0.1" d="M241.29 359.8C237.038 369.501 222.583 365.901 218.567 364.687C217.905 364.485 217.541 364.351 217.541 364.351C217.541 364.351 217.567 363.561 217.577 362.316C218.049 360.296 218.562 358.628 218.562 358.628C218.562 358.628 235.324 352.899 237.951 356.422C238.739 357.457 239.682 358.363 240.746 359.108C240.906 359.355 241.088 359.586 241.29 359.8Z" fill="black"/>
<path d="M240.556 347.47C237.058 354.805 241.29 358.922 241.29 358.922C237.038 368.618 222.583 365.023 218.567 363.804C217.905 363.607 217.541 363.473 217.541 363.473C217.541 363.473 217.834 353.338 216.813 348.493C215.792 343.648 215.936 323.244 216.521 320.749C217.105 318.254 217.393 313.404 217.393 313.404C217.393 313.404 216.957 307.681 217.685 304.891C217.904 304.138 217.919 303.339 217.728 302.578C217.536 301.816 217.146 301.121 216.598 300.563L216.521 300.485C216.521 300.485 213.315 311.498 212.145 313.399C210.976 315.3 210.545 324.851 210.396 326.612C210.248 328.374 204.272 343.059 204.272 343.059C204.272 343.059 201.943 349.81 201.507 351.716C201.071 353.622 199.317 359.062 199.317 359.062L192.29 372.719C188.936 374.186 180.626 373.014 180.626 373.014C180.626 373.014 179.026 370.947 176.836 367.579C174.645 364.212 173.63 352.316 173.63 352.316C173.63 352.316 181.647 352.166 179.605 344.387C177.564 336.607 181.355 330.584 181.211 327.94C181.067 325.295 182.96 316.638 183.981 315.315C185.001 313.993 184.853 308.414 184.56 305.331C184.268 302.247 184.417 291.384 184.417 291.384C184.417 291.384 184.709 286.539 186.166 284.338C187.622 282.138 187.043 275.82 187.043 275.82C187.043 275.82 189.808 274.353 187.915 260.112C186.022 245.871 190.992 227.373 190.992 227.373L191.162 224.791L191.428 220.607C191.428 220.607 233.124 217.962 236.478 221.19C237.355 222.086 238.075 223.126 238.607 224.264C239.755 226.748 240.566 229.377 241.018 232.079L242.767 276.564L244.516 309.303L243.931 333.968C243.931 333.968 244.059 340.125 240.556 347.47Z" fill="#565988"/>
<path opacity="0.1" d="M228.195 259.673L223.819 355.1L218.567 363.798C217.905 363.602 217.541 363.468 217.541 363.468C217.541 363.468 217.834 353.333 216.813 348.488C215.792 343.643 215.936 323.239 216.521 320.744C217.105 318.249 217.392 313.399 217.392 313.399C217.392 313.399 216.957 307.676 217.685 304.886C217.904 304.133 217.919 303.334 217.728 302.573C217.536 301.811 217.146 301.116 216.597 300.558L216.669 300.041L228.195 259.673Z" fill="black"/>
<path opacity="0.1" d="M181.078 362.151C181.078 362.151 192.449 357.6 194.198 359.051C195.947 360.503 180.79 362.719 180.79 362.719L181.078 362.151Z" fill="black"/>
<path opacity="0.1" d="M237.207 350.11C236.771 350.26 225.692 354.242 226.712 358.478C227.733 362.714 237.207 350.11 237.207 350.11Z" fill="black"/>
<path d="M202.584 132.902C202.584 132.902 206.298 141.931 204.334 146.56C202.369 151.188 225.543 159.112 225.543 159.112C225.543 159.112 218.767 141.492 225.328 131.58C231.888 121.667 202.584 132.902 202.584 132.902Z" fill="#FFD6D6"/>
<path d="M338.273 394.301C333.79 395.292 327.886 399.807 327.886 399.807C327.886 399.807 316.515 402.23 308.749 401.129C300.984 400.029 302.302 391.547 308.313 389.455C312.483 388.009 316.756 384.44 318.987 382.394C319.972 381.48 320.557 380.845 320.557 380.845L342.32 376.438C342.32 376.438 342.674 377.663 343.167 379.352C344.038 382.332 345.326 386.754 345.818 388.438C346.583 391.108 342.756 393.309 338.273 394.301Z" fill="#505484"/>
<path d="M332.698 377.342C332.698 377.342 323.511 378.334 319.685 376.134C315.859 373.933 310.391 377.456 310.391 377.456C310.391 377.456 294.644 377.125 289.397 375.472C284.15 373.819 290.161 365.658 298.691 366.443C301.799 366.727 303.902 366.04 305.323 365.059C306.807 364.034 307.842 362.473 308.211 360.699L326.676 361.799L329.241 368.391L332.698 377.342Z" fill="#505484"/>
<path opacity="0.1" d="M329.523 371.397C329.523 371.397 308.062 367.864 305.323 365.059C306.807 364.034 307.842 362.473 308.211 360.699L326.676 361.799L329.241 368.391L329.523 371.397Z" fill="black"/>
<path d="M297.706 247.746L297.927 280.004C297.927 280.004 298.691 304.23 298.691 307.536C298.691 310.842 298.799 318.213 298.799 318.213C298.799 318.213 300.44 327.242 301.425 330.218C302.41 333.193 303.174 346.747 303.174 346.747C303.174 346.747 305.472 350.492 304.487 351.913C303.502 353.333 308.313 356.427 308.313 356.427C308.313 356.427 305.236 360.725 305.036 363.587C304.836 366.448 329.523 370.514 329.523 370.514L319.905 271.197L312.247 246.315L297.706 247.746Z" fill="#575988"/>
<path opacity="0.1" d="M297.706 247.746L297.927 280.004C297.927 280.004 298.691 304.23 298.691 307.536C298.691 310.842 298.799 318.213 298.799 318.213C298.799 318.213 300.44 327.242 301.425 330.218C302.41 333.193 303.174 346.747 303.174 346.747C303.174 346.747 305.472 350.492 304.487 351.913C303.502 353.333 308.313 356.427 308.313 356.427C308.313 356.427 305.236 360.725 305.036 363.587C304.836 366.448 329.523 370.514 329.523 370.514L319.905 271.197L312.247 246.315L297.706 247.746Z" fill="black"/>
<path opacity="0.1" d="M343.166 379.377C336.021 396.532 319.028 383.293 319.028 383.293C319.028 383.293 319.028 382.962 318.987 382.394C319.972 381.48 320.557 380.845 320.557 380.845L342.32 376.438C342.32 376.438 342.674 377.688 343.166 379.377Z" fill="black"/>
<path d="M343.413 377.895C336.411 395.974 319.028 382.41 319.028 382.41C319.028 382.41 318.48 373.05 319.577 368.757C320.675 364.465 318.372 351.577 318.372 351.577C318.372 351.577 317.059 340.125 315.859 337.486C314.658 334.846 314.766 329.557 314.766 329.118C314.766 328.679 315.202 325.151 314.217 322.728C313.232 320.305 312.678 314.36 312.678 314.36C312.678 314.36 312.678 305.992 311.694 301.038L308.303 283.992L302.179 249.084L304.092 248.753L338.371 242.699C338.371 242.699 344.823 275.758 342.633 279.147C342.161 279.891 341.746 281.518 341.402 283.615C340.151 291.115 339.684 304.582 339.684 304.582C339.684 304.582 343.946 311.297 342.31 316.033C340.674 320.77 343.849 328.586 343.849 328.586C343.849 328.586 344.834 359.418 342.972 362.502C341.11 365.586 343.413 377.895 343.413 377.895Z" fill="#575988"/>
<path d="M340.13 152.5C340.13 152.5 309.078 174.52 316.074 163.508C319.844 157.578 319.151 150.026 317.674 144.323C316.927 141.423 315.897 138.604 314.597 135.908C314.597 135.908 340.981 124.606 337.483 134.736C336.664 137.096 336.315 139.596 336.457 142.092C336.667 145.844 337.942 149.456 340.13 152.5Z" fill="#D28690"/>
<path d="M284.221 202.93C284.221 202.93 271.101 199.113 268.916 202.858C266.731 206.603 269.572 214.821 273.532 216.144C277.492 217.466 286.581 211.665 286.581 211.665L284.221 202.93Z" fill="#D28690"/>
<path d="M299.24 196.437L293.772 201.505C293.772 201.505 284.257 202.383 281.523 201.722C281.523 201.722 284.042 218.68 280.431 220.772L302.517 216.257L299.24 196.437Z" fill="#585B8A"/>
<path opacity="0.1" d="M299.24 196.437L293.772 201.505C293.772 201.505 284.257 202.383 281.523 201.722C281.523 201.722 284.042 218.68 280.431 220.772L302.517 216.257L299.24 196.437Z" fill="black"/>
<path opacity="0.1" d="M229.041 123.651C229.041 128.035 227.312 132.239 224.234 135.339C221.155 138.439 216.981 140.18 212.627 140.18C204.205 136.105 196.214 132.789 196.214 123.651C196.127 121.427 196.486 119.208 197.271 117.128C198.056 115.047 199.25 113.147 200.781 111.543C202.313 109.938 204.15 108.662 206.184 107.79C208.217 106.918 210.405 106.468 212.615 106.468C214.825 106.468 217.012 106.918 219.045 107.79C221.079 108.662 222.916 109.938 224.448 111.543C225.979 113.147 227.173 115.047 227.958 117.128C228.743 119.208 229.103 121.427 229.015 123.651H229.041Z" fill="black"/>
<path d="M229.041 123.207C229.043 127.094 227.683 130.857 225.199 133.833C222.715 136.809 219.268 138.806 215.465 139.472C211.662 140.138 207.747 139.43 204.412 137.473C201.076 135.516 198.534 132.436 197.233 128.776C195.933 125.116 195.957 121.111 197.302 117.468C198.648 113.824 201.227 110.776 204.586 108.86C207.945 106.945 211.868 106.286 215.663 106.998C219.457 107.711 222.88 109.751 225.327 112.757C227.724 115.705 229.036 119.396 229.041 123.207Z" fill="#FFD6D6"/>
<path opacity="0.1" d="M238.607 224.279C236.983 225.295 235.284 226.183 233.524 226.934C233.524 226.934 225.215 225.72 224.014 227.151C222.814 228.582 212.217 229.135 212.217 229.135C212.217 229.135 196.034 228.365 193.629 226.273C192.885 225.667 192.057 225.172 191.172 224.806L191.439 220.622C191.439 220.622 233.134 217.977 236.489 221.206C237.362 222.103 238.078 223.142 238.607 224.279Z" fill="black"/>
<path d="M240.633 221.319C240.305 223.189 233.524 226.051 233.524 226.051C233.524 226.051 225.215 224.842 224.014 226.273C222.814 227.704 212.217 228.257 212.217 228.257C212.217 228.257 196.034 227.482 193.629 225.39C191.223 223.298 185.863 222.291 185.863 222.291C185.863 222.291 183.129 202.693 184.227 198.4C185.325 194.108 182.585 182.32 181.929 178.136C181.272 173.952 183.786 162.392 186.848 160.522C189.91 158.652 194.285 152.371 196.906 150.501C199.117 148.925 201.559 146.885 202.272 146.27L202.482 146.095C202.482 146.095 202.923 142.68 204.672 140.929C206.421 139.178 222.491 152.051 222.491 152.051C222.491 152.051 222.604 153.042 223.696 151.172C223.943 150.754 226.061 153.833 226.43 155.134C226.43 155.134 235.176 170.553 235.724 173.73C236.273 176.907 238.566 187.274 239.002 189.805C239.115 190.456 239.3 192.739 239.515 195.797C239.556 196.396 239.592 197.031 239.638 197.693C239.961 202.765 240.31 209.243 240.52 214.139C240.52 214.697 240.566 215.235 240.582 215.751C240.693 217.605 240.71 219.464 240.633 221.319Z" fill="#DCE6F2"/>
<path opacity="0.1" d="M185.109 181.566C185.109 181.566 191.121 188.942 193.09 188.942C195.06 188.942 185.109 181.566 185.109 181.566Z" fill="black"/>
<path opacity="0.1" d="M197.773 197.424C197.773 197.424 187.93 208.215 189.243 210.198C190.556 212.182 197.773 197.424 197.773 197.424Z" fill="black"/>
<path opacity="0.1" d="M190.556 218.897C190.556 218.897 201.841 206.453 202.354 202.161L190.556 218.897Z" fill="black"/>
<path opacity="0.1" d="M204.769 219.775C204.769 219.775 217.782 212.838 218.875 207.331C219.967 201.825 204.769 219.775 204.769 219.775Z" fill="black"/>
<path opacity="0.1" d="M221.28 152.831L219.475 157.232L222.481 158.662L225.435 166.979C225.435 166.979 233.58 183.384 233.252 191.918C232.924 200.451 234.729 213.277 234.729 213.277L239.428 212.399L237.212 187.3C236.867 183.414 235.9 179.609 234.35 176.034C230.595 167.376 223.609 151.395 223.168 151.395C222.568 151.395 222.989 151.617 222.989 151.617L221.28 152.831Z" fill="black"/>
<path d="M221.716 152.386L219.911 156.793L222.922 158.223L225.871 166.54C225.871 166.54 234.016 182.945 233.688 191.479C233.36 200.012 235.165 212.838 235.165 212.838L239.869 211.96L237.648 186.861C237.307 182.974 236.342 179.17 234.791 175.595C231.036 166.932 224.05 150.956 223.614 150.956C223.009 150.956 223.43 151.178 223.43 151.178L221.716 152.386Z" fill="#575989"/>
<path d="M274.963 217.099C272.675 216.924 267.187 214.129 265.007 212.967L264.084 212.45L264.197 203.922C264.736 203.603 265.294 203.318 265.869 203.07C268.782 201.789 274.758 200.048 277.753 205.653C281.795 213.168 277.861 217.296 274.963 217.099Z" fill="#FFD6D6"/>
<path opacity="0.1" d="M225.327 112.757C225.092 112.905 224.834 113.012 224.563 113.072C222.66 113.49 220.496 111.843 218.865 112.902C217.87 113.552 217.639 114.901 217.505 116.089C217.273 118.155 217.04 120.207 216.808 122.246C216.759 122.972 216.607 123.687 216.356 124.369C215.551 126.223 213.34 127.096 211.325 127.065C210.535 127.122 209.755 126.862 209.155 126.342C208.801 125.98 208.611 125.474 208.221 125.144C205.657 122.979 204.877 128.284 205.554 129.793C206.642 132.256 210.504 134.633 208.883 137.763C208.611 138.272 208.197 138.69 207.693 138.966C205.251 138.196 203.021 136.861 201.182 135.068C199.343 133.275 197.946 131.074 197.102 128.641C196.259 126.207 195.992 123.609 196.323 121.053C196.654 118.497 197.575 116.054 199.01 113.92C200.446 111.787 202.357 110.02 204.592 108.763C206.826 107.506 209.322 106.792 211.879 106.679C214.436 106.566 216.984 107.057 219.319 108.112C221.654 109.167 223.712 110.758 225.327 112.757Z" fill="black"/>
<path d="M207.785 125.123C208.17 125.448 208.365 125.955 208.719 126.316C209.319 126.836 210.099 127.095 210.889 127.039C212.904 127.07 215.115 126.203 215.915 124.338C216.17 123.659 216.324 122.945 216.372 122.22L217.069 116.063C217.203 114.875 217.428 113.527 218.429 112.876C220.06 111.843 222.224 113.465 224.127 113.046C224.813 112.871 225.407 112.439 225.788 111.838C226.169 111.237 226.309 110.513 226.179 109.813C225.958 108.826 225.21 108.046 224.825 107.106C224.592 106.384 224.405 105.647 224.266 104.9C223.204 100.892 218.531 98.6397 214.469 99.3112C212.212 99.6883 210.114 100.773 207.852 101.104C206.231 101.341 204.575 101.186 202.938 101.362C201.418 101.52 199.94 101.959 198.579 102.658C198.221 102.818 197.905 103.058 197.655 103.361C197.423 103.77 197.266 104.218 197.194 104.683C196.645 106.75 194.88 108.273 193.603 110.014C192.142 112.017 191.297 114.407 191.172 116.889C191.122 117.523 191.181 118.161 191.346 118.775C191.454 119.136 191.623 119.488 191.705 119.859C191.957 120.991 191.382 122.122 191.1 123.248C190.75 124.685 190.876 126.198 191.459 127.556C193.429 132.117 199.917 133.641 201.266 138.429C202.464 139.008 203.758 139.358 205.082 139.462C206.406 139.488 207.832 138.915 208.447 137.732C210.063 134.633 206.206 132.226 205.118 129.767C204.436 128.253 205.2 122.954 207.785 125.123Z" fill="#353045"/>
<path opacity="0.1" d="M337.509 134.736C336.689 137.096 336.341 139.596 336.483 142.092C335.693 142.768 334.832 140.743 333.919 141.265C331.415 142.722 328.523 146.188 325.425 146.188C322.738 146.19 320.089 145.551 317.695 144.323C316.948 141.423 315.917 138.604 314.617 135.909C314.617 135.909 341.007 124.606 337.509 134.736Z" fill="black"/>
<path d="M342.464 128.129C342.464 131.527 341.463 134.849 339.589 137.674C337.714 140.499 335.05 142.702 331.933 144.002C328.815 145.302 325.385 145.642 322.076 144.98C318.767 144.317 315.727 142.68 313.341 140.278C310.955 137.875 309.33 134.814 308.672 131.481C308.014 128.148 308.351 124.694 309.643 121.555C310.934 118.415 313.121 115.732 315.926 113.844C318.732 111.957 322.03 110.949 325.404 110.949C327.645 110.948 329.863 111.392 331.933 112.255C334.003 113.119 335.884 114.384 337.469 115.979C339.053 117.575 340.31 119.469 341.167 121.554C342.024 123.639 342.465 125.873 342.464 128.129Z" fill="#D28690"/>
<path d="M341.736 156.317C341.736 156.317 338.525 159.84 338.089 160.129C337.653 160.419 328.343 199.903 328.179 200.363C328.015 200.823 317.095 236.475 317.095 236.475L299.599 245.137L301.061 201.531L313.884 165.569C313.884 165.569 318.115 160.723 319.423 158.962C320.731 157.201 337.063 146.627 337.063 146.627L339.853 152.417L341.736 156.317Z" fill="#F0F3F7"/>
<path opacity="0.1" d="M339.422 153.301L319.305 167.805L318.982 159.84C320.295 158.079 336.622 147.51 336.622 147.51L339.422 153.301Z" fill="black"/>
<path d="M339.858 152.417L319.741 166.922L319.428 158.962C320.741 157.195 337.068 146.627 337.068 146.627L339.858 152.417Z" fill="#F0F3F7"/>
<path d="M318.757 155.418L319.428 158.962L314.93 163.564L318.521 155.47C318.521 155.47 310.827 160.868 308.519 162.299C306.21 163.73 303.902 168.575 303.815 169.897C303.728 171.22 300.096 191.148 300.096 191.148C300.096 191.148 297.362 198.524 298.132 200.616C298.901 202.708 293.977 268.666 293.977 268.666C294.635 267.385 295.566 266.266 296.702 265.388C297.839 264.511 299.154 263.896 300.553 263.588L298.799 224.61C298.799 224.61 300.932 198.679 301.04 198.349C301.148 198.018 306.015 182.987 306.015 182.987L318.757 155.418Z" fill="#585B8A"/>
<path opacity="0.1" d="M319.87 159.401L319.521 166.633C319.521 166.633 314.653 182.103 313.017 184.634C311.381 187.165 306.4 202.254 306.4 202.254L303.595 228.463L298.783 230.669L296.414 226.273L300.353 200.962C300.353 200.962 307.785 179.603 308.883 177.398L314.366 165.765L319.87 159.401Z" fill="black"/>
<path d="M319.428 158.962L319.085 166.194C319.085 166.194 314.217 181.664 312.576 184.195C310.934 186.726 305.964 201.815 305.964 201.815L303.174 228.019L298.363 230.22L295.957 225.819L299.896 200.508C299.896 200.508 307.329 179.143 308.421 176.943L313.945 165.326L319.428 158.962Z" fill="#663D5C"/>
<path d="M262.72 214.16L272.122 220.715C272.122 220.715 278.754 216.97 274.891 214.548C271.029 212.125 267.603 211.758 266.361 211.758C265.12 211.758 262.72 214.16 262.72 214.16Z" fill="#D28690"/>
<path d="M269.742 202.042C269.532 202.173 269.359 202.357 269.239 202.575C269.12 202.793 269.058 203.038 269.059 203.287C269.059 205.296 269.285 210.617 270.957 208.215C273.009 205.276 272.634 202.636 275.768 204.542C277.716 205.764 279.421 207.34 280.795 209.191L279.923 202.879C279.923 202.879 273.481 199.676 269.742 202.042Z" fill="#D28690"/>
<path opacity="0.1" d="M342.643 279.126C342.171 279.87 341.756 281.497 341.412 283.594C322.239 289.385 308.211 277.143 308.211 277.143C306.513 271.35 305.127 265.471 304.056 259.528C303.712 257.493 303.789 253.547 304.107 248.733L338.386 242.679C338.386 242.679 344.834 275.712 342.643 279.126Z" fill="black"/>
<path d="M362.324 180.574C361.452 183.441 361.781 189.273 361.781 189.273L353.907 226.712C353.907 226.712 350.081 255.561 349.424 259.415C348.768 263.268 347.675 280.226 347.675 280.226C325.368 291.239 308.18 276.264 308.18 276.264C306.483 270.47 305.096 264.589 304.025 258.645C302.928 252.106 306.159 225.906 307.688 214.269C308.144 210.823 308.452 208.654 308.452 208.654L314.191 187.181C314.191 187.181 321.244 169.066 323.87 163.781C326.497 158.497 337.042 146.627 337.042 146.627C338.35 145.79 340.443 148.745 341.997 151.436C343.172 153.471 344.049 155.362 344.049 155.362C344.049 155.362 357.169 161.085 359.134 164.143C361.098 167.201 360.775 173.503 360.996 173.833C361.216 174.164 363.201 177.713 362.324 180.574Z" fill="#585B8A"/>
<path opacity="0.1" d="M331.385 167.253C331.385 167.253 332.369 173.09 329.846 174.851C327.41 176.556 309.273 212.471 308.144 214.713C308.601 211.262 308.908 209.093 308.908 209.093L314.648 187.625C314.648 187.625 321.706 169.51 324.327 164.22C326.948 158.931 337.504 147.066 337.504 147.066C338.812 146.229 340.899 149.184 342.454 151.875C340.109 156.777 335.221 166.044 331.385 167.253Z" fill="black"/>
<path d="M330.949 166.813C330.949 166.813 331.928 172.65 329.41 174.412C326.891 176.173 308.842 212.027 307.698 214.269C308.154 210.823 308.462 208.654 308.462 208.654L314.202 187.181C314.202 187.181 321.254 169.066 323.881 163.781C326.507 158.497 337.052 146.627 337.052 146.627C338.36 145.79 340.453 148.745 342.007 151.436C339.673 156.333 334.78 165.605 330.949 166.813Z" fill="#585B8A"/>
<path d="M356.969 219.558L350.799 251.889V251.894L350.209 254.988V254.993L348.881 261.951L343.213 260.742L340.571 260.179L304.015 252.379L301.327 251.806L295.193 250.499L296.393 242.472L296.891 239.135L301.317 209.537L356.969 219.558Z" fill="#FF5555"/>
<path d="M322.855 245.985C322.855 245.985 308.313 251.269 311.483 257.545C314.653 263.821 334.991 252.7 334.991 252.7L322.855 245.985Z" fill="#D28690"/>
<path opacity="0.1" d="M333.241 291.017C333.241 291.456 333.79 297.076 335.975 299.055C338.16 301.033 333.241 291.017 333.241 291.017Z" fill="black"/>
<path opacity="0.1" d="M318.592 310.945C318.592 310.945 321.213 318.213 331.6 321.188C341.987 324.164 318.592 310.945 318.592 310.945Z" fill="black"/>
<path opacity="0.1" d="M342.464 128.129C342.465 131.15 341.675 134.117 340.173 136.731C338.672 139.346 336.513 141.515 333.913 143.021C332.934 142.469 332.064 141.739 331.349 140.867C330.605 139.958 330.026 138.719 330.472 137.634C330.831 136.761 331.78 136.208 332.011 135.304C332.119 134.751 332.091 134.18 331.928 133.641C331.739 132.789 331.559 131.936 331.374 131.089C331.215 130.366 330.933 129.514 330.22 129.338C329.507 129.162 328.912 129.762 328.353 130.206C326.984 131.296 324.358 132.034 322.711 131.141C321.065 130.247 321.526 127.256 321.26 125.64C321.256 125.499 321.222 125.361 321.16 125.235C321.098 125.109 321.01 124.999 320.901 124.911C320.661 124.831 320.405 124.813 320.157 124.86C319.269 124.86 318.557 124.059 318.3 123.201C318.118 122.326 318.019 121.435 318.003 120.541C317.905 119.648 317.582 118.702 316.823 118.243C316.216 117.958 315.544 117.848 314.879 117.922L311.663 117.959C313.796 115.054 316.785 112.9 320.203 111.804C323.622 110.708 327.297 110.726 330.705 111.854C334.113 112.982 337.082 115.163 339.188 118.088C341.295 121.013 342.432 124.532 342.438 128.145L342.464 128.129Z" fill="black"/>
<path d="M328.81 130.206C329.369 129.762 329.984 129.173 330.677 129.343C331.369 129.514 331.667 130.376 331.826 131.089L332.38 133.636C332.544 134.176 332.574 134.749 332.467 135.304C332.205 136.213 331.262 136.761 330.897 137.634C330.451 138.719 331.036 139.958 331.774 140.862C333.122 142.497 334.984 143.618 337.052 144.039C337.592 144.17 338.154 144.182 338.699 144.075C339.92 143.791 340.751 142.66 341.407 141.601C344.798 136.28 347.716 130.449 348.311 124.157C348.474 122.874 348.415 121.572 348.137 120.309C347.859 119.327 347.466 118.382 346.967 117.494C346.094 115.678 344.985 113.988 343.669 112.468C341.335 109.937 338.114 108.382 334.806 107.462C331.085 106.422 327.199 106.116 323.363 106.558C322.337 106.677 321.352 106.848 320.341 106.915C319.073 106.974 317.802 106.953 316.535 106.853L308.985 106.398C308.554 107.282 308.985 108.33 309.498 109.157C310.011 109.983 310.647 110.841 310.606 111.822C310.565 112.803 309.873 113.578 309.339 114.405C308.806 115.231 308.4 116.3 308.934 117.106C309.467 117.912 310.555 117.964 311.499 117.953L315.304 117.912C315.967 117.843 316.636 117.96 317.238 118.248C317.997 118.708 318.32 119.658 318.418 120.546C318.439 121.44 318.539 122.33 318.715 123.207C318.977 124.064 319.685 124.875 320.572 124.865C320.821 124.815 321.078 124.834 321.316 124.922C321.425 125.008 321.514 125.118 321.576 125.243C321.638 125.368 321.672 125.505 321.675 125.645C321.942 127.262 321.449 130.247 323.127 131.146C324.804 132.045 327.44 131.296 328.81 130.206Z" fill="#663D5C"/>
<path opacity="0.1" d="M350.491 164.138C348.605 163.936 346.707 164.386 345.109 165.414C343.51 166.442 342.306 167.986 341.694 169.794C339.643 175.677 336.222 186.292 337.078 190.487C338.284 196.432 339.704 206.345 339.704 206.345C339.704 206.345 345.936 209.961 342.782 213.607C339.627 217.254 338.735 222.42 338.735 222.42C338.735 222.42 334.688 224.181 333.816 227.926C332.944 231.671 327.035 236.842 327.035 236.842L318.182 245.762C318.182 245.762 332.831 260.742 335.786 261.507L344.859 250.825L355.574 236.511L364.868 226.697C364.868 226.697 367.053 221.531 365.961 211.717C364.868 201.903 360.601 192.558 360.601 192.558L360.929 189.252C360.929 189.252 361.934 165.569 350.491 164.138Z" fill="black"/>
<path d="M351.363 164.138C349.479 163.938 347.583 164.39 345.987 165.417C344.391 166.445 343.188 167.988 342.577 169.794C340.525 175.677 337.104 186.292 337.96 190.487C339.161 196.432 340.581 206.345 340.581 206.345C340.581 206.345 346.813 209.961 343.659 213.607C340.505 217.254 339.617 222.42 339.617 222.42C339.617 222.42 335.57 224.181 334.693 227.926C333.816 231.671 327.917 236.842 327.917 236.842L319.059 245.762C319.059 245.762 333.708 260.742 336.663 261.507L345.736 250.825L356.426 236.511L365.72 226.697C365.72 226.697 367.91 221.531 366.812 211.717C365.715 201.902 361.457 192.558 361.457 192.558L361.786 189.252C361.786 189.252 362.806 165.569 351.363 164.138Z" fill="#585B8A"/>
<path opacity="0.1" d="M342.207 197.646C342.207 197.646 351.502 209.093 355.441 206.562C359.38 204.031 342.207 197.646 342.207 197.646Z" fill="black"/>
<path opacity="0.1" d="M345.706 188.834C346.69 189.164 354.784 200.508 358.939 199.165C363.094 197.822 345.706 188.834 345.706 188.834Z" fill="black"/>
<path opacity="0.1" d="M348.003 208.318C348.003 208.318 348.552 214.816 355.22 213.933C361.889 213.05 348.003 208.318 348.003 208.318Z" fill="black"/>
<path opacity="0.1" d="M318.536 155.909L314.93 164.003L319.434 159.401L318.536 155.909Z" fill="black"/>
<path d="M318.536 155.47L314.93 163.564L319.434 158.962L318.536 155.47Z" fill="#F0F3F7"/>
<path opacity="0.3" d="M304.015 252.379L301.327 251.806L296.393 242.472L296.891 239.135L304.015 252.379Z" fill="black"/>
<path opacity="0.3" d="M350.799 251.894L350.209 254.988V254.993L343.213 260.742L340.571 260.179L350.799 251.894Z" fill="black"/>
<path opacity="0.1" d="M240.566 215.772C239.212 215.999 237.899 216.206 236.699 216.361C230.031 217.244 214.171 209.315 214.171 209.315C214.171 209.315 194.819 193.018 189.243 177.604C183.668 162.19 195.911 159.876 195.911 159.876C200.528 157.232 210.566 164.608 211.986 165.822C213.407 167.036 214.612 170.114 214.5 172.098C214.387 174.081 217.782 176.612 217.782 176.612C217.782 176.612 223.578 186.742 224.999 187.842C226.42 188.942 226.748 189.934 227.184 191.809C227.62 193.684 231.447 195.224 233.088 195.11C234.729 194.996 236.678 195.663 236.678 196.541C236.678 197.248 238.284 197.6 239.602 197.713C239.992 203.359 240.377 210.756 240.566 215.772Z" fill="black"/>
<path opacity="0.1" d="M240.505 214.16C239.479 214.325 238.494 214.475 237.571 214.599C230.903 215.482 215.048 207.554 215.048 207.554C215.048 207.554 195.696 191.256 190.12 175.843C184.545 160.429 196.788 158.115 196.788 158.115C201.405 155.47 211.437 162.846 212.858 164.06C214.279 165.274 215.484 168.353 215.377 170.336C215.269 172.32 218.654 174.851 218.654 174.851C218.654 174.851 224.45 184.98 225.871 186.081C227.292 187.181 227.62 188.173 228.061 190.048C228.502 191.923 232.324 193.457 233.965 193.348C235.606 193.24 237.556 193.901 237.556 194.779C237.556 195.296 238.469 195.642 239.484 195.812C239.525 196.412 239.561 197.047 239.607 197.708C239.946 202.786 240.295 209.263 240.505 214.16Z" fill="black"/>
<path opacity="0.1" d="M265.869 203.07L265.453 212.967H265.007L264.084 212.45L264.197 203.922C264.736 203.603 265.294 203.318 265.869 203.07Z" fill="black"/>
<path d="M195.911 158.993C195.911 158.993 183.668 161.307 189.243 176.721C194.819 192.135 214.171 208.437 214.171 208.437C214.171 208.437 230.026 216.361 236.699 215.482C243.372 214.604 253.533 212.29 254.846 212.621C256.159 212.951 265.018 212.951 265.018 212.951L265.454 202.62L255.195 202.068L249.948 200.967C249.948 200.967 248.086 199.418 246.993 199.645C245.901 199.872 243.608 198.323 243.608 198.323C243.608 198.323 241.854 196.892 240.531 196.892C239.207 196.892 236.704 196.561 236.704 195.683C236.704 194.805 234.735 194.134 233.114 194.252C231.493 194.371 227.62 192.822 227.169 190.926C226.718 189.03 226.405 188.064 224.984 186.964C223.563 185.864 217.767 175.729 217.767 175.729C217.767 175.729 214.377 173.198 214.484 171.22C214.592 169.241 213.392 166.152 211.971 164.938C210.55 163.724 200.497 156.353 195.911 158.993Z" fill="#DCE6F2"/>
<path opacity="0.1" d="M227.405 194.449C227.405 194.449 222.701 199.185 223.902 200.064L227.405 194.449Z" fill="black"/>
<path opacity="0.1" d="M232.431 198.194C232.431 198.194 226.307 202.93 227.948 203.261C229.59 203.592 232.431 198.194 232.431 198.194Z" fill="black"/>
<path opacity="0.1" d="M222.04 205.219C222.917 205.663 235.924 213.483 240.848 213.37L222.04 205.219Z" fill="black"/>
<path opacity="0.1" d="M222.922 152.939C222.922 152.939 220.624 160.537 219.747 160.537C219.06 160.537 207.519 151.126 202.702 147.169L202.913 146.994C202.913 146.994 203.349 143.579 205.098 141.828C206.847 140.077 222.922 152.939 222.922 152.939Z" fill="black"/>
<path d="M222.481 152.056C222.481 152.056 220.188 159.654 219.311 159.654C218.618 159.654 207.078 150.243 202.261 146.286L202.472 146.11C202.472 146.11 202.913 142.696 204.662 140.945C206.411 139.194 222.481 152.056 222.481 152.056Z" fill="#DCE6F2"/>
<g opacity="0.15">
<path opacity="0.15" d="M191.516 127.499C193.054 131.037 197.291 132.752 199.748 135.573C198.286 132.107 194.013 130.407 191.516 127.499Z" fill="black"/>
<path opacity="0.15" d="M207.196 135.65C206.585 136.833 205.144 137.406 203.831 137.381C202.663 137.296 201.52 137.002 200.456 136.513C200.842 137.086 201.136 137.717 201.328 138.383C202.525 138.962 203.819 139.313 205.144 139.416C206.472 139.447 207.898 138.873 208.509 137.685C209.488 135.8 208.468 134.188 207.273 132.665C207.495 133.133 207.604 133.648 207.591 134.167C207.578 134.686 207.442 135.194 207.196 135.65Z" fill="black"/>
<path opacity="0.15" d="M226.23 109.761C226.01 108.769 225.261 107.989 224.876 107.054C224.641 106.331 224.454 105.592 224.317 104.843C224.026 103.785 223.485 102.812 222.742 102.008C222.846 102.262 222.933 102.522 223.004 102.788C223.148 103.54 223.34 104.282 223.578 105.009C223.963 105.944 224.712 106.724 224.933 107.715C225.063 108.416 224.923 109.14 224.542 109.741C224.161 110.341 223.567 110.773 222.881 110.949C220.983 111.367 218.818 109.714 217.187 110.779C216.187 111.424 215.956 112.772 215.823 113.96C215.594 116.027 215.361 118.081 215.125 120.123C215.079 120.847 214.927 121.561 214.674 122.241C213.869 124.1 211.658 124.973 209.642 124.942C208.855 124.995 208.078 124.736 207.478 124.219C207.186 123.803 206.873 123.403 206.539 123.021C203.974 120.851 203.195 126.156 203.872 127.67C204.211 128.35 204.631 128.987 205.123 129.565C204.559 127.861 205.349 122.954 207.852 125.056C208.186 125.437 208.497 125.837 208.786 126.254C209.388 126.77 210.166 127.03 210.955 126.977C212.971 127.008 215.182 126.135 215.987 124.276C216.241 123.594 216.393 122.879 216.438 122.153C216.671 120.087 216.904 118.034 217.136 115.996C217.269 114.808 217.5 113.459 218.495 112.814C220.132 111.75 222.296 113.403 224.194 112.979C224.875 112.801 225.463 112.371 225.841 111.773C226.219 111.176 226.358 110.457 226.23 109.761Z" fill="black"/>
</g>
<path opacity="0.1" d="M339.791 142.758C339.246 142.86 338.685 142.846 338.145 142.717C336.079 142.296 334.219 141.177 332.872 139.545C332.128 138.636 331.544 137.396 331.995 136.311C332.354 135.438 333.298 134.891 333.534 133.982C333.64 133.427 333.611 132.854 333.447 132.313L332.893 129.767C332.734 129.044 332.457 128.191 331.744 128.021C331.031 127.85 330.436 128.439 329.877 128.883C328.507 129.973 325.876 130.717 324.234 129.818C322.593 128.92 323.05 125.934 322.783 124.317C322.779 124.178 322.744 124.041 322.682 123.916C322.62 123.791 322.532 123.681 322.424 123.594C322.183 123.51 321.925 123.49 321.675 123.537C320.788 123.537 320.08 122.737 319.818 121.879C319.64 121.003 319.543 120.113 319.526 119.219C319.423 118.33 319.105 117.38 318.341 116.92C317.738 116.635 317.07 116.518 316.407 116.584L312.601 116.626C311.663 116.626 310.55 116.564 310.037 115.779C309.524 114.994 309.903 113.878 310.442 113.077C310.981 112.276 311.663 111.481 311.709 110.494C311.755 109.508 311.119 108.655 310.601 107.829C310.304 107.377 310.085 106.877 309.955 106.352L308.862 106.285C308.436 107.163 308.862 108.211 309.375 109.043C309.888 109.875 310.529 110.727 310.483 111.703C310.437 112.679 309.755 113.465 309.216 114.286C308.678 115.107 308.283 116.182 308.816 116.987C309.349 117.793 310.432 117.85 311.381 117.84L315.187 117.793C315.85 117.729 316.518 117.846 317.12 118.134C317.885 118.594 318.208 119.544 318.305 120.433C318.321 121.327 318.421 122.218 318.603 123.093C318.859 123.945 319.572 124.761 320.459 124.746C320.708 124.702 320.964 124.721 321.203 124.803C321.312 124.891 321.4 125.001 321.462 125.127C321.524 125.253 321.558 125.391 321.562 125.531C321.829 127.143 321.336 130.133 323.014 131.032C324.691 131.931 327.307 131.187 328.656 130.097C329.215 129.653 329.836 129.064 330.528 129.23C331.221 129.395 331.518 130.263 331.672 130.975L332.231 133.527C332.393 134.068 332.422 134.641 332.313 135.196C332.057 136.1 331.108 136.652 330.749 137.52C330.302 138.605 330.882 139.85 331.626 140.754C332.982 142.393 334.856 143.513 336.934 143.925C337.474 144.055 338.035 144.069 338.581 143.967C339.463 143.696 340.219 143.117 340.715 142.334C340.435 142.53 340.122 142.673 339.791 142.758Z" fill="black"/>
<path opacity="0.1" d="M104.477 370.885C111.324 370.885 116.875 370.027 116.875 368.969C116.875 367.911 111.324 367.053 104.477 367.053C97.6306 367.053 92.0801 367.911 92.0801 368.969C92.0801 370.027 97.6306 370.885 104.477 370.885Z" fill="#FF5555"/>
<path opacity="0.1" d="M537.344 321.059C544.191 321.059 549.742 320.201 549.742 319.143C549.742 318.085 544.191 317.227 537.344 317.227C530.497 317.227 524.947 318.085 524.947 319.143C524.947 320.201 530.497 321.059 537.344 321.059Z" fill="#FF5555"/>
<path opacity="0.1" d="M410.955 401.914C430.784 401.914 446.859 399.431 446.859 396.367C446.859 393.303 430.784 390.819 410.955 390.819C391.125 390.819 375.05 393.303 375.05 396.367C375.05 399.431 391.125 401.914 410.955 401.914Z" fill="#FF5555"/>
<path opacity="0.1" d="M513.021 377.192C528.488 377.192 541.027 375.255 541.027 372.864C541.027 370.473 528.488 368.535 513.021 368.535C497.554 368.535 485.016 370.473 485.016 372.864C485.016 375.255 497.554 377.192 513.021 377.192Z" fill="#FF5555"/>
<path opacity="0.1" d="M508.41 423.336C534.639 423.336 555.902 420.049 555.902 415.995C555.902 411.942 534.639 408.655 508.41 408.655C482.181 408.655 460.919 411.942 460.919 415.995C460.919 420.049 482.181 423.336 508.41 423.336Z" fill="#FF5555"/>
<path opacity="0.1" d="M51.4155 428C71.2451 428 87.3201 425.516 87.3201 422.452C87.3201 419.388 71.2451 416.905 51.4155 416.905C31.5859 416.905 15.5108 419.388 15.5108 422.452C15.5108 425.516 31.5859 428 51.4155 428Z" fill="#FF5555"/>
<path d="M105.042 307.934C105.042 307.934 106.447 309.783 104.395 312.583C102.344 315.383 100.651 317.748 101.318 319.474C101.318 319.474 104.395 314.308 106.96 314.215C109.525 314.122 107.817 311.054 105.042 307.934Z" fill="#FF5555"/>
<path opacity="0.1" d="M105.042 307.934C105.167 308.11 105.264 308.306 105.329 308.513C107.791 311.426 109.099 314.138 106.734 314.195C104.534 314.256 101.892 318.224 101.261 319.226C101.281 319.303 101.305 319.379 101.333 319.453C101.333 319.453 104.411 314.287 106.975 314.195C109.54 314.102 107.817 311.054 105.042 307.934Z" fill="black"/>
<path d="M107.658 310.289C107.658 310.94 107.581 311.467 107.494 311.467C107.406 311.467 107.329 310.951 107.329 310.289C107.329 309.628 107.422 309.948 107.509 309.948C107.597 309.948 107.658 309.638 107.658 310.289Z" fill="#FFD037"/>
<path d="M108.55 311.069C107.986 311.379 107.488 311.586 107.447 311.488C107.406 311.39 107.827 311.095 108.396 310.78C108.966 310.465 108.74 310.697 108.781 310.78C108.822 310.863 109.119 310.754 108.55 311.069Z" fill="#FFD037"/>
<path d="M97.6248 307.934C97.6248 307.934 96.2194 309.783 98.2711 312.583C100.323 315.383 102.021 317.748 101.349 319.474C101.349 319.474 98.2711 314.308 95.7321 314.215C93.1931 314.122 94.8345 311.054 97.6248 307.934Z" fill="#FF5555"/>
<path opacity="0.1" d="M97.6248 307.934C97.5022 308.112 97.4055 308.307 97.3376 308.513C94.8755 311.426 93.5676 314.138 95.9321 314.195C98.1326 314.256 100.774 318.224 101.41 319.226C101.389 319.303 101.363 319.379 101.333 319.453C101.333 319.453 98.2557 314.287 95.7167 314.195C93.1777 314.102 94.8345 311.054 97.6248 307.934Z" fill="black"/>
<path d="M95.014 310.289C95.014 310.94 95.086 311.467 95.1734 311.467C95.2608 311.467 95.3379 310.951 95.3379 310.289C95.3379 309.628 95.2453 309.948 95.158 309.948C95.0706 309.948 95.014 309.638 95.014 310.289Z" fill="#FFD037"/>
<path d="M94.1164 311.069C94.6857 311.379 95.1781 311.586 95.2243 311.488C95.2705 311.39 94.8396 311.095 94.2703 310.78C93.7009 310.465 93.9266 310.697 93.8856 310.78C93.8445 310.863 93.547 310.754 94.1164 311.069Z" fill="#FFD037"/>
<path opacity="0.1" d="M101.333 333.617C109.444 333.617 116.018 332.601 116.018 331.349C116.018 330.097 109.444 329.081 101.333 329.081C93.2229 329.081 86.6482 330.097 86.6482 331.349C86.6482 332.601 93.2229 333.617 101.333 333.617Z" fill="#FF5555"/>
<path d="M108.894 316.973L108.822 317.552L108.724 318.368L108.683 318.709L108.586 319.525L108.54 319.866L108.442 320.682L107.319 329.98C107.222 330.807 105.878 331.452 104.242 331.452H98.4249C96.8041 331.452 95.4602 330.807 95.3474 329.98L94.2241 320.682L94.1266 319.866L94.0856 319.525L93.983 318.709L93.942 318.368L93.8445 317.552L93.7727 316.973C93.7163 316.503 94.4447 316.111 95.3628 316.111H107.309C108.222 316.111 108.95 316.503 108.894 316.973Z" fill="#65617D"/>
<path d="M108.822 317.552L108.725 318.368H93.9421L93.8446 317.552H108.822Z" fill="#9D9CB5"/>
<path d="M108.683 318.709L108.586 319.525H94.0856L93.983 318.709H108.683Z" fill="#9D9CB5"/>
<path d="M108.545 319.866L108.442 320.682H94.2241L94.1266 319.866H108.545Z" fill="#9D9CB5"/>
<path d="M527.573 300.78C527.573 300.78 525.819 309.003 533.62 309.974L534.102 309.06C534.102 309.06 528.055 303.332 527.573 300.78Z" fill="#FF5555"/>
<path d="M536.585 308.993L534.769 309.38L534.59 309.422C534.59 309.422 529.748 305.465 529.809 296.632C530.456 297.934 531.231 299.168 532.123 300.315C534.041 302.872 536.221 306.281 536.585 308.993Z" fill="#FF5555"/>
<path d="M537.195 309.84C537.053 309.934 536.891 309.994 536.723 310.016C536.554 310.038 536.383 310.022 536.221 309.969C531.564 308.874 533.143 293.589 533.143 293.589C533.4 293.708 533.656 295.656 534.754 298.166C536.626 302.572 538.693 308.735 537.195 309.84Z" fill="#FF5555"/>
<path d="M547.526 300.78C547.526 300.78 547.828 309.003 540.027 309.974L539.54 309.045C539.54 309.045 547.044 303.332 547.526 300.78Z" fill="#FF5555"/>
<path d="M545.289 296.647C545.351 305.48 539.062 309.437 539.062 309.437L538.878 309.396L537.067 309.008C537.426 306.296 539.632 302.887 541.525 300.33C542.611 298.939 543.877 297.701 545.289 296.647Z" fill="#FF5555"/>
<path d="M538.852 309.045C538.576 309.388 538.225 309.662 537.826 309.845C537.703 309.901 537.574 309.945 537.442 309.974C536.298 310.243 535.903 309.411 535.964 307.996C536.072 305.48 537.642 301.116 539.042 297.846C539.716 296.242 540.712 294.795 541.966 293.595C541.966 293.595 541.894 305.491 538.852 309.045Z" fill="#FF5555"/>
<path d="M537.549 288.228C537.549 288.228 532.348 306.823 536.826 309.602C541.304 312.381 538.698 289.87 537.549 288.228Z" fill="#FF5555"/>
<path opacity="0.1" d="M527.573 300.78C527.573 300.78 525.819 309.003 533.62 309.974L534.102 309.06C534.102 309.06 528.055 303.332 527.573 300.78Z" fill="black"/>
<path opacity="0.1" d="M536.585 308.993L534.769 309.38L534.59 309.422C534.59 309.422 529.748 305.465 529.809 296.632C530.456 297.934 531.231 299.168 532.123 300.315C534.041 302.872 536.221 306.281 536.585 308.993Z" fill="black"/>
<path opacity="0.1" d="M537.195 309.84C537.053 309.934 536.891 309.994 536.723 310.016C536.554 310.038 536.383 310.022 536.221 309.969C531.564 308.874 533.143 293.589 533.143 293.589C533.4 293.708 533.656 295.656 534.754 298.166C536.626 302.572 538.693 308.735 537.195 309.84Z" fill="black"/>
<path opacity="0.1" d="M547.526 300.78C547.526 300.78 547.828 309.003 540.027 309.974L539.54 309.045C539.54 309.045 547.044 303.332 547.526 300.78Z" fill="black"/>
<path opacity="0.1" d="M545.289 296.647C545.351 305.48 539.062 309.437 539.062 309.437L538.878 309.396L537.067 309.008C537.426 306.296 539.632 302.887 541.525 300.33C542.611 298.939 543.877 297.701 545.289 296.647Z" fill="black"/>
<path opacity="0.1" d="M538.852 309.045C538.576 309.388 538.225 309.662 537.826 309.845C537.703 309.901 537.574 309.945 537.442 309.974C536.298 310.243 535.903 309.411 535.964 307.996C536.072 305.48 537.642 301.116 539.042 297.846C539.716 296.242 540.712 294.795 541.966 293.595C541.966 293.595 541.894 305.491 538.852 309.045Z" fill="black"/>
<path opacity="0.1" d="M537.549 288.228C537.549 288.228 532.348 306.823 536.826 309.602C541.304 312.381 538.698 289.87 537.549 288.228Z" fill="black"/>
<path d="M527.573 300.78C527.573 300.78 526.547 309.003 534.344 309.974L534.826 309.06C534.826 309.06 528.055 303.332 527.573 300.78Z" fill="#FF5555"/>
<path d="M537.308 308.993L535.492 309.38L535.313 309.422C535.313 309.422 529.748 305.465 529.794 296.647C529.794 296.647 531.22 298.197 532.83 300.33C534.764 302.872 536.944 306.281 537.308 308.993Z" fill="#FF5555"/>
<path opacity="0.1" d="M537.308 308.993L535.492 309.38C533.774 307.862 533.092 303.895 532.846 300.315C534.764 302.872 536.944 306.281 537.308 308.993Z" fill="black"/>
<path d="M537.924 309.84C537.78 309.934 537.618 309.994 537.448 310.016C537.279 310.038 537.107 310.022 536.944 309.969C532.287 308.874 533.138 293.589 533.138 293.589C533.395 293.708 534.4 295.656 535.472 298.166C537.354 302.572 539.416 308.735 537.924 309.84Z" fill="#FF5555"/>
<path d="M547.526 300.78C547.526 300.78 548.552 309.003 540.755 309.974L540.273 309.06C540.273 309.06 547.044 303.332 547.526 300.78Z" fill="#FF5555"/>
<path d="M545.289 296.647C545.351 305.48 539.786 309.437 539.786 309.437L539.606 309.396L537.79 309.008C538.149 306.296 540.355 302.887 542.253 300.33C543.863 298.197 545.289 296.647 545.289 296.647Z" fill="#FF5555"/>
<path opacity="0.1" d="M542.253 300.315C542.017 303.652 541.412 307.324 539.939 309.039C539.839 309.163 539.727 309.277 539.606 309.38L537.79 308.993C538.149 306.281 540.334 302.872 542.253 300.315Z" fill="black"/>
<path d="M539.575 309.045C539.301 309.389 538.949 309.664 538.549 309.845C538.427 309.901 538.3 309.944 538.17 309.974C537.021 310.243 536.631 309.411 536.688 307.996C536.8 305.48 538.37 301.116 539.765 297.846C540.791 295.496 541.719 293.713 541.966 293.595C541.966 293.59 542.617 305.491 539.575 309.045Z" fill="#FF5555"/>
<path opacity="0.1" d="M537.924 309.84C537.659 309.843 537.399 309.76 537.185 309.602C534.995 308.228 534.949 303.073 535.472 298.166C537.354 302.572 539.416 308.735 537.924 309.84Z" fill="black"/>
<path opacity="0.1" d="M539.575 309.044C539.324 309.597 538.985 309.886 538.549 309.845C538.326 309.818 538.113 309.736 537.929 309.607C537.358 309.214 536.924 308.65 536.688 307.996C536.8 305.48 538.37 301.115 539.765 297.846C540.268 302.376 540.437 307.18 539.575 309.044Z" fill="black"/>
<path d="M537.549 288.228C537.549 288.228 533.077 306.823 537.549 309.602C542.022 312.381 538.698 289.87 537.549 288.228Z" fill="#FF5555"/>
<path d="M546.136 308.693H527.511V311.798H530.353L530.425 312.165L531.563 318.193H542.391L543.53 312.165L543.597 311.798H546.136V308.693Z" fill="#4B4770"/>
<path opacity="0.1" d="M546.136 308.693H527.511V311.798H530.353L530.425 312.165L531.563 318.193H542.391L543.53 312.165L543.597 311.798H546.136V308.693Z" fill="black"/>
<path d="M544.566 310.517L544.253 312.164L543.115 318.193H532.287L531.148 312.164L530.835 310.517H544.566Z" fill="#4B4770"/>
<path opacity="0.1" d="M544.566 310.517L544.253 312.164H531.148L530.835 310.517H544.566Z" fill="black"/>
<path d="M546.859 308.693H528.234V311.798H546.859V308.693Z" fill="#4B4770"/>
<path d="M71.4965 361.815C71.0055 362.497 70.6118 363.244 70.327 364.036C70.2552 364.227 70.1834 364.449 70.1116 364.661C69.9814 364.6 69.8457 364.551 69.7064 364.516C69.1085 364.364 68.4899 364.312 67.8752 364.361C67.8752 364.119 67.906 363.845 67.9111 363.602C67.9881 360.88 67.6701 357.088 65.09 358.695C62.6178 360.245 64.3822 362.827 65.9774 364.48C66.1159 364.625 66.2544 364.759 66.3877 364.888C64.931 365.921 64.6541 368.365 64.413 370.901C64.1719 373.437 62.033 376.211 60.6122 377.786C60.4686 377.947 60.3404 378.091 60.2121 378.225C59.6378 377.764 58.973 377.43 58.2613 377.246C57.5496 377.061 56.8073 377.031 56.0831 377.156C56.0267 376.934 55.96 376.702 55.8933 376.459C54.7444 372.28 52.3593 365.043 49.3176 363.458L49.7177 362.941C51.0103 361.242 52.467 358.71 50.3179 358.065C48.1687 357.419 47.9738 360.255 48.0918 362.383C48.1123 362.652 48.1328 362.905 48.1533 363.142C47.7237 363.162 47.3026 363.27 46.9162 363.461C46.5298 363.651 46.1862 363.919 45.9067 364.248L45.5733 363.85C43.8294 361.784 40.6338 358.493 39.6644 360.978C38.7617 363.292 41.5776 366.298 43.5575 368.039L43.6806 368.148C42.3521 373.577 48.1533 378.003 51.277 379.94L51.6822 380.188C47.3737 385.302 44.7116 394.889 44.7116 394.889L56.7756 397.059C56.7756 397.059 64.7772 390.106 63.7513 383.577H63.8334C71.8299 381.965 73.6456 373.38 72.3992 368.282L72.5428 368.225C73.9997 367.625 75.2761 366.653 76.2461 365.405C78.4825 362.28 73.8046 358.747 71.4965 361.815Z" fill="#FF5555"/>
<path opacity="0.1" d="M71.4965 361.815C71.0055 362.497 70.6118 363.244 70.327 364.036C70.2552 364.227 70.1834 364.449 70.1116 364.661C69.9814 364.6 69.8457 364.551 69.7064 364.516C69.1085 364.364 68.4899 364.312 67.8752 364.361C67.8752 364.119 67.906 363.845 67.9111 363.602C67.9881 360.88 67.6701 357.088 65.09 358.695C62.6178 360.245 64.3822 362.827 65.9774 364.48C66.1159 364.625 66.2544 364.759 66.3877 364.888C64.931 365.921 64.6541 368.365 64.413 370.901C64.1719 373.437 62.033 376.211 60.6122 377.786C60.4686 377.947 60.3404 378.091 60.2121 378.225C59.6378 377.764 58.973 377.43 58.2613 377.246C57.5496 377.061 56.8073 377.031 56.0831 377.156C56.0267 376.934 55.96 376.702 55.8933 376.459C54.7444 372.28 52.3593 365.043 49.3176 363.458L49.7177 362.941C51.0103 361.242 52.467 358.71 50.3179 358.065C48.1687 357.419 47.9738 360.255 48.0918 362.383C48.1123 362.652 48.1328 362.905 48.1533 363.142C47.7237 363.162 47.3026 363.27 46.9162 363.461C46.5298 363.651 46.1862 363.919 45.9067 364.248L45.5733 363.85C43.8294 361.784 40.6338 358.493 39.6644 360.978C38.7617 363.292 41.5776 366.298 43.5575 368.039L43.6806 368.148C42.3521 373.577 48.1533 378.003 51.277 379.94L51.6822 380.188C47.3737 385.302 44.7116 394.889 44.7116 394.889L56.7756 397.059C56.7756 397.059 64.7772 390.106 63.7513 383.577H63.8334C71.8299 381.965 73.6456 373.38 72.3992 368.282L72.5428 368.225C73.9997 367.625 75.2761 366.653 76.2461 365.405C78.4825 362.28 73.8046 358.747 71.4965 361.815Z" fill="black"/>
<path d="M47.4814 365.348L46.0708 369.481C46.0708 369.481 45.286 368.923 44.2961 368.045C42.3162 366.304 39.5003 363.297 40.403 360.983C41.3724 358.499 44.5679 361.779 46.3119 363.855C47.0146 364.682 47.4814 365.348 47.4814 365.348Z" fill="#FF5555"/>
<path d="M50.4563 362.946C50.0278 363.515 49.5689 364.06 49.0816 364.578C48.9612 363.853 48.8773 363.122 48.8303 362.388C48.7123 360.26 48.938 357.435 51.0564 358.07C53.1748 358.705 51.7488 361.247 50.4563 362.946Z" fill="#FF5555"/>
<path d="M68.6753 363.602C68.6343 364.971 68.5009 366.066 68.5009 366.066C67.8805 365.577 67.2928 365.047 66.7416 364.48C65.1464 362.812 63.382 360.239 65.8543 358.695C68.4086 357.083 68.7266 360.88 68.6753 363.602Z" fill="#FF5555"/>
<path d="M76.9848 365.395C76.0148 366.643 74.7384 367.615 73.2814 368.215C72.877 368.391 72.4625 368.543 72.0402 368.67L70.3783 366.319C70.5528 365.543 70.7825 364.78 71.0656 364.036C71.3504 363.244 71.7441 362.497 72.2351 361.815C74.533 358.747 79.2211 362.28 76.9848 365.395Z" fill="#FF5555"/>
<path opacity="0.1" d="M46.3119 363.855C47.0146 364.682 47.4814 365.322 47.4814 365.322L46.0709 369.455C46.0709 369.455 45.2861 368.897 44.2961 368.019C44.5161 366.687 45.0626 365.432 45.8862 364.367C46.0247 364.196 46.1734 364.021 46.3119 363.855Z" fill="black"/>
<path opacity="0.1" d="M50.4563 362.946C50.0278 363.515 49.5689 364.06 49.0817 364.578C48.9612 363.853 48.8774 363.122 48.8303 362.388C49.4165 362.4 49.9846 362.595 50.4563 362.946Z" fill="black"/>
<path d="M57.391 379.455L53.8826 381.005C53.8826 381.005 53.1184 380.633 52.0156 379.941C48.3277 377.657 40.9159 371.908 45.8605 365.131C50.8051 358.354 54.9752 370.508 56.6319 376.454C57.1294 378.262 57.391 379.455 57.391 379.455Z" fill="#FF5555"/>
<path opacity="0.1" d="M66.716 364.48C67.2263 363.951 67.9177 363.637 68.6497 363.602C68.6087 364.971 68.4753 366.066 68.4753 366.066C67.8549 365.577 67.2672 365.047 66.716 364.48Z" fill="black"/>
<path opacity="0.1" d="M73.2917 368.215C72.8873 368.391 72.4728 368.543 72.0504 368.669L70.3885 366.319C70.563 365.543 70.7927 364.78 71.0759 364.036C72.1376 364.666 72.9275 366.237 73.2917 368.215Z" fill="black"/>
<path d="M64.572 383.567C64.3822 383.608 64.1821 383.644 63.9821 383.675C52.2207 385.473 60.1044 379.083 60.1044 379.083C60.1044 379.083 60.6173 378.566 61.3508 377.787C62.7716 376.211 64.9054 373.453 65.1516 370.901C65.5209 367.063 65.9466 363.463 70.4449 364.516C74.8612 365.56 75.7075 381.32 64.572 383.567Z" fill="#FF5555"/>
<path d="M64.3515 413.056H41.8802V419.007H64.3515V413.056Z" fill="#D4DFEC"/>
<path d="M67.6701 393.717H38.3103V414.482H67.6701V393.717Z" fill="#D4DFEC"/>
<path opacity="0.1" d="M64.3515 413.056H41.8802V419.007H64.3515V413.056Z" fill="black"/>
<path opacity="0.1" d="M67.6701 393.717H38.3103V414.482H67.6701V393.717Z" fill="black"/>
<path d="M65.8286 413.056H43.3574V419.007H65.8286V413.056Z" fill="#D4DFEC"/>
<path opacity="0.1" d="M56.6319 376.459C57.1448 378.236 57.391 379.455 57.391 379.455L53.8826 381.005C53.8826 381.005 53.1184 380.633 52.0156 379.941C53.3902 378.189 54.9392 376.867 56.6319 376.459Z" fill="black"/>
<path opacity="0.1" d="M64.5719 383.567C64.3822 383.608 64.1821 383.644 63.9821 383.675C52.2207 385.473 60.1044 379.083 60.1044 379.083C60.1044 379.083 60.6173 378.566 61.3508 377.786C63.5461 379.558 64.454 381.552 64.5719 383.567Z" fill="black"/>
<path d="M45.4502 394.895C45.4502 394.895 52.0361 371.133 61.2739 378.463C70.5117 385.793 57.5142 397.059 57.5142 397.059L45.4502 394.895Z" fill="#FF5555"/>
<path opacity="0.1" d="M48.7739 369.599C49.1818 369.599 49.5125 369.266 49.5125 368.855C49.5125 368.445 49.1818 368.112 48.7739 368.112C48.366 368.112 48.0353 368.445 48.0353 368.855C48.0353 369.266 48.366 369.599 48.7739 369.599Z" fill="black"/>
<path opacity="0.1" d="M48.7124 373.07C49.1203 373.07 49.451 372.737 49.451 372.327C49.451 371.916 49.1203 371.583 48.7124 371.583C48.3044 371.583 47.9738 371.916 47.9738 372.327C47.9738 372.737 48.3044 373.07 48.7124 373.07Z" fill="black"/>
<path opacity="0.1" d="M70.1372 370.281C70.5451 370.281 70.8758 369.948 70.8758 369.537C70.8758 369.126 70.5451 368.793 70.1372 368.793C69.7292 368.793 69.3986 369.126 69.3986 369.537C69.3986 369.948 69.7292 370.281 70.1372 370.281Z" fill="black"/>
<path opacity="0.1" d="M52.903 388.076C53.3109 388.076 53.6416 387.743 53.6416 387.332C53.6416 386.921 53.3109 386.588 52.903 386.588C52.4951 386.588 52.1644 386.921 52.1644 387.332C52.1644 387.743 52.4951 388.076 52.903 388.076Z" fill="black"/>
<path opacity="0.1" d="M68.5984 376.046C69.0063 376.046 69.337 375.713 69.337 375.302C69.337 374.891 69.0063 374.558 68.5984 374.558C68.1905 374.558 67.8598 374.891 67.8598 375.302C67.8598 375.713 68.1905 376.046 68.5984 376.046Z" fill="black"/>
<path opacity="0.1" d="M60.9661 383.737C61.374 383.737 61.7047 383.404 61.7047 382.993C61.7047 382.583 61.374 382.25 60.9661 382.25C60.5582 382.25 60.2275 382.583 60.2275 382.993C60.2275 383.404 60.5582 383.737 60.9661 383.737Z" fill="black"/>
<path opacity="0.1" d="M51.2976 371.087C51.7055 371.087 52.0362 370.754 52.0362 370.343C52.0362 369.932 51.7055 369.599 51.2976 369.599C50.8896 369.599 50.559 369.932 50.559 370.343C50.559 370.754 50.8896 371.087 51.2976 371.087Z" fill="black"/>
<path opacity="0.1" d="M68.106 372.513C68.514 372.513 68.8446 372.18 68.8446 371.769C68.8446 371.358 68.514 371.025 68.106 371.025C67.6981 371.025 67.3674 371.358 67.3674 371.769C67.3674 372.18 67.6981 372.513 68.106 372.513Z" fill="black"/>
<path opacity="0.1" d="M65.5824 378.277C65.9903 378.277 66.321 377.944 66.321 377.533C66.321 377.123 65.9903 376.79 65.5824 376.79C65.1745 376.79 64.8438 377.123 64.8438 377.533C64.8438 377.944 65.1745 378.277 65.5824 378.277Z" fill="black"/>
<path opacity="0.1" d="M57.827 387.518C58.2349 387.518 58.5656 387.185 58.5656 386.774C58.5656 386.364 58.2349 386.031 57.827 386.031C57.4191 386.031 57.0884 386.364 57.0884 386.774C57.0884 387.185 57.4191 387.518 57.827 387.518Z" fill="black"/>
<path opacity="0.1" d="M56.2267 383.861C56.6346 383.861 56.9653 383.528 56.9653 383.117C56.9653 382.706 56.6346 382.373 56.2267 382.373C55.8188 382.373 55.4881 382.706 55.4881 383.117C55.4881 383.528 55.8188 383.861 56.2267 383.861Z" fill="black"/>
<path opacity="0.1" d="M52.4055 375.612C52.8134 375.612 53.1441 375.279 53.1441 374.868C53.1441 374.457 52.8134 374.124 52.4055 374.124C51.9976 374.124 51.6669 374.457 51.6669 374.868C51.6669 375.279 51.9976 375.612 52.4055 375.612Z" fill="black"/>
<path opacity="0.1" d="M65.8286 413.056H43.3574V415.231H65.8286V413.056Z" fill="black"/>
<path d="M69.1472 393.717H39.7875V414.482H69.1472V393.717Z" fill="#D4DFEC"/>
<path opacity="0.1" d="M58.8118 390.865C59.2198 390.865 59.5505 390.532 59.5505 390.122C59.5505 389.711 59.2198 389.378 58.8118 389.378C58.4039 389.378 58.0732 389.711 58.0732 390.122C58.0732 390.532 58.4039 390.865 58.8118 390.865Z" fill="black"/>
<path opacity="0.1" d="M54.3802 391.795C54.7881 391.795 55.1188 391.462 55.1188 391.051C55.1188 390.641 54.7881 390.308 54.3802 390.308C53.9723 390.308 53.6416 390.641 53.6416 391.051C53.6416 391.462 53.9723 391.795 54.3802 391.795Z" fill="black"/>
<path opacity="0.1" d="M25.6461 32.2635C28.6092 32.2635 31.0113 29.8445 31.0113 26.8604C31.0113 23.8764 28.6092 21.4573 25.6461 21.4573C22.683 21.4573 20.2809 23.8764 20.2809 26.8604C20.2809 29.8445 22.683 32.2635 25.6461 32.2635Z" fill="#FF5555"/>
<path opacity="0.1" d="M540.914 204.082C544.88 204.082 548.095 200.845 548.095 196.851C548.095 192.857 544.88 189.619 540.914 189.619C536.948 189.619 533.733 192.857 533.733 196.851C533.733 200.845 536.948 204.082 540.914 204.082Z" fill="#FF5555"/>
<path opacity="0.1" d="M554.758 186.633C557.653 186.633 560 184.27 560 181.354C560 178.439 557.653 176.075 554.758 176.075C551.863 176.075 549.516 178.439 549.516 181.354C549.516 184.27 551.863 186.633 554.758 186.633Z" fill="#FF5555"/>
<path opacity="0.1" d="M34.8788 14.4633C38.8447 14.4633 42.0598 11.2256 42.0598 7.23165C42.0598 3.23772 38.8447 0 34.8788 0C30.9129 0 27.6979 3.23772 27.6979 7.23165C27.6979 11.2256 30.9129 14.4633 34.8788 14.4633Z" fill="#FF5555"/>
<path opacity="0.1" d="M7.18093 47.5223C11.1469 47.5223 14.3619 44.2845 14.3619 40.2906C14.3619 36.2967 11.1469 33.059 7.18093 33.059C3.21501 33.059 0 36.2967 0 40.2906C0 44.2845 3.21501 47.5223 7.18093 47.5223Z" fill="#FF5555"/>
</g>
<defs>
<linearGradient id="paint0_linear" x1="270.377" y1="400.763" x2="270.377" y2="98.3246" gradientUnits="userSpaceOnUse">
<stop stop-color="#808080" stop-opacity="0.25"/>
<stop offset="0.54" stop-color="#808080" stop-opacity="0.12"/>
<stop offset="1" stop-color="#808080" stop-opacity="0.1"/>
</linearGradient>
<clipPath id="clip0">
<rect width="560" height="428" fill="white"/>
</clipPath>
</defs>
</svg>
